<svg width="150" height="32" viewBox="0 0 150 32" fill="none" xmlns="http://www.w3.org/2000/svg">
<path d="M40.2907 25.3133C39.8668 26.6079 39.5002 27.7764 39.0649 29.071C38.8358 29.7584 38.5837 30.4229 38.3546 31.1102C38.114 31.8091 37.6214 32.1528 36.9111 31.9351C35.3874 31.4539 33.8637 30.9155 32.3629 30.3656C31.7672 30.1479 31.5495 29.724 31.7442 29.1397C32.0765 28.1201 32.3514 27.2609 32.7295 26.2527C32.8211 26.0236 32.9357 25.6112 33.0159 25.3706C33.5085 23.8812 34.0012 22.3919 34.5167 20.914C35.3072 18.6342 36.1091 16.3544 36.8882 14.0745C37.6099 11.9666 38.3202 9.85859 39.042 7.7506C39.7408 5.71136 40.4282 3.67212 41.1271 1.64433C41.2302 1.33501 41.3791 1.03714 41.5051 0.727817C41.7457 0.132084 42.2612 -0.131414 42.8913 0.0633451C43.762 0.349756 44.6327 0.670535 45.5034 0.968402C46.0075 1.14025 46.523 1.3121 47.0271 1.47248C47.9436 1.7589 48.2644 2.34317 47.9665 3.24823C47.1646 5.5968 46.3512 7.94536 45.5378 10.2939C44.6098 12.9976 43.6933 15.7014 42.7539 18.3936C41.9977 20.5818 41.2187 22.77 40.4511 24.9581L40.2907 25.3133Z" fill="#CCF900"/>
<path d="M11.3744 31.9591C10.6641 31.9591 10.286 31.6956 10.1027 31.1572C9.34661 28.9232 8.59049 26.6892 7.84582 24.4437C7.60524 23.7334 7.42194 23.0002 7.16989 22.2899C6.66581 20.8922 6.1159 19.5175 5.63473 18.1198C5.07337 16.5044 4.58074 14.8662 4.03083 13.2508C3.77879 12.5061 3.46947 11.7729 3.20597 11.0282C2.58733 9.24105 2.00305 7.43093 1.3844 5.64373C1.1209 4.88761 0.834493 4.12003 0.52517 3.38682C0.147108 2.50467 0.353324 1.89748 1.35003 1.51942C2.64461 1.02679 3.9621 0.614363 5.27958 0.179019C6.32212 -0.164674 6.81474 0.0873675 7.16989 1.15281C7.94893 3.46701 8.72797 5.79266 9.51846 8.10686C10.3662 10.5814 11.2255 13.056 12.0732 15.5306C12.921 18.0052 13.7573 20.4798 14.6166 22.9429C15.3154 24.9478 16.0257 26.9412 16.736 28.9346C16.988 29.6335 16.7016 30.1948 15.8539 30.5042C14.5249 30.9853 13.1731 31.4321 11.8327 31.8789C11.6379 31.9362 11.4317 31.9477 11.3744 31.9591Z" fill="#CCF900"/>
<path d="M24.2169 25.9542C20.4133 26.0115 17.2857 22.8152 17.2628 19.0345C17.2399 15.105 20.4362 12.0232 24.1825 12.0117C28.261 12.0003 31.1709 15.3227 31.2626 18.8971C31.3428 22.5287 28.0891 26.1261 24.2169 25.9542Z" fill="#CCF900"/>
<path d="M57.7354 13.4444H59.8434L59.5913 15.3003H59.6372C59.7174 15.1284 59.8777 14.9222 60.1183 14.6702C60.3589 14.4181 60.6568 14.1776 61.0234 13.9599C61.39 13.7308 61.8024 13.536 62.2607 13.3871C62.7189 13.2267 63.223 13.1465 63.75 13.1465C65.4685 13.1465 66.6027 13.8797 67.1411 15.3576C67.6452 14.6244 68.2639 14.063 69.02 13.6964C69.7761 13.3298 70.5093 13.1465 71.2196 13.1465C72.1361 13.1465 72.8693 13.2954 73.4078 13.6047C73.9462 13.9141 74.3472 14.3036 74.6107 14.7962C74.8742 15.2888 75.0231 15.8502 75.0575 16.4803C75.1033 17.1104 75.069 17.7634 74.9659 18.4279L74.0379 25.359H71.781L72.7089 18.7258C72.7777 18.2675 72.8006 17.8322 72.8006 17.4197C72.7891 16.9958 72.7204 16.6292 72.5829 16.3085C72.4454 15.9877 72.2278 15.7356 71.9184 15.5409C71.6091 15.3461 71.1738 15.2545 70.6239 15.2545C69.5355 15.2545 68.7107 15.5867 68.1493 16.2626C67.5879 16.9271 67.2328 17.7978 67.0838 18.8518L66.1788 25.359H63.9219L64.7811 19.1267C64.8613 18.5539 64.9071 18.0384 64.9186 17.5687C64.93 17.099 64.8728 16.698 64.7467 16.3543C64.6207 16.0106 64.403 15.7471 64.1052 15.5523C63.8073 15.3576 63.372 15.2659 62.8221 15.2659C62.4211 15.2659 62.0201 15.3461 61.6191 15.5065C61.2182 15.6669 60.8515 15.9075 60.5308 16.2168C60.21 16.5261 59.9236 16.9386 59.6944 17.4312C59.4653 17.9238 59.2935 18.5081 59.1904 19.1726L58.3311 25.359H56.0742L57.7354 13.4444Z" fill="#CCF900"/>
<path d="M78.987 14.8993C79.7088 14.315 80.5107 13.8682 81.3814 13.5818C82.2636 13.284 83.1228 13.1465 83.9591 13.1465C84.7954 13.1465 85.563 13.261 86.1702 13.4673C86.7774 13.6849 87.2471 13.9828 87.6022 14.3494C87.9574 14.716 88.1865 15.1399 88.3011 15.6211C88.4157 16.1022 88.4386 16.5949 88.3813 17.1104L87.5221 23.1938C87.4533 23.6177 87.4075 23.9957 87.3731 24.3509C87.3388 24.706 87.3273 25.0382 87.3273 25.359H85.3224C85.3339 25.0612 85.3568 24.7518 85.3797 24.454C85.4026 24.1561 85.437 23.8468 85.4943 23.5489H85.4484C84.8298 24.3165 84.1539 24.8664 83.4207 25.1757C82.6874 25.4851 81.874 25.6569 80.969 25.6569C80.4191 25.6569 79.9035 25.5767 79.4224 25.4278C78.9412 25.2788 78.5402 25.0497 78.208 24.7518C77.8757 24.454 77.6237 24.0759 77.4633 23.6291C77.3029 23.1823 77.2686 22.6668 77.3488 22.0825C77.4519 21.3149 77.7039 20.6734 78.1278 20.1464C78.5517 19.6308 79.0787 19.2069 79.7202 18.8747C80.3618 18.5539 81.095 18.3133 81.9084 18.1759C82.7218 18.0384 83.581 17.9582 84.4861 17.9582H86.1473L86.2275 17.4541C86.2733 17.1562 86.2618 16.8469 86.1931 16.549C86.1129 16.2512 85.9754 15.9762 85.7807 15.7356C85.5745 15.4951 85.311 15.3003 84.9787 15.1628C84.6465 15.0253 84.2341 14.9451 83.7414 14.9451C83.3061 14.9451 82.9166 14.991 82.5729 15.0712C82.2292 15.1514 81.9199 15.2545 81.6449 15.3805C81.37 15.5065 81.1065 15.6554 80.8659 15.8158C80.6253 15.9762 80.3847 16.1366 80.1556 16.297L78.987 14.8993ZM84.7152 19.6194C84.1768 19.6194 83.6269 19.6537 83.054 19.711C82.4812 19.7683 81.9542 19.8829 81.4616 20.0547C80.969 20.2266 80.568 20.4557 80.2243 20.7535C79.8806 21.0514 79.6859 21.4409 79.6171 21.9106C79.514 22.598 79.6744 23.0907 80.0983 23.3885C80.5222 23.6864 81.1294 23.8468 81.9084 23.8468C82.5271 23.8468 83.077 23.7437 83.5352 23.5375C83.9935 23.3312 84.3945 23.0563 84.7038 22.7241C85.0246 22.3918 85.2766 22.0138 85.4484 21.6013C85.6203 21.1889 85.7349 20.7879 85.7921 20.3869L85.9182 19.6308L84.7152 19.6194Z" fill="#CCF900"/>
<path d="M92.357 13.4442H94.6139L92.9527 25.3589H90.6958L92.357 13.4442ZM92.4257 9.17095C92.4945 8.71269 92.7121 8.33463 93.0787 8.00239C93.4453 7.68161 93.8578 7.50977 94.316 7.50977C94.7743 7.50977 95.1409 7.67015 95.4273 8.00239C95.7137 8.32317 95.8168 8.71269 95.7481 9.17095C95.6793 9.6292 95.4617 10.0073 95.0951 10.3395C94.7285 10.6603 94.316 10.8321 93.8578 10.8321C93.3995 10.8321 93.0329 10.6717 92.7465 10.3395C92.4715 10.0073 92.357 9.61775 92.4257 9.17095Z" fill="#CCF900"/>
<path d="M108.487 25.348H106.23L106.459 23.641H106.414C105.875 24.2826 105.211 24.7752 104.409 25.1189C103.607 25.474 102.805 25.6459 101.991 25.6459C101.075 25.6459 100.261 25.4855 99.5511 25.1647C98.8523 24.8439 98.268 24.3971 97.8326 23.8358C97.3973 23.2744 97.0765 22.5985 96.8932 21.8538C96.7099 21.0977 96.687 20.2843 96.813 19.3907C96.9276 18.4971 97.1911 17.6722 97.5921 16.9161C97.993 16.1485 98.4971 15.4955 99.1043 14.9341C99.7115 14.3727 100.399 13.9374 101.189 13.6166C101.98 13.2958 102.828 13.1355 103.756 13.1355C104.615 13.1355 105.382 13.3188 106.081 13.6739C106.78 14.0405 107.296 14.5217 107.628 15.1403H107.674L108.911 6.3418H111.168L108.487 25.348ZM102.553 23.5379C103.16 23.5379 103.71 23.4348 104.225 23.2286C104.741 23.0223 105.188 22.7359 105.566 22.3693C105.955 22.0142 106.276 21.5788 106.528 21.0633C106.792 20.5478 106.963 19.9979 107.044 19.3907C107.124 18.7835 107.112 18.2336 107.009 17.718C106.906 17.2025 106.7 16.7671 106.402 16.412C106.104 16.0568 105.738 15.7704 105.279 15.5528C104.821 15.3351 104.294 15.2434 103.698 15.2434C103.103 15.2434 102.541 15.3465 102.026 15.5528C101.51 15.759 101.063 16.0454 100.674 16.412C100.284 16.7786 99.9635 17.2139 99.7115 17.718C99.4595 18.2336 99.2876 18.7835 99.2074 19.3907C99.1272 19.9979 99.1387 20.5478 99.2418 21.0633C99.3449 21.5788 99.5511 22.0142 99.8375 22.3693C100.124 22.7245 100.491 23.0109 100.96 23.2286C101.43 23.4462 101.945 23.5379 102.553 23.5379Z" fill="#CCF900"/>
<path d="M113.402 14.8993C114.124 14.315 114.926 13.8682 115.797 13.5818C116.679 13.284 117.538 13.1465 118.374 13.1465C119.211 13.1465 119.978 13.261 120.585 13.4673C121.193 13.6849 121.662 13.9828 122.018 14.3494C122.373 14.716 122.602 15.1399 122.716 15.6211C122.831 16.1022 122.854 16.5949 122.797 17.1104L121.937 23.1938C121.869 23.6177 121.823 23.9957 121.788 24.3509C121.754 24.706 121.743 25.0382 121.743 25.359H119.738C119.749 25.0612 119.772 24.7518 119.806 24.454C119.829 24.1561 119.875 23.8468 119.921 23.5489H119.875C119.257 24.3165 118.581 24.8664 117.847 25.1757C117.114 25.4851 116.301 25.6569 115.396 25.6569C114.846 25.6569 114.33 25.5767 113.849 25.4278C113.368 25.2788 112.967 25.0497 112.635 24.7518C112.303 24.454 112.05 24.0759 111.89 23.6291C111.73 23.1823 111.695 22.6668 111.776 22.0825C111.879 21.3149 112.131 20.6734 112.555 20.1464C112.978 19.6308 113.505 19.2069 114.147 18.8747C114.789 18.5539 115.522 18.3133 116.335 18.1759C117.149 18.0384 118.008 17.9582 118.913 17.9582H120.574L120.654 17.4541C120.7 17.1562 120.689 16.8469 120.62 16.549C120.54 16.2512 120.402 15.9762 120.207 15.7356C120.001 15.4951 119.738 15.3003 119.405 15.1628C119.073 15.0253 118.661 14.9451 118.168 14.9451C117.733 14.9451 117.343 14.991 117 15.0712C116.656 15.1514 116.347 15.2545 116.072 15.3805C115.797 15.5065 115.533 15.6554 115.293 15.8158C115.052 15.9762 114.811 16.1366 114.582 16.297L113.402 14.8993ZM119.131 19.6194C118.592 19.6194 118.042 19.6537 117.469 19.711C116.897 19.7683 116.37 19.8829 115.877 20.0547C115.384 20.2266 114.983 20.4557 114.64 20.7535C114.307 21.0514 114.101 21.4409 114.032 21.9106C113.929 22.598 114.09 23.0907 114.514 23.3885C114.937 23.6864 115.533 23.8468 116.324 23.8468C116.942 23.8468 117.492 23.7437 117.951 23.5375C118.409 23.3312 118.798 23.0563 119.119 22.7241C119.44 22.3918 119.68 22.0138 119.864 21.6013C120.047 21.1889 120.15 20.7879 120.207 20.3869L120.333 19.6308L119.131 19.6194Z" fill="#CCF900"/>
<path d="M126.451 14.8993C127.173 14.315 127.975 13.8682 128.846 13.5818C129.728 13.284 130.587 13.1465 131.423 13.1465C132.26 13.1465 133.027 13.261 133.634 13.4673C134.242 13.6849 134.711 13.9828 135.066 14.3494C135.422 14.716 135.651 15.1399 135.765 15.6211C135.88 16.1022 135.903 16.5949 135.845 17.1104L134.986 23.1938C134.917 23.6177 134.872 23.9957 134.837 24.3509C134.803 24.706 134.791 25.0382 134.791 25.359H132.787C132.798 25.0612 132.821 24.7518 132.855 24.454C132.878 24.1561 132.924 23.8468 132.97 23.5489H132.924C132.305 24.3165 131.629 24.8664 130.896 25.1757C130.163 25.4851 129.35 25.6569 128.445 25.6569C127.895 25.6569 127.379 25.5767 126.898 25.4278C126.417 25.2788 126.016 25.0497 125.684 24.7518C125.351 24.454 125.099 24.0759 124.939 23.6291C124.779 23.1823 124.744 22.6668 124.824 22.0825C124.927 21.3149 125.179 20.6734 125.603 20.1464C126.027 19.6308 126.554 19.2069 127.196 18.8747C127.837 18.5539 128.571 18.3133 129.384 18.1759C130.197 18.0384 131.057 17.9582 131.962 17.9582H133.623L133.703 17.4541C133.749 17.1562 133.737 16.8469 133.669 16.549C133.589 16.2512 133.451 15.9762 133.256 15.7356C133.05 15.4951 132.787 15.3003 132.454 15.1628C132.122 15.0253 131.71 14.9451 131.217 14.9451C130.782 14.9451 130.392 14.991 130.048 15.0712C129.705 15.1514 129.395 15.2545 129.12 15.3805C128.846 15.5065 128.582 15.6554 128.341 15.8158C128.101 15.9762 127.86 16.1366 127.631 16.297L126.451 14.8993ZM132.168 19.6194C131.629 19.6194 131.08 19.6537 130.507 19.711C129.934 19.7683 129.407 19.8829 128.914 20.0547C128.422 20.2266 128.021 20.4557 127.677 20.7535C127.345 21.0514 127.139 21.4409 127.07 21.9106C126.967 22.598 127.127 23.0907 127.551 23.3885C127.975 23.6864 128.571 23.8468 129.361 23.8468C129.98 23.8468 130.53 23.7437 130.988 23.5375C131.446 23.3312 131.836 23.0563 132.156 22.7241C132.477 22.3918 132.718 22.0138 132.901 21.6013C133.084 21.1889 133.188 20.7879 133.245 20.3869L133.371 19.6308L132.168 19.6194Z" fill="#CCF900"/>
<path d="M139.637 13.4441H141.894L141.642 15.2771H141.688C142.077 14.647 142.639 14.1315 143.395 13.7305C144.151 13.341 144.987 13.1348 145.904 13.1348C146.477 13.1348 147.015 13.2264 147.508 13.3983C148.012 13.5701 148.436 13.8451 148.779 14.2117C149.123 14.5783 149.375 15.048 149.524 15.6323C149.673 16.2051 149.696 16.8925 149.57 17.683L148.516 25.3473H146.259L147.244 18.3131C147.313 17.7632 147.302 17.282 147.21 16.8925C147.118 16.503 146.969 16.1822 146.763 15.9416C146.557 15.701 146.293 15.5177 145.973 15.4146C145.652 15.3 145.32 15.2542 144.964 15.2542C144.495 15.2542 144.048 15.3344 143.624 15.4833C143.2 15.6323 142.811 15.8729 142.467 16.1936C142.123 16.5144 141.837 16.9383 141.596 17.4309C141.356 17.935 141.195 18.5307 141.092 19.2181L140.233 25.3473H137.976L139.637 13.4441Z" fill="#CCF900"/>
</svg>
