<?xml version="1.0" encoding="UTF-8"?>
<svg id="Layer_1" data-name="Layer 1" xmlns="http://www.w3.org/2000/svg" viewBox="0 0 1080 1080">
  <defs>
    <style>
      .cls-1 {
        fill: #ccf900;
      }
    </style>
  </defs>
  <g id="vqydzD.tif">
    <g>
      <path class="cls-1" d="M672.91,494.69c-3.67,11.33-6.92,21.54-10.66,32.84-1.97,5.95-4.19,11.82-6.22,17.75-2.1,6.14-6.44,9.09-12.55,7.15-13.34-4.24-26.57-8.86-39.71-13.68-5.17-1.9-7.13-5.61-5.43-10.73,2.94-8.9,5.32-16.38,8.55-25.18,.75-2.04,1.84-5.61,2.53-7.69,4.28-13,8.62-25.97,13.08-38.9,6.86-19.91,13.87-39.77,20.72-59.68,6.32-18.38,12.51-36.81,18.78-55.21,6.06-17.78,12.11-35.56,18.23-53.31,.94-2.73,2.23-5.34,3.31-8.03,2.11-5.24,6.62-7.54,12.06-5.75,7.64,2.5,15.19,5.28,22.79,7.89,4.42,1.51,8.86,2.97,13.32,4.35,7.98,2.47,10.84,7.63,8.16,15.53-6.98,20.54-14.12,41.02-21.16,61.53-8.1,23.57-16.12,47.17-24.27,70.73-6.62,19.13-13.38,38.22-20.1,57.31l-1.41,3.09Z"/>
      <path class="cls-1" d="M420.47,552.68c-6.22,0-9.53-2.27-11.13-7-6.57-19.53-13.18-39.03-19.7-58.58-2.08-6.24-3.68-12.64-5.89-18.82-4.36-12.19-9.21-24.2-13.44-36.43-4.87-14.09-9.21-28.35-13.95-42.49-2.19-6.54-4.92-12.9-7.16-19.43-5.37-15.64-10.52-31.35-15.91-46.98-2.29-6.65-4.75-13.26-7.5-19.74-3.28-7.7-1.52-12.97,7.16-16.26,11.28-4.27,22.82-7.86,34.28-11.67,9.13-3.04,13.37-.83,16.49,8.45,6.82,20.25,13.56,40.52,20.46,60.74,7.37,21.61,14.89,43.16,22.32,64.75,7.42,21.57,14.72,43.17,22.21,64.71,6.07,17.46,12.29,34.85,18.51,52.26,2.17,6.06-.28,11.03-7.69,13.72-11.63,4.22-23.39,8.08-35.12,12.01-1.65,.55-3.45,.66-3.94,.75Z"/>
      <path class="cls-1" d="M532.6,500.29c-33.24,.5-60.5-27.36-60.66-60.37-.17-34.33,27.66-61.2,60.39-61.34,35.58-.15,61.02,28.9,61.76,60.1,.76,31.76-27.72,63.16-61.49,61.61Z"/>
    </g>
  </g>
  <g>
    <path class="cls-1" d="M148.29,699.76h18.42l-2.19,16.23h.44c.73-1.46,2.12-3.29,4.16-5.48,2.04-2.19,4.67-4.28,7.89-6.25,3.21-1.97,6.83-3.65,10.84-5.04,4.02-1.39,8.36-2.08,13.04-2.08,15.04,0,24.91,6.44,29.58,19.3,4.37-6.43,9.84-11.26,16.41-14.47,6.56-3.21,12.98-4.82,19.25-4.82,8.02,0,14.4,1.32,19.14,3.95,4.74,2.63,8.24,6.11,10.5,10.42,2.26,4.31,3.57,9.21,3.94,14.69,.36,5.48,.11,11.15-.77,17l-8.11,60.52h-19.74l8.11-57.89c.58-3.95,.84-7.75,.77-11.4-.08-3.65-.7-6.87-1.86-9.65-1.17-2.77-3.11-5.01-5.81-6.69-2.71-1.68-6.47-2.52-11.29-2.52-9.5,0-16.7,2.93-21.6,8.77-4.9,5.85-8,13.38-9.32,22.59l-7.89,56.8h-19.74l7.46-54.38c.73-4.97,1.13-9.5,1.21-13.6,.07-4.09-.44-7.64-1.54-10.64-1.1-2.99-2.96-5.34-5.59-7.02-2.63-1.68-6.36-2.52-11.18-2.52-3.51,0-7.02,.7-10.53,2.08-3.51,1.39-6.69,3.47-9.54,6.25-2.85,2.78-5.3,6.33-7.35,10.64-2.05,4.31-3.51,9.4-4.39,15.24l-7.46,53.95h-19.74l14.47-103.95Z"/>
    <path class="cls-1" d="M333.81,712.48c6.28-5.12,13.27-8.95,20.94-11.51,7.68-2.56,15.16-3.84,22.48-3.84s14.03,.95,19.3,2.85c5.26,1.9,9.43,4.46,12.5,7.68,3.07,3.22,5.12,6.91,6.14,11.07,1.02,4.17,1.24,8.52,.66,13.05l-7.46,53.07c-.59,3.66-1.02,7.02-1.32,10.09-.29,3.07-.44,6-.44,8.77h-17.54c.14-2.63,.33-5.26,.55-7.89,.22-2.63,.55-5.26,.99-7.89h-.44c-5.41,6.73-11.29,11.48-17.65,14.25-6.36,2.77-13.49,4.17-21.38,4.17-4.82,0-9.32-.66-13.49-1.97-4.17-1.32-7.71-3.29-10.64-5.92-2.93-2.63-5.08-5.88-6.47-9.76-1.39-3.87-1.72-8.37-.99-13.49,.88-6.72,3.14-12.35,6.8-16.89,3.65-4.53,8.3-8.22,13.93-11.07,5.63-2.85,11.99-4.9,19.08-6.14,7.09-1.24,14.58-1.86,22.48-1.86h14.47l.66-4.39c.44-2.63,.33-5.26-.33-7.89-.66-2.63-1.86-5.01-3.62-7.13-1.75-2.12-4.09-3.8-7.02-5.04-2.93-1.24-6.51-1.86-10.75-1.86-3.8,0-7.2,.37-10.2,1.1-3,.73-5.7,1.64-8.11,2.74-2.41,1.1-4.68,2.38-6.8,3.84-2.12,1.46-4.21,2.85-6.25,4.17l-10.09-12.28Zm49.96,41.23c-4.7,0-9.54,.26-14.53,.77-4.99,.51-9.62,1.5-13.87,2.96-4.26,1.46-7.85,3.51-10.79,6.14-2.94,2.63-4.7,6-5.28,10.09-.88,6,.52,10.31,4.18,12.94s8.95,3.95,15.85,3.95c5.43,0,10.17-.91,14.2-2.74,4.04-1.83,7.45-4.2,10.24-7.13,2.79-2.92,4.95-6.18,6.49-9.76,1.54-3.58,2.53-7.13,2.97-10.64l1.1-6.58h-10.57Z"/>
    <path class="cls-1" d="M450.48,699.76h19.74l-14.47,103.95h-19.74l14.47-103.95Zm.66-37.28c.58-3.95,2.48-7.35,5.7-10.2,3.21-2.85,6.8-4.28,10.75-4.28s7.16,1.43,9.65,4.28c2.48,2.85,3.43,6.25,2.85,10.2-.59,3.95-2.49,7.35-5.7,10.2-3.22,2.85-6.8,4.28-10.75,4.28s-7.16-1.43-9.65-4.28c-2.49-2.85-3.44-6.25-2.85-10.2Z"/>
    <path class="cls-1" d="M591.26,803.7h-19.74l1.97-14.91h-.44c-4.68,5.56-10.53,9.87-17.54,12.94-7.02,3.07-14.03,4.61-21.05,4.61-8.04,0-15.13-1.39-21.27-4.17s-11.15-6.65-15.02-11.62c-3.87-4.97-6.62-10.75-8.22-17.32-1.61-6.58-1.83-13.74-.66-21.49,1.02-7.75,3.29-14.95,6.8-21.6,3.51-6.65,7.89-12.42,13.16-17.32,5.26-4.9,11.33-8.73,18.2-11.51,6.87-2.77,14.33-4.17,22.37-4.17,7.46,0,14.22,1.57,20.28,4.71,6.07,3.15,10.56,7.42,13.49,12.83h.44l10.75-76.75h19.74l-23.24,165.79Zm-51.75-15.79c5.26,0,10.12-.91,14.58-2.74,4.46-1.83,8.37-4.31,11.73-7.46,3.36-3.14,6.17-6.94,8.44-11.4,2.26-4.46,3.76-9.32,4.5-14.58,.73-5.26,.62-10.12-.33-14.58-.95-4.46-2.71-8.26-5.26-11.4-2.56-3.14-5.81-5.63-9.76-7.46-3.95-1.83-8.55-2.74-13.82-2.74s-10.13,.92-14.58,2.74c-4.46,1.83-8.41,4.31-11.84,7.46-3.44,3.15-6.25,6.95-8.44,11.4-2.19,4.46-3.66,9.32-4.39,14.58-.73,5.26-.62,10.13,.33,14.58,.95,4.46,2.67,8.26,5.15,11.4,2.48,3.14,5.74,5.63,9.76,7.46,4.02,1.83,8.66,2.74,13.93,2.74Z"/>
    <path class="cls-1" d="M634.24,712.48c6.28-5.12,13.27-8.95,20.94-11.51,7.68-2.56,15.16-3.84,22.48-3.84s14.03,.95,19.3,2.85c5.26,1.9,9.43,4.46,12.5,7.68,3.07,3.22,5.12,6.91,6.14,11.07,1.02,4.17,1.24,8.52,.66,13.05l-7.46,53.07c-.59,3.66-1.02,7.02-1.32,10.09-.29,3.07-.44,6-.44,8.77h-17.54c.14-2.63,.33-5.26,.55-7.89,.22-2.63,.55-5.26,.99-7.89h-.44c-5.41,6.73-11.29,11.48-17.65,14.25-6.36,2.77-13.49,4.17-21.38,4.17-4.82,0-9.32-.66-13.49-1.97-4.17-1.32-7.71-3.29-10.64-5.92-2.93-2.63-5.08-5.88-6.47-9.76-1.39-3.87-1.72-8.37-.99-13.49,.88-6.72,3.14-12.35,6.8-16.89,3.65-4.53,8.3-8.22,13.93-11.07,5.63-2.85,11.99-4.9,19.08-6.14,7.09-1.24,14.58-1.86,22.48-1.86h14.47l.66-4.39c.44-2.63,.33-5.26-.33-7.89-.66-2.63-1.86-5.01-3.62-7.13-1.75-2.12-4.09-3.8-7.02-5.04-2.93-1.24-6.51-1.86-10.75-1.86-3.8,0-7.2,.37-10.2,1.1-3,.73-5.7,1.64-8.11,2.74-2.41,1.1-4.68,2.38-6.8,3.84-2.12,1.46-4.21,2.85-6.25,4.17l-10.09-12.28Zm49.96,41.23c-4.7,0-9.54,.26-14.53,.77-4.99,.51-9.62,1.5-13.87,2.96-4.26,1.46-7.85,3.51-10.79,6.14-2.94,2.63-4.7,6-5.28,10.09-.88,6,.52,10.31,4.18,12.94,3.67,2.63,8.95,3.95,15.85,3.95,5.43,0,10.17-.91,14.2-2.74,4.04-1.83,7.45-4.2,10.24-7.13,2.79-2.92,4.95-6.18,6.49-9.76,1.54-3.58,2.53-7.13,2.97-10.64l1.1-6.58h-10.57Z"/>
    <path class="cls-1" d="M748.05,712.48c6.28-5.12,13.27-8.95,20.94-11.51,7.68-2.56,15.16-3.84,22.48-3.84s14.03,.95,19.3,2.85c5.26,1.9,9.43,4.46,12.5,7.68,3.07,3.22,5.12,6.91,6.14,11.07,1.02,4.17,1.24,8.52,.66,13.05l-7.46,53.07c-.59,3.66-1.02,7.02-1.32,10.09-.29,3.07-.44,6-.44,8.77h-17.54c.14-2.63,.33-5.26,.55-7.89,.22-2.63,.55-5.26,.99-7.89h-.44c-5.41,6.73-11.29,11.48-17.65,14.25-6.36,2.77-13.49,4.17-21.38,4.17-4.82,0-9.32-.66-13.49-1.97-4.17-1.32-7.71-3.29-10.64-5.92-2.93-2.63-5.08-5.88-6.47-9.76-1.39-3.87-1.72-8.37-.99-13.49,.88-6.72,3.14-12.35,6.8-16.89,3.65-4.53,8.3-8.22,13.93-11.07,5.63-2.85,11.99-4.9,19.08-6.14,7.09-1.24,14.58-1.86,22.48-1.86h14.47l.66-4.39c.44-2.63,.33-5.26-.33-7.89-.66-2.63-1.86-5.01-3.62-7.13-1.75-2.12-4.09-3.8-7.02-5.04-2.93-1.24-6.51-1.86-10.75-1.86-3.8,0-7.2,.37-10.2,1.1-3,.73-5.7,1.64-8.11,2.74-2.41,1.1-4.68,2.38-6.8,3.84-2.12,1.46-4.21,2.85-6.25,4.17l-10.09-12.28Zm49.96,41.23c-4.7,0-9.54,.26-14.53,.77-4.99,.51-9.62,1.5-13.87,2.96-4.26,1.46-7.85,3.51-10.79,6.14-2.94,2.63-4.7,6-5.28,10.09-.88,6,.52,10.31,4.18,12.94,3.67,2.63,8.95,3.95,15.85,3.95,5.43,0,10.17-.91,14.2-2.74,4.04-1.83,7.45-4.2,10.24-7.13,2.79-2.92,4.95-6.18,6.49-9.76,1.54-3.58,2.53-7.13,2.97-10.64l1.1-6.58h-10.57Z"/>
    <path class="cls-1" d="M863.18,699.76h19.74l-2.19,16.01h.44c3.36-5.55,8.33-10.05,14.91-13.49,6.58-3.43,13.89-5.15,21.93-5.15,4.97,0,9.65,.77,14.03,2.3,4.39,1.54,8.08,3.91,11.07,7.13,3,3.22,5.15,7.35,6.47,12.39,1.32,5.04,1.46,11,.44,17.87l-9.21,66.88h-19.74l8.55-61.4c.58-4.82,.47-8.95-.33-12.39-.8-3.43-2.12-6.21-3.95-8.33-1.83-2.12-4.13-3.65-6.91-4.61-2.78-.95-5.7-1.43-8.77-1.43-4.1,0-8,.66-11.73,1.97-3.73,1.32-7.09,3.4-10.09,6.25-3,2.85-5.52,6.47-7.57,10.85-2.05,4.39-3.51,9.58-4.39,15.57l-7.46,53.51h-19.74l14.47-103.95Z"/>
  </g>
</svg>