<?xml version="1.0" encoding="utf-8"?>
<!-- Generator: Adobe Illustrator 27.0.1, SVG Export Plug-In . SVG Version: 6.00 Build 0)  -->
<svg version="1.1" id="Layer_1" xmlns="http://www.w3.org/2000/svg" xmlns:xlink="http://www.w3.org/1999/xlink" x="0px" y="0px"
	 viewBox="0 0 2160 2160" style="enable-background:new 0 0 2160 2160;" xml:space="preserve">
<style type="text/css">
	.st0{fill:#FFFFFF;}
	.st1{fill:#3A3A3A;}
	.st2{fill:#CCF900;}
</style>
<rect class="st0" width="2160" height="2160"/>
<g>
	<g id="vqydzD.tif_00000069374125168777451200000014583725670526365612_">
		<g>
			<path class="st1" d="M686,1186.1c-4.8,14.7-9,28.1-14,42.8c-2.6,7.8-5.5,15.4-8.1,23.2c-2.7,8-8.4,11.9-16.4,9.4
				c-17.4-5.5-34.7-11.6-51.8-17.9c-6.8-2.5-9.3-7.3-7-14c3.8-11.6,6.9-21.4,11.2-32.9c1-2.6,2.3-7.3,3.3-10
				c5.6-17,11.2-33.9,17.1-50.8c9-26,18.1-51.9,27-77.9c8.2-24,16.3-48,24.5-72c8-23.2,15.8-46.5,23.8-69.6
				c1.2-3.5,2.9-6.9,4.3-10.4c2.7-6.8,8.6-9.8,15.8-7.6c9.9,3.3,19.8,6.9,29.8,10.3c5.7,2,11.6,3.9,17.4,5.7
				c10.4,3.3,14.1,9.9,10.7,20.2c-9.1,26.8-18.4,53.5-27.7,80.3c-10.6,30.8-21,61.6-31.7,92.3c-8.6,24.9-17.5,49.9-26.2,74.8
				L686,1186.1L686,1186.1z"/>
			<path class="st1" d="M356.7,1261.8c-8.1,0-12.4-3-14.5-9.1c-8.6-25.4-17.2-50.9-25.7-76.5c-2.7-8.1-4.8-16.4-7.7-24.5
				c-5.7-15.9-12-31.6-17.5-47.5c-6.4-18.4-12-37.1-18.3-55.5c-2.9-8.5-6.4-16.8-9.4-25.3c-7-20.4-13.7-41-20.7-61.3
				c-3-8.6-6.3-17.4-9.8-25.7c-4.3-10-2-17,9.4-21.3c14.7-5.6,29.8-10.3,44.8-15.3c11.9-3.9,17.5-1,21.5,11.1
				c8.9,26.4,17.7,52.9,26.8,79.2c9.7,28.2,19.4,56.4,29.1,84.6c9.7,28.2,19.2,56.4,29,84.4c8,22.8,16.1,45.5,24.1,68.3
				c2.9,8-0.4,14.4-10,17.9c-15.1,5.5-30.5,10.6-45.8,15.7C359.7,1261.5,357.3,1261.6,356.7,1261.8L356.7,1261.8z"/>
			<path class="st1" d="M502.9,1193.4c-43.3,0.7-79-35.8-79.2-78.8c-0.3-44.8,36.1-79.9,78.8-80c46.5-0.1,79.6,37.7,80.6,78.4
				C584.1,1154.4,547.1,1195.4,502.9,1193.4L502.9,1193.4z"/>
		</g>
	</g>
	<g>
		<path class="st1" d="M881.9,1050.9h24l-2.9,21.1h0.5c0.9-2,2.7-4.3,5.5-7.2c2.7-2.9,6.1-5.6,10.3-8.1c4.2-2.6,8.9-4.8,14.1-6.5
			c5.2-1.8,11-2.7,17-2.7c19.6,0,32.5,8.4,38.6,25.2c5.7-8.4,12.8-14.7,21.4-18.9c8.6-4.2,17-6.3,25.1-6.3c10.4,0,18.8,1.7,24.9,5.2
			s10.7,8,13.7,13.6c3,5.6,4.7,12,5.1,19.2c0.5,7.2,0.1,14.6-1,22.2l-10.6,79h-25.7l10.6-75.6c0.8-5.2,1-10.2,1-14.9
			c-0.1-4.8-0.9-9-2.5-12.7c-1.6-3.7-4-6.5-7.6-8.7c-3.5-2.2-8.5-3.3-14.7-3.3c-12.4,0-21.8,3.8-28.2,11.5
			c-6.4,7.6-10.4,17.5-12.1,29.5l-10.3,74.1h-25.7l9.8-71c0.9-6.5,1.4-12.4,1.6-17.7c0.1-5.4-0.5-9.9-2-13.8
			c-1.4-3.9-3.9-6.9-7.3-9.1c-3.4-2.2-8.4-3.3-14.6-3.3c-4.6,0-9.1,0.9-13.7,2.7c-4.6,1.8-8.7,4.6-12.4,8.1
			c-3.7,3.5-6.9,8.2-9.5,13.8c-2.6,5.6-4.6,12.3-5.7,19.8l-9.8,70.5H863L881.9,1050.9L881.9,1050.9z"/>
		<path class="st1" d="M1124,1067.5c8.2-6.7,17.4-11.7,27.3-15c10-3.4,19.8-5,29.4-5s18.3,1.3,25.2,3.7c6.9,2.5,12.3,5.9,16.3,10
			c4,4.2,6.7,9,8,14.5c1.3,5.5,1.6,11.1,0.9,17l-9.8,69.3c-0.8,4.8-1.3,9.1-1.7,13.2c-0.4,4-0.5,7.8-0.5,11.5h-22.8
			c0.1-3.4,0.4-6.9,0.7-10.3c0.3-3.4,0.7-6.9,1.3-10.3h-0.5c-7,8.7-14.7,15-23.1,18.5s-17.6,5.5-27.9,5.5c-6.3,0-12.1-0.9-17.6-2.6
			c-5.5-1.7-10-4.3-13.8-7.7c-3.8-3.4-6.7-7.7-8.5-12.8s-2.2-11-1.3-17.6c1.2-8.7,4-16.1,8.9-22.1c4.8-5.9,10.8-10.7,18.1-14.5
			c7.3-3.7,15.7-6.4,24.9-8c9.3-1.6,19.1-2.5,29.4-2.5h18.9l0.9-5.7c0.5-3.4,0.4-6.9-0.4-10.3c-0.9-3.4-2.5-6.5-4.7-9.3
			c-2.3-2.7-5.4-5-9.1-6.5c-3.8-1.6-8.5-2.5-14.1-2.5c-5,0-9.4,0.5-13.3,1.4c-3.9,0.9-7.4,2.1-10.6,3.5s-6.1,3.1-8.9,5
			c-2.7,1.8-5.5,3.7-8.1,5.5L1124,1067.5L1124,1067.5z M1189.2,1121.2c-6.1,0-12.4,0.4-18.9,1c-6.5,0.7-12.5,2-18.1,3.9
			c-5.6,2-10.2,4.6-14.1,8c-3.9,3.4-6.1,7.8-6.9,13.2c-1.2,7.8,0.7,13.4,5.5,16.8s11.7,5.2,20.6,5.2c7,0,13.3-1.2,18.5-3.5
			c5.2-2.3,9.8-5.5,13.3-9.3c3.7-3.8,6.5-8.1,8.5-12.8s3.3-9.3,3.9-13.8l1.4-8.6L1189.2,1121.2L1189.2,1121.2z"/>
		<path class="st1" d="M1276.3,1050.9h25.7l-18.9,135.7h-25.7L1276.3,1050.9z M1277.1,1002.2c0.8-5.2,3.3-9.5,7.4-13.3
			c4.2-3.7,8.9-5.6,14.1-5.6c5.2,0,9.4,1.8,12.7,5.6c3.3,3.7,4.4,8.1,3.7,13.3c-0.8,5.2-3.3,9.5-7.4,13.3c-4.2,3.7-8.9,5.6-14.1,5.6
			s-9.4-1.8-12.7-5.6C1277.6,1011.7,1276.3,1007.3,1277.1,1002.2z"/>
		<path class="st1" d="M1460,1186.5h-25.7l2.6-19.4h-0.5c-6.1,7.3-13.7,12.9-22.8,16.8c-9.1,4-18.3,6-27.5,6
			c-10.4,0-19.7-1.8-27.8-5.5c-8-3.7-14.6-8.7-19.6-15.1c-5-6.4-8.6-14.1-10.7-22.6c-2.1-8.6-2.3-17.9-0.9-28.1
			c1.3-10.2,4.3-19.6,8.9-28.2c4.6-8.7,10.3-16.2,17.2-22.6c6.9-6.4,14.7-11.4,23.8-15c9-3.7,18.7-5.5,29.2-5.5
			c9.8,0,18.5,2.1,26.5,6.1c8,4.2,13.8,9.7,17.6,16.7h0.5l14.1-100.2h25.7L1460,1186.5L1460,1186.5z M1392.4,1165.9
			c6.9,0,13.2-1.2,19.1-3.5c5.9-2.3,11-5.6,15.3-9.8c4.4-4,8.1-9,11-14.9c3-5.9,5-12.1,5.9-19.1s0.8-13.2-0.4-19.1
			c-1.2-5.9-3.5-10.8-6.9-14.9c-3.4-4-7.6-7.3-12.8-9.8c-5.2-2.5-11.2-3.5-18-3.5s-13.2,1.2-19.1,3.5c-5.9,2.3-11,5.6-15.4,9.8
			c-4.4,4.2-8.1,9.1-11,14.9c-2.9,5.9-4.8,12.1-5.7,19.1s-0.8,13.2,0.4,19.1s3.5,10.8,6.8,14.9c3.3,4,7.4,7.3,12.8,9.8
			C1379.6,1164.8,1385.5,1165.9,1392.4,1165.9L1392.4,1165.9z"/>
		<path class="st1" d="M1516,1067.5c8.2-6.7,17.4-11.7,27.3-15c10-3.4,19.8-5,29.4-5s18.3,1.3,25.2,3.7c6.9,2.5,12.3,5.9,16.3,10
			c4,4.2,6.7,9,8,14.5c1.3,5.5,1.6,11.1,0.9,17l-9.8,69.3c-0.8,4.8-1.3,9.1-1.7,13.2c-0.4,4-0.5,7.8-0.5,11.5h-22.8
			c0.1-3.4,0.4-6.9,0.8-10.3c0.3-3.4,0.8-6.9,1.3-10.3h-0.5c-7,8.7-14.7,15-23.1,18.5c-8.4,3.5-17.6,5.5-27.9,5.5
			c-6.3,0-12.1-0.9-17.6-2.6c-5.5-1.7-10-4.3-13.8-7.7s-6.7-7.7-8.5-12.8s-2.2-11-1.3-17.6c1.2-8.7,4-16.1,8.9-22.1
			c4.8-5.9,10.8-10.7,18.1-14.5c7.3-3.7,15.7-6.4,24.9-8c9.3-1.6,19.1-2.5,29.4-2.5h18.9l0.9-5.7c0.5-3.4,0.4-6.9-0.4-10.3
			c-0.9-3.4-2.5-6.5-4.7-9.3c-2.3-2.7-5.4-5-9.1-6.5c-3.8-1.6-8.5-2.5-14.1-2.5c-5,0-9.4,0.5-13.3,1.4c-3.9,0.9-7.4,2.1-10.6,3.5
			c-3.1,1.4-6.1,3.1-8.9,5c-2.7,1.8-5.5,3.7-8.1,5.5L1516,1067.5L1516,1067.5z M1581.3,1121.2c-6.1,0-12.4,0.4-18.9,1
			c-6.5,0.7-12.5,2-18.1,3.9s-10.2,4.6-14.1,8c-3.8,3.4-6.1,7.8-6.9,13.2c-1.2,7.8,0.7,13.4,5.5,16.8c4.8,3.4,11.6,5.2,20.6,5.2
			c7,0,13.3-1.2,18.5-3.5s9.7-5.5,13.3-9.3c3.7-3.8,6.4-8.1,8.5-12.8s3.3-9.3,3.9-13.8l1.4-8.6L1581.3,1121.2L1581.3,1121.2z"/>
		<path class="st1" d="M1664.7,1067.5c8.2-6.7,17.4-11.7,27.3-15c10-3.4,19.8-5,29.4-5s18.3,1.3,25.2,3.7c6.9,2.5,12.3,5.9,16.3,10
			c4,4.2,6.7,9,8,14.5c1.3,5.5,1.6,11.1,0.9,17l-9.8,69.3c-0.8,4.8-1.3,9.1-1.7,13.2c-0.4,4-0.5,7.8-0.5,11.5h-22.8
			c0.1-3.4,0.4-6.9,0.8-10.3c0.3-3.4,0.8-6.9,1.3-10.3h-0.5c-7,8.7-14.7,15-23.1,18.5c-8.4,3.5-17.6,5.5-27.9,5.5
			c-6.3,0-12.1-0.9-17.6-2.6c-5.5-1.7-10-4.3-13.8-7.7s-6.7-7.7-8.5-12.8s-2.2-11-1.3-17.6c1.2-8.7,4-16.1,8.9-22.1
			c4.8-5.9,10.8-10.7,18.1-14.5c7.3-3.7,15.7-6.4,24.9-8c9.3-1.6,19.1-2.5,29.4-2.5h18.9l0.9-5.7c0.5-3.4,0.4-6.9-0.4-10.3
			c-0.9-3.4-2.5-6.5-4.7-9.3c-2.3-2.7-5.4-5-9.1-6.5c-3.8-1.6-8.5-2.5-14.1-2.5c-5,0-9.4,0.5-13.3,1.4c-3.9,0.9-7.4,2.1-10.6,3.5
			c-3.1,1.4-6.1,3.1-8.9,5c-2.7,1.8-5.5,3.7-8.1,5.5L1664.7,1067.5L1664.7,1067.5z M1729.8,1121.2c-6.1,0-12.4,0.4-18.9,1
			c-6.5,0.7-12.5,2-18.1,3.9s-10.2,4.6-14.1,8c-3.8,3.4-6.1,7.8-6.9,13.2c-1.2,7.8,0.7,13.4,5.5,16.8c4.8,3.4,11.6,5.2,20.6,5.2
			c7,0,13.3-1.2,18.5-3.5s9.7-5.5,13.3-9.3c3.7-3.8,6.4-8.1,8.5-12.8c2.1-4.7,3.3-9.3,3.9-13.8l1.4-8.6L1729.8,1121.2L1729.8,1121.2
			z"/>
		<path class="st1" d="M1814.9,1050.9h25.7l-2.9,20.9h0.5c4.4-7.2,10.8-13,19.4-17.6c8.6-4.4,18.1-6.8,28.6-6.8c6.5,0,12.7,1,18.3,3
			c5.7,2,10.6,5.1,14.5,9.3c3.9,4.2,6.8,9.5,8.5,16.2c1.7,6.5,2,14.4,0.5,23.4l-12,87.3h-25.7l11.2-80.1c0.8-6.3,0.7-11.7-0.4-16.2
			c-1-4.4-2.7-8.1-5.1-10.8c-2.3-2.7-5.4-4.8-9-6c-3.7-1.3-7.4-1.8-11.5-1.8c-5.4,0-10.4,0.9-15.3,2.6c-4.8,1.7-9.3,4.4-13.2,8.1
			c-3.9,3.7-7.2,8.5-9.9,14.1c-2.7,5.7-4.6,12.5-5.7,20.4l-9.8,69.8h-25.7L1814.9,1050.9L1814.9,1050.9z"/>
	</g>
</g>
</svg>
