<svg width="1280" height="588" viewBox="0 0 1280 588" fill="none" xmlns="http://www.w3.org/2000/svg">
<g opacity="0.1">
<path d="M6.03873 74.2731C5.6584 62.1905 19.9726 45.4743 27.3775 39.72C32.339 35.8656 37.4619 33.3643 42.873 30.7469C53.1476 25.7717 64.0561 22.0744 74.8321 19.0743C93.6814 13.8189 112.992 11.0101 132.308 9.73892C175.734 6.88227 219.063 12.3222 261.775 21.3705C347.585 39.5492 430.601 71.7992 515.132 96.4019C598.694 120.724 683.174 135.274 769.289 127.019C852.057 119.084 936.472 100.475 1015.56 70.2273C1057.8 54.0716 1097.34 29.7218 1139.43 13.5113C1163.57 4.21015 1193.77 -4.44863 1218.68 5.52913C1231.2 10.5385 1242.6 20.2361 1254.56 26.8309C1254.96 27.0496 1255.23 26.3116 1254.83 26.0929C1230.7 12.7869 1214.41 -0.628378 1186.81 1.0323C1147.83 3.37639 1112.29 25.4095 1076.93 42.7612C984.734 88.0028 884.073 112.715 784.986 124.545C682.54 136.778 583.775 117.082 484.884 86.4651C391.813 57.6458 298.967 21.2817 202.703 10.764C157.502 5.82982 110.502 6.63625 66.4534 20.7555C44.5499 27.7741 4.29844 40.2531 5.36451 74.3825C5.3818 74.9019 6.05602 74.7925 6.03873 74.28V74.2731Z" fill="#CCF900"/>
<path d="M5.76229 93.3458C5.34738 71.6749 27.8386 56.8997 41.882 49.6829C49.7133 45.6576 57.9307 42.4456 66.1193 39.6163C88.04 32.0441 110.831 28.1008 133.57 26.2898C177.728 22.7634 222.014 27.8275 265.492 36.9715C353.7 55.526 437.084 95.2388 523.562 121.741C604.63 146.59 690.527 162.999 773.554 143.528C792.991 138.97 812.37 134.152 831.963 130.592C852.305 126.894 873.609 127.626 893.685 122.76C930.566 113.821 968.46 96.7833 1004.69 84.0378C1047.42 69.0028 1087.24 48.1589 1128.68 29.1738C1153.96 17.5969 1183.13 6.69651 1210.61 10.8858C1226.72 13.3461 1241.29 25.0528 1255.8 33.3153C1256.2 33.5408 1256.46 32.7959 1256.07 32.5772C1227.98 16.5786 1209.82 5.96527 1177.74 11.6786C1137.29 18.8748 1101.13 43.8056 1063.26 60.549C1018.49 80.3474 971.826 91.8491 926.405 108.989C881.296 126.013 834.464 128.275 787.925 139.257C583.873 187.437 404.923 47.1816 206.207 26.6452C162.406 22.1142 117.141 23.2418 74.3482 36.1514C51.0156 43.1905 4.37927 56.6195 5.08807 93.4551C5.09959 93.9745 5.77381 93.8652 5.76229 93.3526V93.3458Z" fill="#CCF900"/>
<path d="M5.47985 112.422C5.34154 91.2026 26.7149 76.3589 40.5219 68.7868C48.117 64.6248 56.0866 61.2283 64.0504 58.2076C86.8068 49.5762 110.635 44.8948 134.411 42.6259C177.999 38.4571 222.014 42.7148 265.014 51.6059C355.561 70.3176 438.674 118.307 527.02 146.34C602.371 170.246 686.141 188.431 762.61 162.865C785.505 155.211 808.238 147.181 831.796 142.841C853.964 138.754 877.521 144.256 899.131 138.529C911.307 135.303 921.328 125.763 932.611 119.967C950.942 110.557 971.03 105.158 990.185 98.679C1037.34 82.7215 1081.43 63.0051 1126.75 41.2249C1152.23 28.9783 1179.68 18.0369 1207.51 19.144C1225.72 19.8684 1240.9 30.3314 1257.03 39.8171C1257.42 40.0495 1257.68 39.3046 1257.3 39.079C1227.59 21.5906 1208.63 14.0048 1175.05 22.1373C1134.76 31.9032 1099.02 57.162 1060.39 72.812C1016.65 90.5328 967.896 98.679 926.198 122.626C914.217 129.508 907.262 134.825 893.109 136.765C882.057 138.283 871.938 137.934 860.966 138.447C838.18 139.513 815.522 144.836 793.492 151.588C770.465 158.648 748.002 168.387 724.347 172.241C695.891 176.875 666.508 173.991 638.07 170.375C585.613 163.705 533.958 149.654 483.812 130.328C391.709 94.8246 303.715 50.6491 206.011 41.9493C161.386 37.9787 115.349 40.0153 72.0892 54.5172C48.9583 62.2739 4.56936 76.5298 4.80563 112.525C4.80563 113.044 5.48561 112.935 5.47985 112.422Z" fill="#CCF900"/>
<path d="M5.19766 131.603C5.33596 110.164 25.7296 95.56 39.531 87.6734C48.6358 82.4727 58.1613 78.1331 67.7963 74.5247C91.5323 65.6335 116.052 60.5626 140.842 58.2185C186.966 53.8652 234.011 58.3621 279.288 69.4538C367.887 91.1656 447.48 145.736 534.719 172.929C578.082 186.446 622.725 194.934 667.523 197.586C705.25 199.821 736.529 189.378 771.658 174.302C794.247 164.605 817.418 156.78 841.356 153.609C861.219 150.978 881.654 158.235 900.975 154.832C910.95 153.076 917.716 146.802 925.881 140.474C944.569 125.992 963.799 117.648 985.132 110.117C1033.12 93.1817 1078.93 76.5407 1125.04 53.3185C1148.67 41.4136 1174.01 29.9255 1199.85 27.7522C1221.8 25.907 1239.25 34.7572 1258.25 46.2999C1258.65 46.5391 1258.91 45.7942 1258.52 45.5618C1227.46 26.6998 1207.38 22.4695 1172.47 32.7069C1131.18 44.8169 1094.41 71.5723 1053.77 86.0606C1014.98 99.8928 967.936 107.075 933.188 133.045C921.663 141.656 914.857 149.672 900.745 152.454C888.603 154.846 877.504 151.565 865.351 151.251C842.756 150.663 819.954 155.802 798.281 163.026C780.175 169.06 763.06 178.157 745.214 185.039C715.824 196.376 687.628 198.563 656.885 195.987C604.117 191.572 551.885 179.728 501.486 160.648C410.207 126.095 326.662 72.0986 230.024 59.5512C180.46 53.1203 128.925 53.7901 80.5143 69.2146C55.9024 77.0738 4.77123 92.9562 4.52344 131.494C4.52344 132.006 5.19189 132.122 5.19766 131.603Z" fill="#CCF900"/>
<path d="M4.92046 150.679C5.36994 127.771 27.6307 112.914 41.9391 104.603C49.6091 100.148 57.5211 96.3342 65.5714 92.9582C88.5351 83.3221 112.559 77.6635 136.745 74.6292C185.265 68.54 236.028 71.9912 283.569 85.3655C370.376 109.784 446.286 169.35 532.361 196.727C576.543 210.778 623.64 220.639 669.493 221.049C709.024 221.398 739.946 203.117 775.76 186.038C796.569 176.115 818.403 168.844 840.745 165.994C862.101 163.274 881.641 172.138 902.185 171.12C913.324 170.566 921.092 164.525 929.436 156.126C946.539 138.911 963.343 128.489 984.826 120.192C1032.02 101.965 1077.99 89.2814 1123.52 65.4237C1168.93 41.6206 1213.28 23.8725 1259.52 52.8011C1259.9 53.0403 1260.17 52.3022 1259.79 52.063C1229.48 33.1053 1208.08 31.2191 1174.48 42.0989C1128.86 56.8674 1088.17 85.7209 1042.24 100.12C1005.98 111.492 963.297 119.789 934.242 149.572C910.46 173.949 890.239 164.791 862.636 163.923C844.871 163.37 826.989 166.739 809.8 171.858C757.585 187.405 716.337 222.553 660.273 219.867C605.995 217.27 551.044 204.586 499.578 184.241C408.109 148.082 327.497 85.9806 229.62 74.1576C182.038 68.4101 132.849 69.9547 86.426 84.4976C60.5349 92.6028 5.04147 110.071 4.24624 150.563C4.23471 151.075 4.90893 151.191 4.92046 150.672V150.679Z" fill="#CCF900"/>
<path d="M4.63801 169.752C5.43901 156.856 21.5972 137.646 29.8434 130.586C35.168 126.028 41.9275 122.625 47.8514 119.242C56.7718 114.143 66.0668 109.852 75.4713 106.175C98.5043 97.1744 122.546 91.8165 146.662 89.0966C197.436 83.3628 250.711 87.7229 299.577 105.662C381.371 135.691 451.559 196.692 534.972 222.388C575.552 234.888 619.059 244.073 661.097 243.834C701.723 243.601 732.679 222.812 768.516 202.945C789.924 191.082 812.612 182.477 836.111 178.931C848.973 176.99 862.169 176.238 875.031 178.561C885.617 180.468 896.151 186.988 906.968 186.851C916.516 186.735 923.685 182.573 931.044 175.712C946.113 161.661 954.664 148.006 973.283 138.138C1019.1 113.85 1069.02 107.022 1114.51 81.7909C1161.03 55.9923 1211.71 27.7334 1260.75 59.2863C1261.13 59.5323 1261.4 58.7943 1261.02 58.5482C1230.25 38.7499 1205.05 40.7523 1172.02 53.0605C1150.77 60.9743 1130.61 72.066 1110.45 83.1646C1083.05 98.2542 1054.69 105.628 1025.64 114.806C993.083 125.098 961.164 137.933 938.01 166.677C915.969 194.048 885.151 176.559 858.107 176.368C838.802 176.224 819.504 180.509 801.081 187.111C754.001 203.984 716.515 241.209 665.476 243.014C610.501 244.961 551.222 229.776 499.457 209C412.108 173.942 337.16 105.177 243.888 90.5864C193.754 82.7409 141.251 84.2717 92.1885 99.498C63.8367 108.28 6.60305 127.115 3.9638 169.636C3.93498 170.149 4.60344 170.265 4.63801 169.746V169.752Z" fill="#CCF900"/>
<path d="M4.3576 188.819C5.31418 176.026 20.6138 157.144 28.7159 149.824C33.8561 145.184 40.3736 141.596 46.1073 138.056C54.7339 132.732 63.7234 128.215 72.8513 124.251C96.6622 113.911 121.747 107.733 146.917 104.473C198.527 97.7896 252.816 101.726 301.976 122.474C382.076 156.282 448.397 220.83 531.689 246.465C572.753 259.101 618.479 269.858 661.081 266.256C703.834 262.641 734.975 234.389 772.552 213.402C793.753 201.565 816.93 193.111 840.337 190.637C853.142 189.284 866.332 189.052 879.01 192.004C889.786 194.519 900.602 202.228 911.787 202.583C938.814 203.444 949.924 165.754 970.623 151.895C1016.6 121.128 1070.11 118.586 1117.41 91.7414C1161.99 66.4416 1214.42 34.3556 1261.97 65.7719C1262.35 66.0248 1262.61 65.2798 1262.24 65.0338C1230.73 44.2172 1202.62 50.3679 1169.7 64.1317C1150.39 72.2028 1131.93 82.7067 1113.46 93.1014C1086.34 108.369 1058.2 114.431 1029.4 123.226C1008.6 129.568 989.386 139.443 970.363 151.15C955.029 160.588 953.214 167.846 941.977 183.017C921.399 210.805 884.847 189.339 857.948 188.874C838.614 188.539 819.206 192.667 800.772 199.46C753.282 216.962 716.096 259.163 665.202 264.972C611.771 271.074 551.04 254.796 500.669 234.772C411.499 199.33 338.643 120.116 243.342 104.952C195.121 97.277 144.584 99.6211 97.4517 114.301C67.9359 123.493 6.99109 144.459 3.68338 188.71C3.64304 189.223 4.31726 189.339 4.3576 188.819Z" fill="#CCF900"/>
<path d="M4.08077 207.893C5.99394 186.093 26.3415 169.322 41.0188 159.262C50.4521 152.797 60.1447 147.138 70.2407 142.286C93.3139 131.195 117.788 124.224 142.428 120.239C193.41 112.004 247.716 114.54 296.225 136.149C339.496 155.428 377.229 187.029 416.593 215.042C451.595 239.952 488.746 258.65 528.306 270.699C568.759 283.014 614.341 294.003 656.252 288.399C695.017 283.212 723.91 258.035 756.832 235.797C778.712 221.015 801.889 210.196 826.812 205.105C856.518 199.03 879.073 207.196 907.091 215.841C942.058 226.632 946.985 187.207 969.032 166.26C1011.09 126.294 1069.72 130.846 1116.76 103.79C1160.5 78.62 1215.8 40.1304 1263.21 72.2643C1263.59 72.524 1263.86 71.779 1263.48 71.5262C1232.83 50.7506 1203.25 59.5119 1171.79 73.5149C1150.4 83.0348 1130.31 95.6368 1109.64 107.05C1082 122.324 1052.09 124.415 1023.27 134.735C1006.34 140.796 990.63 150.111 975.446 160.725C969.96 164.559 964.722 167.935 960.538 173.32C952.649 183.475 949.699 201.64 938.71 208.679C923.687 218.309 898.781 209.335 883.078 204.757C874.826 202.351 866.24 201.353 857.757 201.182C836.92 200.759 816.036 205.618 796.317 213.402C749.56 231.854 713.768 276.104 664.314 286.26C611.218 297.16 547.617 278.968 497.309 259.04C407.661 223.523 338.643 135.322 242.789 119.187C195.156 111.171 144.618 114.697 98.3101 130.169C68.1028 140.263 7.33086 163.075 3.40656 207.784C3.36046 208.297 4.03467 208.413 4.08077 207.893Z" fill="#CCF900"/>
<path d="M3.79816 226.967C9.77969 167.839 103.986 142.068 142.416 135.193C195.968 125.625 252.009 128.912 301.826 155.613C346.584 179.6 383.631 217.53 425.427 247.299C458.631 270.952 495.206 287.012 532.858 297.406C572.943 308.471 618.069 318.797 659.041 308.594C701.367 298.056 731.263 262.751 768.8 240.096C789.557 227.569 812.377 219.156 835.496 215.842C865.438 211.55 885.043 221.186 912.605 231.43C937.73 240.772 950.056 219.047 961.857 196.481C994.036 134.94 1059.65 146.325 1109.03 119.973C1154.61 95.6369 1214.44 44.0328 1264.44 78.7568C1264.82 79.0165 1265.08 78.2715 1264.71 78.0187C1232.06 55.3432 1197.73 70.7609 1165.49 86.9987C1143.45 98.0972 1122.76 113.317 1100.42 123.404C1073.96 135.35 1044.88 134.899 1018.33 146.489C1002.89 153.235 979.036 165.789 968.052 180.612C948.339 207.217 951.877 245.857 905.753 227.295C868.55 212.322 836.597 210.128 798.264 224.835C750.447 243.185 715.214 290.196 666.624 305.388C613.528 321.988 549.725 304.753 498.508 285.351C407.719 250.955 342.354 154.116 247.047 134.407C198.584 124.388 145.937 129.069 98.9322 145.813C67.872 156.877 7.68212 181.774 3.12394 226.851C3.07207 227.364 3.74629 227.48 3.79816 226.961V226.967Z" fill="#CCF900"/>
<path d="M3.5156 246.042C10.3615 186.435 102.142 157.862 142.307 150.016C195.535 139.622 250.631 142.779 299.509 171.619C344.382 198.101 379.597 240.417 421.808 271.567C454.672 295.821 491.414 311.649 529.061 321.736C570.263 332.78 616.052 342.334 657.612 328.618C701.102 314.26 731.874 273.734 771.566 250.518C792.599 238.217 816.134 229.968 839.495 227.604C869.818 224.535 889.462 235.476 916.921 246.705C942.357 257.106 957.42 234.813 967.551 209.835C994.341 143.784 1059.5 156.017 1108.23 132.159C1154.01 109.743 1215.09 49.2956 1265.6 85.1882C1265.97 85.4547 1266.4 84.8192 1266.02 84.5526C1236.67 63.695 1205 77.6434 1175.95 92.1521C1155.46 102.39 1136.26 115.484 1116.22 126.801C1088.9 142.239 1059.35 141.091 1030.96 151.376C1013.18 157.814 993.073 169.726 979.692 185.362C966.802 200.418 964.986 230.016 948.448 240.971C938.554 247.525 915.82 244.238 906.053 239.864C901.218 237.697 896.838 234.526 891.911 232.531C884.368 229.469 876.439 227.651 868.521 226.681C848.975 224.289 829.002 227.187 810.054 232.961C759.857 248.263 726.722 291.776 681.232 317.362C626.58 348.102 558.622 332.343 502.899 312.9C453.894 295.801 413.395 265.574 373.305 228.799C337.778 196.215 300.253 164.313 255.939 151.383C205.522 136.669 148.542 142.717 99.4103 161.327C67.5722 173.382 8.10259 200.151 2.84138 245.933C2.78376 246.445 3.45797 246.561 3.5156 246.042Z" fill="#CCF900"/>
<path d="M3.23974 265.114C7.55013 231.695 43.0071 208.337 65.9421 194.272C89.7184 179.688 115.748 170.134 142.042 164.571C197.426 152.851 252.827 157.635 302.051 191.538C343.259 219.92 374.827 262.763 414.444 293.612C448.011 319.753 486.257 336.107 525.344 346.166C565.193 356.431 608.158 364.591 648.104 350.868C694.256 335.013 725.49 290.325 767.378 264.984C788.434 252.246 811.64 243.737 835.105 240.457C866.954 236.008 888.921 245.336 917.152 260.03C942.64 273.294 959.38 257.255 970.704 230.137C982.569 201.721 992.849 182.668 1018.47 168.166C1045.51 152.858 1075.41 156.322 1103.38 145.682C1151.42 127.401 1214.54 53.6882 1266.85 91.6925C1267.22 91.959 1267.64 91.3303 1267.27 91.0569C1236.01 68.3473 1199.29 89.5329 1169.79 105.935C1147.37 118.4 1126.08 135.636 1102.48 144.616C1076.24 154.593 1047.72 151.921 1022.24 165.296C1007.96 172.786 989.04 185.777 979.947 201.106C977.227 205.692 975.7 214.378 973.902 219.51C972.277 224.151 970.663 228.825 968.692 233.274C960.026 252.867 955.07 256.941 935.454 258.171C915.043 259.449 909.667 251.835 892.039 244.906C883.09 241.386 873.795 239.418 864.396 238.605C844.659 236.903 824.646 240.341 805.635 246.56C754.233 263.371 721.185 309.727 674.992 337.446C622.887 368.712 561.81 357.203 507.481 340.282C453.526 323.484 410.186 291.911 368.171 249.239C334.402 214.945 298.778 180.604 255.138 166.136C205.517 149.687 147.955 157.129 99.6703 176.558C66.9563 189.721 8.52976 218.765 2.56552 264.998C2.49637 265.51 3.17058 265.62 3.23974 265.107V265.114Z" fill="#CCF900"/>
<path d="M2.95541 284.187C11.5359 224.334 95.0987 190.396 137.292 179.988C195.978 165.506 253.915 171.677 304.291 212.039C342.854 242.929 371.517 287.816 410.155 318.473C442.379 344.04 479.409 359.724 517.108 369.462C558.12 380.055 601.719 387.634 642.461 371.752C683.853 355.623 712.781 316.949 748.624 289.633C792.789 255.969 857.116 235.562 906.49 264.894C933.597 280.995 954.549 290.816 972.477 254.021C977.576 243.558 979.714 231.995 983.817 221.115C990.139 204.358 1002.27 191.428 1015.29 181.641C1044.09 160.005 1075.97 167.29 1106.82 155.501C1153.06 137.835 1217.6 60.7192 1268.08 98.1768C1268.45 98.4501 1268.87 97.8146 1268.5 97.5412C1236.81 74.0251 1196.82 100.5 1167.95 117.77C1145 131.5 1122.54 150.97 1097.11 157.558C1071.92 164.085 1045.85 161.535 1022.31 175.867C1010.64 182.974 992.726 197.216 985.851 211.411C969.538 245.103 971.531 300.602 917.542 271.564C878.063 250.331 843.949 245.164 801.213 260.226C754.174 276.806 722.912 315.664 683.139 346.999C628.221 390.265 564.753 383.288 503.566 364.897C449.986 348.796 405.804 318.33 365.801 273.539C331.542 235.18 296.143 195.282 249.616 179.523C200.467 162.875 143.043 172.203 95.8593 193.321C63.1568 207.953 8.83898 238.337 2.28119 284.071C2.20628 284.583 2.8805 284.692 2.95541 284.18V284.187Z" fill="#CCF900"/>
<path d="M2.67319 303.256C14.6017 238.906 98.4987 202.645 145.648 192.161C207.134 178.493 262.392 190.883 310.993 238.687C343.96 271.115 368.791 313.896 404.444 342.682C437.654 369.499 476.263 385.121 515.408 394.477C557.175 404.462 599.916 409.731 640.473 390.848C683.64 370.749 713.231 326.464 752.307 298.533C804.164 261.465 866.52 250.955 920.268 286.417C943.727 301.896 962.951 299.805 977.311 270.903C990.669 244.011 990.675 217.119 1013.02 196.145C1042.92 168.085 1076.44 177.741 1110.18 165.344C1154.71 148.976 1220.58 67.7535 1269.32 104.664C1269.69 104.945 1270.11 104.309 1269.74 104.029C1237.65 79.7268 1194.35 111.82 1166.21 129.759C1141.29 145.648 1119.69 163.793 1091.04 168.884C1068.87 172.821 1046.58 171.064 1026.33 184.37C1012.98 193.138 997.688 208.221 991.072 224.623C987.165 234.314 986.053 246.02 982.515 256.053C979.922 263.393 977.179 270.698 973.162 277.177C960.139 298.171 934.161 294.515 917.387 283.307C882.091 259.736 843.879 258.534 805.028 271.095C752.768 287.988 719.506 331.057 676.443 366.615C624.343 409.635 566.165 407.229 506.562 391.429C451.207 376.749 403.724 348.053 363.985 299.866C331.617 260.618 300.522 218.5 256.277 197.936C208.529 175.746 150.84 184.616 103.645 204.784C67.0467 220.413 11.1614 253.722 2.00473 303.146C1.91253 303.652 2.58675 303.762 2.67895 303.256H2.67319Z" fill="#CCF900"/>
<path d="M2.39681 322.33C15.4202 256.511 95.9 217.748 145.072 206.068C208.218 191.074 263.925 207.599 310.555 260.796C342.122 296.804 365.403 341.294 402.514 370.291C437.977 397.997 479.473 412.635 521.027 420.939C562.431 429.215 603.293 429.782 641.787 407.366C686.481 381.342 717.098 331.61 761.216 304.294C810.71 273.657 871.275 263.338 920.706 298.397C944.73 315.434 966.017 320.006 981.38 287.312C991.764 265.224 992.6 238.195 1005.73 217.755C1032.36 176.279 1071.86 186.728 1108.91 176.402C1130.6 170.353 1149.55 152.844 1168.69 140.099C1195.44 122.282 1240.28 87.784 1270.55 111.15C1270.91 111.43 1271.34 110.801 1270.97 110.514C1238.62 85.5424 1192.11 123.355 1164.67 141.896C1140.15 158.469 1118.95 175.773 1089.79 178.691C1065.97 181.076 1043.17 181.151 1022.77 197.833C980.573 232.338 992.242 346.789 917.923 295.294C883.503 271.443 843.908 271.183 805.997 282.945C756.416 298.328 722.261 335.54 683.623 373.148C631.898 423.495 576.307 432.645 511.766 418.15C453.34 405.029 400.52 377.693 359.963 325.063C329.508 285.549 303.179 242.59 261.954 217.529C213.543 188.095 152.575 197.15 103.334 219.313C65.71 236.254 11.6688 271.956 1.72259 322.22C1.62462 322.726 2.29884 322.835 2.39681 322.33Z" fill="#CCF900"/>
<path d="M2.11472 341.402C16.2676 274.236 93.3533 232.535 144.479 219.878C211.324 203.333 267.423 226.637 311.979 287.283C340.717 326.394 362.551 369.859 400.411 398.09C437.032 425.392 480.159 439.026 522.618 446.223C564.517 453.323 605.472 448.58 642.634 422.953C687.98 391.68 719.449 339.194 767.607 312.473C791.06 299.461 816.652 290.918 842.52 288.779C878.513 285.8 901.367 298.771 931.626 318.76C956.751 335.353 977.007 328.383 989.419 297.301C998.973 273.382 999.544 245.376 1013.35 223.835C1040.99 180.671 1080.01 197.865 1117.05 184.99C1135.42 178.607 1151.73 163.217 1167.99 151.756C1193.4 133.857 1241.79 94.0558 1271.78 117.647C1272.15 117.934 1272.57 117.298 1272.21 117.011C1242.76 93.8576 1199.62 128.957 1174.66 146.166C1149.91 163.217 1127.49 184.129 1098.15 187.696C1072.76 190.785 1048.8 187.765 1027.12 206.593C990.042 238.781 998.478 357.079 932.289 317.735C913.924 306.814 899.592 294.048 878.588 289.838C855.786 285.273 832.182 287.645 809.8 294.062C758.854 308.66 722.826 344.655 684.257 384.695C633.316 437.578 580.18 456.857 513 443.639C453.236 431.885 396.014 406.093 355.486 350.771C324.847 308.94 301.416 261.887 259.655 233.587C212.114 201.378 151.958 210.59 102.942 233.717C64.2063 251.998 12.2511 290.002 1.4405 341.292C1.33677 341.798 2.01099 341.9 2.11472 341.402Z" fill="#CCF900"/>
<path d="M1.83278 360.477C17.1785 291.924 90.3687 247.099 143.788 233.452C214.926 215.273 270.016 247.113 312.146 314.941C337.692 356.069 358.218 396.827 396.038 423.781C434.215 450.987 480.263 464.696 524.133 471.216C563.716 477.1 602.193 467.82 636.273 443.032C683.497 408.684 715.842 352.788 766.95 324.652C790.571 311.647 816.341 303.234 842.348 301.15C879.366 298.184 904.9 311.155 935.655 333.701C962.128 353.11 983.478 343.139 995.937 310.711C1004.8 287.653 1005.23 260.925 1015.79 238.885C1039.1 190.253 1078.01 205.22 1115.84 195.885C1134.91 191.176 1150.71 175.95 1166.91 163.901C1191.59 145.545 1243.06 100.16 1273.02 124.141C1273.38 124.428 1273.8 123.799 1273.44 123.505C1242.84 99.0049 1195 142.237 1169.85 160.764C1144.25 179.613 1123.6 196.247 1092.23 197.368C1068.42 198.215 1046.46 198.789 1028.01 218.868C1018.01 229.754 1012.11 242.821 1008.29 258.013C1004.82 271.825 1002.9 286.074 998.824 299.708C997.412 304.444 995.914 309.324 994.035 313.855C984.596 336.598 965.586 345.298 944.057 338.587C932.088 334.856 920.655 318.912 908.611 312.488C899.074 307.403 888.932 304.014 878.629 301.998C854.368 297.255 829.122 300.303 805.45 307.519C756.122 322.561 720.222 357.401 683.324 397.326C634.452 450.201 582.79 481.365 515.104 468.817C457.207 458.088 395.732 436.622 355.216 383.337C321.343 338.785 301.376 283.17 257.31 249.84C210.852 214.713 151.1 223.857 102.366 247.906C62.4721 267.608 12.8738 308.032 1.16432 360.367C1.05483 360.866 1.72905 360.976 1.83854 360.477H1.83278Z" fill="#CCF900"/>
<path d="M1.53301 379.654C16.0892 318.291 73.3921 272.428 121.74 253.784C155.583 240.731 195.829 233.931 229.667 250.62C260.18 265.669 283.806 295.404 302.044 327.264C326.973 370.804 345.586 415.479 384.028 444.681C421.577 473.199 467.505 487.291 511.352 493.934C553.378 500.296 594.091 490.12 629.859 462.955C677.815 426.536 710.437 368.481 762.709 338.848C816.883 308.143 880.634 300.687 931.961 341.787C956.342 361.312 980.591 370.503 998.057 335.212C1008.06 315.004 1010.41 291.044 1015.09 268.73C1020.06 245.071 1031.54 223.639 1051.11 213.429C1068.79 204.203 1086.92 208.775 1105.38 207.306C1129.05 205.419 1143.57 193.72 1162.84 178.616C1186.59 160 1243.98 105.956 1274.27 130.627C1274.63 130.921 1275.05 130.286 1274.69 129.992C1243.47 104.555 1190.45 156.098 1165.55 175.527C1156.31 182.737 1147.34 190.781 1137.49 196.788C1120.43 207.196 1104.77 205.898 1086.4 206.267C1065.78 206.677 1047.6 209.827 1032.49 227.815C997.187 269.831 1014.66 405.637 932.382 341.158C894.522 311.491 853.325 306.331 809.207 318.605C757.113 333.101 718.908 368.877 680.69 411.569C633.495 464.288 583.326 502.258 515.766 493.818C458.573 486.669 395.335 464.868 354.167 414.829C317.321 370.039 301.192 307.309 257.702 269.011C178.904 199.617 27.4991 267.241 0.910652 379.34C0.795401 379.832 1.41776 380.16 1.53301 379.661V379.654Z" fill="#CCF900"/>
<path d="M1.25116 398.728C17.5131 333.9 72.8394 285.249 125.094 265.662C159.525 252.753 198.434 248.495 231.604 268.3C261.102 285.912 282.17 318.729 298.466 351.737C319.713 394.778 336.949 437.485 372.826 466.311C410.398 496.504 458.181 511.457 502.853 517.348C545.72 522.993 587.441 511.231 623.365 482.822C669.719 446.164 701.644 389.038 751.334 357.423C803.82 324.025 877.24 307.849 929.397 350.541C955.017 371.515 982.436 392.209 1003.31 351.881C1013.62 331.966 1016.4 307.856 1020.28 285.426C1023.8 265.081 1028.73 245.303 1042.69 231.232C1062.56 211.222 1085.45 217.66 1108.9 216.723C1131.01 215.835 1144.66 205.372 1162.24 190.966C1185.82 171.653 1245.22 112.053 1275.5 137.134C1275.86 137.428 1276.28 136.799 1275.92 136.498C1245.62 111.403 1191.17 166.377 1167.92 185.328C1157.57 193.761 1146.62 204.818 1134.95 210.62C1117.23 219.416 1098.97 214.051 1080.69 214.96C1061.02 215.944 1044.29 223.947 1032.52 243.322C1022.28 260.188 1020.75 279.904 1017.33 299.648C1014.69 314.95 1011.65 330.825 1005.72 344.876C1002.6 352.27 997.211 362.569 991.074 367.709C967.488 387.459 949.549 367.1 932.976 352.776C895.847 320.683 848.07 319.18 804.793 332.083C750.631 348.231 711.895 386.837 672.56 431.881C625.855 485.35 574.942 524.489 507.169 517.026C450.615 510.801 387.705 489.369 347.206 439.685C310.994 395.264 298.299 331.679 258.682 290.005C178.329 205.481 29.3551 283.868 0.628807 398.407C0.507794 398.899 1.13015 399.221 1.25116 398.728Z" fill="#CCF900"/>
<path d="M0.966789 417.801C18.5944 351.223 69.3856 299.797 124.291 278.946C163.246 264.15 204.806 262.175 239.248 292.047C265.261 314.6 281.857 347.13 295.883 380.74C315.303 427.266 334.025 468.776 372.502 496.755C411.393 525.041 461.424 539.659 506.712 541.375C549.187 542.981 589.387 526.866 623.415 497.015C671.359 454.944 704.995 394.709 760.253 363.867C814.933 333.346 885.266 322.821 936.425 367.892C962.685 391.025 990.207 405.472 1010.13 365.213C1020.52 344.239 1023.24 319.069 1026.66 295.546C1029.92 273.069 1034.22 247.134 1052.69 234.443C1071.86 221.273 1091.81 226.358 1112.51 226.133C1136.21 225.873 1150.38 213.107 1168.8 197.388C1190.66 178.718 1248.46 119.828 1276.74 143.625C1277.1 143.925 1277.52 143.29 1277.17 142.989C1247.29 117.847 1190.55 177.822 1168.39 196.746C1158.89 204.858 1149.13 215.123 1138.33 220.522C1120.79 229.29 1102.53 222.852 1084.44 223.556C1064.55 224.328 1048.48 232.071 1037.34 252.416C1027.78 269.871 1027.05 289.71 1024.07 309.556C1021.77 324.837 1019.07 340.453 1013.76 354.743C1010.07 364.687 1004.75 378.102 996.356 383.672C984.86 384.922 973.363 386.173 961.867 387.424C953.863 382.797 946.539 377.022 939.883 370.106C901.291 336.202 855.848 330.585 809.494 342.988C759.434 356.383 719.909 388.182 683.449 430C634.093 486.607 587.808 539.598 514.831 540.493C456.704 541.204 388.395 519.574 345.326 471.257C305.645 426.74 296.275 358.488 258.864 311.77C177.843 210.558 31.226 300.822 0.344433 417.48C0.211894 417.972 0.840013 418.293 0.966789 417.801Z" fill="#CCF900"/>
<path d="M0.691005 436.876C21.6379 361.79 75.2008 303.53 140.502 286.301C220.953 265.074 263.769 332.663 292.253 410.702C309.184 457.078 328.828 496.039 366.429 522.446C406.772 550.78 459.31 565.541 505.986 564.318C552.669 563.095 594.609 540.282 629.547 504.301C674.864 457.631 710.067 400.833 766.921 372.226C824.391 343.311 891.824 338.042 943.209 385.19C972.851 412.39 1002.45 416.989 1019.78 371.932C1028.55 349.12 1030.81 323.84 1033.62 299.306C1036.04 278.23 1041.3 255.985 1056.79 242.877C1076.72 226.024 1098.96 236.043 1120.65 235.544C1143.18 235.032 1156.9 219.894 1174.05 204.668C1195.44 185.683 1251.16 127.21 1277.97 150.118C1278.32 150.419 1278.75 149.79 1278.39 149.483C1249.6 124.887 1191.45 188.136 1170.79 206.568C1161.81 214.577 1152.15 225.17 1141.69 230.425C1124.08 239.276 1106.18 231.833 1088.17 232.148C1068.21 232.489 1052.43 240.547 1042.1 261.575C1032.37 281.387 1032.97 304.917 1029.73 326.875C1027.5 341.992 1024.6 357.614 1019.15 371.611C1015.78 380.249 1011.86 388.6 1005.73 394.908C983.039 418.24 961.776 400.997 943.618 384.554C904.156 348.819 857.087 342.552 809.172 355.209C758.559 368.576 717.835 400.56 681.174 443.061C635.096 496.476 592.949 551.579 525.429 561.878C465.533 571.015 390.297 549.283 343.811 502.511C299.382 457.816 293.371 386.447 258.179 334.242C177.815 215.001 33.0593 318.264 0.0628864 436.555C-0.0754149 437.047 0.546941 437.368 0.685242 436.876H0.691005Z" fill="#CCF900"/>
<path d="M0.409303 455.943C20.3305 387.384 59.4294 331.29 118.3 306.598C162.285 288.146 206.086 291.809 239.469 333.531C263.153 363.13 274.154 399.822 286.255 437.095C302.05 485.767 323.787 524.687 363.237 550.151C406.767 578.246 463.252 592.618 512.551 585.873C561.129 579.23 601.524 548.832 635.938 509.078C687.623 449.383 731.96 390.015 804.983 369.362C836.003 360.587 868.965 358.735 899.789 369.417C916.125 375.076 930.601 383.974 943.936 396.637C953.426 405.651 962.572 416.319 974.391 421.021C1010.5 435.38 1027.72 389.55 1034.23 355.694C1040.67 322.282 1034.72 274.198 1060.92 251.276C1088.36 227.261 1123.9 256.682 1152.78 236.153C1170.05 223.879 1185.19 205.796 1201.46 191.745C1217.62 177.796 1257.61 137.844 1279.21 156.577C1279.56 156.884 1279.98 156.248 1279.63 155.941C1256.17 135.589 1212.89 180.612 1195.84 195.661C1180.72 209.001 1166.46 226.311 1149.87 236.911C1123.17 253.962 1093.1 230.063 1066.64 246.041C1048.36 257.085 1041.89 281.107 1039.47 303.557C1036.1 334.748 1035.17 366.492 1021.6 394.607C994.709 450.367 958.682 403.581 928.382 382.655C905.707 366.991 879.228 360.963 853.216 361.237C798.857 361.811 745.145 387.787 703.718 428.86C648.587 483.526 608.791 558.83 534.886 580.303C474.437 597.867 396.671 579.326 345.898 536.428C295.521 493.872 290.421 425.012 261.032 365.891C227.016 297.461 170.854 280.075 109.834 309.523C54.8943 336.074 18.7573 390.336 -0.213053 455.629C-0.357117 456.114 0.271001 456.442 0.409303 455.95V455.943Z" fill="#CCF900"/>
</g>
</svg>
