<svg width="1280" height="720" viewBox="0 0 1280 720" fill="none" xmlns="http://www.w3.org/2000/svg">
<g clip-path="url(#clip0_828_2776)">
<rect width="1280" height="720" fill="white"/>
<g opacity="0.1">
<path d="M6.03873 140.273C5.6584 128.19 19.9726 111.474 27.3775 105.72C32.339 101.866 37.4619 99.3643 42.873 96.7469C53.1476 91.7717 64.0561 88.0744 74.8321 85.0743C93.6814 79.8189 112.992 77.0101 132.308 75.7389C175.734 72.8823 219.063 78.3222 261.775 87.3705C347.585 105.549 430.601 137.799 515.132 162.402C598.694 186.724 683.174 201.274 769.289 193.019C852.057 185.084 936.472 166.475 1015.56 136.227C1057.8 120.072 1097.34 95.7218 1139.43 79.5113C1163.57 70.2102 1193.77 61.5514 1218.68 71.5291C1231.2 76.5385 1242.6 86.2361 1254.56 92.8309C1254.96 93.0496 1255.23 92.3116 1254.83 92.0929C1230.7 78.7869 1214.41 65.3716 1186.81 67.0323C1147.83 69.3764 1112.29 91.4095 1076.93 108.761C984.734 154.003 884.073 178.715 784.986 190.545C682.54 202.778 583.775 183.082 484.884 152.465C391.813 123.646 298.967 87.2817 202.703 76.764C157.502 71.8298 110.502 72.6362 66.4534 86.7555C44.5499 93.7741 4.29844 106.253 5.36451 140.382C5.3818 140.902 6.05602 140.793 6.03873 140.28V140.273Z" fill="#3A3A3A"/>
<path d="M5.76229 159.346C5.34738 137.675 27.8386 122.9 41.882 115.683C49.7133 111.658 57.9307 108.446 66.1193 105.616C88.04 98.0442 110.831 94.1009 133.57 92.2899C177.728 88.7635 222.014 93.8275 265.492 102.972C353.7 121.526 437.084 161.239 523.562 187.741C604.63 212.59 690.527 228.999 773.554 209.529C792.991 204.97 812.37 200.152 831.963 196.592C852.305 192.894 873.609 193.626 893.685 188.76C930.566 179.821 968.46 162.783 1004.69 150.038C1047.42 135.003 1087.24 114.159 1128.68 95.1739C1153.96 83.5969 1183.13 72.6966 1210.61 76.8859C1226.72 79.3461 1241.29 91.0529 1255.8 99.3153C1256.2 99.5408 1256.46 98.7959 1256.07 98.5772C1227.98 82.5787 1209.82 71.9653 1177.74 77.6786C1137.29 84.8749 1101.13 109.806 1063.26 126.549C1018.49 146.347 971.826 157.849 926.405 174.989C881.296 192.013 834.464 194.275 787.925 205.257C583.873 253.437 404.923 113.182 206.207 92.6453C162.406 88.1143 117.141 89.2419 74.3482 102.151C51.0156 109.191 4.37927 122.62 5.08807 159.455C5.09959 159.975 5.77381 159.865 5.76229 159.353V159.346Z" fill="#3A3A3A"/>
<path d="M5.47985 178.422C5.34154 157.203 26.7149 142.359 40.5219 134.787C48.117 130.625 56.0866 127.228 64.0504 124.208C86.8068 115.576 110.635 110.895 134.411 108.626C177.999 104.457 222.014 108.715 265.014 117.606C355.561 136.318 438.674 184.306 527.02 212.34C602.371 236.245 686.141 254.431 762.61 228.865C785.505 221.21 808.238 213.18 831.796 208.841C853.964 204.754 877.521 210.255 899.131 204.529C911.307 201.303 921.328 191.762 932.611 185.967C950.942 176.557 971.03 171.158 990.185 164.679C1037.34 148.721 1081.43 129.005 1126.75 107.225C1152.23 94.9782 1179.68 84.0368 1207.51 85.144C1225.72 85.8684 1240.9 96.3313 1257.03 105.817C1257.42 106.049 1257.68 105.304 1257.3 105.079C1227.59 87.5906 1208.63 80.0047 1175.05 88.1373C1134.76 97.9032 1099.02 123.162 1060.39 138.812C1016.65 156.533 967.896 164.679 926.198 188.626C914.217 195.508 907.262 200.824 893.109 202.765C882.057 204.282 871.938 203.934 860.966 204.447C838.18 205.513 815.522 210.836 793.492 217.588C770.465 224.648 748.002 234.387 724.347 238.241C695.891 242.875 666.508 239.991 638.07 236.375C585.613 229.705 533.958 215.654 483.812 196.328C391.709 160.825 303.715 116.649 206.011 107.949C161.386 103.979 115.349 106.015 72.0892 120.517C48.9583 128.274 4.56936 142.53 4.80563 178.525C4.80563 179.044 5.48561 178.935 5.47985 178.422Z" fill="#3A3A3A"/>
<path d="M5.19766 197.603C5.33596 176.164 25.7296 161.56 39.531 153.673C48.6358 148.473 58.1613 144.133 67.7963 140.525C91.5323 131.634 116.052 126.563 140.842 124.219C186.966 119.865 234.011 124.362 279.288 135.454C367.887 157.166 447.48 211.736 534.719 238.929C578.082 252.446 622.725 260.934 667.523 263.586C705.25 265.821 736.529 255.378 771.658 240.302C794.247 230.605 817.418 222.78 841.356 219.609C861.219 216.978 881.654 224.235 900.975 220.832C910.95 219.076 917.716 212.802 925.881 206.474C944.569 191.992 963.799 183.648 985.132 176.117C1033.12 159.182 1078.93 142.541 1125.04 119.319C1148.67 107.414 1174.01 95.9255 1199.85 93.7522C1221.8 91.907 1239.25 100.757 1258.25 112.3C1258.65 112.539 1258.91 111.794 1258.52 111.562C1227.46 92.6998 1207.38 88.4695 1172.47 98.7069C1131.18 110.817 1094.41 137.572 1053.77 152.061C1014.98 165.893 967.936 173.075 933.188 199.045C921.663 207.656 914.857 215.672 900.745 218.454C888.603 220.846 877.504 217.565 865.351 217.251C842.756 216.663 819.954 221.802 798.281 229.026C780.175 235.06 763.06 244.157 745.214 251.039C715.824 262.376 687.628 264.563 656.885 261.987C604.117 257.572 551.885 245.728 501.486 226.648C410.207 192.095 326.662 138.099 230.024 125.551C180.46 119.12 128.925 119.79 80.5143 135.215C55.9024 143.074 4.77123 158.956 4.52344 197.494C4.52344 198.006 5.19189 198.122 5.19766 197.603Z" fill="#3A3A3A"/>
<path d="M4.92046 216.679C5.36994 193.771 27.6307 178.914 41.9391 170.603C49.6091 166.148 57.5211 162.334 65.5714 158.958C88.5351 149.322 112.559 143.663 136.745 140.629C185.265 134.54 236.028 137.991 283.569 151.365C370.376 175.784 446.286 235.349 532.361 262.727C576.543 276.778 623.64 286.639 669.493 287.049C709.024 287.398 739.946 269.117 775.76 252.038C796.569 242.115 818.403 234.844 840.745 231.994C862.101 229.274 881.641 238.138 902.185 237.119C913.324 236.566 921.092 230.525 929.436 222.125C946.539 204.91 963.343 194.488 984.826 186.192C1032.02 167.965 1077.99 155.281 1123.52 131.424C1168.93 107.62 1213.28 89.8724 1259.52 118.801C1259.9 119.04 1260.17 118.302 1259.79 118.063C1229.48 99.1052 1208.08 97.219 1174.48 108.099C1128.86 122.867 1088.17 151.721 1042.24 166.12C1005.98 177.492 963.297 185.789 934.242 215.572C910.46 239.949 890.239 230.791 862.636 229.923C844.871 229.37 826.989 232.739 809.8 237.858C757.585 253.405 716.337 288.553 660.273 285.867C605.995 283.27 551.044 270.586 499.578 250.241C408.109 214.082 327.497 151.981 229.62 140.158C182.038 134.41 132.849 135.955 86.426 150.498C60.5349 158.603 5.04147 176.071 4.24624 216.563C4.23471 217.075 4.90893 217.191 4.92046 216.672V216.679Z" fill="#3A3A3A"/>
<path d="M4.63801 235.752C5.43901 222.856 21.5972 203.646 29.8434 196.586C35.168 192.028 41.9275 188.624 47.8514 185.242C56.7718 180.143 66.0668 175.852 75.4713 172.175C98.5043 163.174 122.546 157.816 146.662 155.096C197.436 149.363 250.711 153.723 299.577 171.662C381.371 201.691 451.559 262.692 534.972 288.388C575.552 300.888 619.059 310.073 661.097 309.834C701.723 309.601 732.679 288.812 768.516 268.945C789.924 257.081 812.612 248.477 836.111 244.93C848.973 242.99 862.169 242.238 875.031 244.561C885.617 246.468 896.151 252.988 906.968 252.851C916.516 252.735 923.685 248.573 931.044 241.712C946.113 227.661 954.664 214.006 973.283 204.138C1019.1 179.85 1069.02 173.022 1114.51 147.791C1161.03 121.992 1211.71 93.7333 1260.75 125.286C1261.13 125.532 1261.4 124.794 1261.02 124.548C1230.25 104.75 1205.05 106.752 1172.02 119.06C1150.77 126.974 1130.61 138.066 1110.45 149.165C1083.05 164.254 1054.69 171.628 1025.64 180.806C993.083 191.098 961.164 203.933 938.01 232.677C915.969 260.047 885.151 242.559 858.107 242.368C838.802 242.224 819.504 246.509 801.081 253.111C754.001 269.984 716.515 307.209 665.476 309.014C610.501 310.961 551.222 295.776 499.457 275C412.108 239.942 337.16 171.177 243.888 156.586C193.754 148.741 141.251 150.272 92.1885 165.498C63.8367 174.28 6.60305 193.114 3.9638 235.636C3.93498 236.149 4.60344 236.265 4.63801 235.745V235.752Z" fill="#3A3A3A"/>
<path d="M4.3576 254.819C5.31418 242.026 20.6138 223.143 28.7159 215.824C33.8561 211.184 40.3736 207.596 46.1073 204.056C54.7339 198.732 63.7234 194.215 72.8513 190.251C96.6622 179.911 121.747 173.733 146.917 170.473C198.527 163.789 252.816 167.726 301.976 188.474C382.076 222.282 448.397 286.83 531.689 312.465C572.753 325.101 618.479 335.858 661.081 332.256C703.834 328.641 734.975 300.389 772.552 279.402C793.753 267.565 816.93 259.111 840.337 256.637C853.142 255.284 866.332 255.052 879.01 258.004C889.786 260.519 900.602 268.228 911.787 268.583C938.814 269.444 949.924 231.754 970.623 217.895C1016.6 187.128 1070.11 184.586 1117.41 157.741C1161.99 132.442 1214.42 100.356 1261.97 131.772C1262.35 132.025 1262.61 131.28 1262.24 131.034C1230.73 110.217 1202.62 116.368 1169.7 130.132C1150.39 138.203 1131.93 148.707 1113.46 159.101C1086.34 174.369 1058.2 180.43 1029.4 189.226C1008.6 195.568 989.386 205.443 970.363 217.15C955.029 226.588 953.214 233.846 941.977 249.017C921.399 276.805 884.847 255.339 857.948 254.874C838.614 254.539 819.206 258.667 800.772 265.46C753.282 282.962 716.096 325.163 665.202 330.972C611.771 337.074 551.04 320.796 500.669 300.772C411.499 265.33 338.643 186.116 243.342 170.952C195.121 163.277 144.584 165.621 97.4517 180.301C67.9359 189.492 6.99109 210.459 3.68338 254.71C3.64304 255.223 4.31726 255.339 4.3576 254.819Z" fill="#3A3A3A"/>
<path d="M4.08077 273.893C5.99394 252.093 26.3415 235.322 41.0188 225.262C50.4521 218.797 60.1447 213.138 70.2407 208.286C93.3139 197.195 117.788 190.224 142.428 186.24C193.41 178.004 247.716 180.54 296.225 202.149C339.496 221.428 377.229 253.029 416.593 281.042C451.595 305.952 488.746 324.65 528.306 336.699C568.759 349.014 614.341 360.003 656.252 354.399C695.017 349.212 723.91 324.035 756.832 301.797C778.712 287.015 801.889 276.197 826.812 271.105C856.518 265.03 879.073 273.196 907.091 281.841C942.058 292.632 946.985 253.207 969.032 232.26C1011.09 192.295 1069.72 196.846 1116.76 169.79C1160.5 144.62 1215.8 106.13 1263.21 138.264C1263.59 138.524 1263.86 137.779 1263.48 137.526C1232.83 116.751 1203.25 125.512 1171.79 139.515C1150.4 149.035 1130.31 161.637 1109.64 173.05C1082 188.324 1052.09 190.415 1023.27 200.735C1006.34 206.796 990.63 216.111 975.446 226.725C969.96 230.559 964.722 233.935 960.538 239.32C952.649 249.475 949.699 267.64 938.71 274.679C923.687 284.309 898.781 275.335 883.078 270.757C874.826 268.351 866.24 267.353 857.757 267.182C836.92 266.759 816.036 271.618 796.317 279.402C749.56 297.854 713.768 342.104 664.314 352.26C611.218 363.16 547.617 344.968 497.309 325.04C407.661 289.523 338.643 201.322 242.789 185.187C195.156 177.171 144.618 180.697 98.3101 196.169C68.1028 206.263 7.33086 229.076 3.40656 273.784C3.36046 274.297 4.03467 274.413 4.08077 273.893Z" fill="#3A3A3A"/>
<path d="M3.79816 292.967C9.77969 233.839 103.986 208.068 142.416 201.193C195.968 191.625 252.009 194.912 301.826 221.613C346.584 245.6 383.631 283.53 425.427 313.299C458.631 336.952 495.206 353.012 532.858 363.406C572.943 374.471 618.069 384.797 659.041 374.594C701.367 364.056 731.263 328.751 768.8 306.096C789.557 293.569 812.377 285.156 835.496 281.842C865.438 277.55 885.043 287.186 912.605 297.43C937.73 306.772 950.056 285.047 961.857 262.481C994.036 200.94 1059.65 212.325 1109.03 185.973C1154.61 161.637 1214.44 110.033 1264.44 144.757C1264.82 145.016 1265.08 144.272 1264.71 144.019C1232.06 121.343 1197.73 136.761 1165.49 152.999C1143.45 164.097 1122.76 179.317 1100.42 189.404C1073.96 201.35 1044.88 200.899 1018.33 212.489C1002.89 219.235 979.036 231.789 968.052 246.612C948.339 273.217 951.877 311.857 905.753 293.295C868.55 278.322 836.597 276.128 798.264 290.835C750.447 309.185 715.214 356.196 666.624 371.388C613.528 387.988 549.725 370.753 498.508 351.351C407.719 316.955 342.354 220.116 247.047 200.407C198.584 190.388 145.937 195.069 98.9322 211.813C67.872 222.877 7.68212 247.774 3.12394 292.851C3.07207 293.364 3.74629 293.48 3.79816 292.961V292.967Z" fill="#3A3A3A"/>
<path d="M3.5156 312.042C10.3615 252.435 102.142 223.862 142.307 216.016C195.535 205.622 250.631 208.779 299.509 237.619C344.382 264.101 379.597 306.417 421.808 337.567C454.672 361.821 491.414 377.649 529.061 387.736C570.263 398.78 616.052 408.334 657.612 394.618C701.102 380.26 731.874 339.734 771.566 316.518C792.599 304.217 816.134 295.968 839.495 293.604C869.818 290.535 889.462 301.476 916.921 312.705C942.357 323.106 957.42 300.813 967.551 275.835C994.341 209.784 1059.5 222.017 1108.23 198.159C1154.01 175.743 1215.09 115.296 1265.6 151.188C1265.97 151.455 1266.4 150.819 1266.02 150.553C1236.67 129.695 1205 143.643 1175.95 158.152C1155.46 168.39 1136.26 181.484 1116.22 192.801C1088.9 208.239 1059.35 207.091 1030.96 217.376C1013.18 223.814 993.073 235.726 979.692 251.362C966.802 266.418 964.986 296.016 948.448 306.971C938.554 313.525 915.82 310.238 906.053 305.864C901.218 303.697 896.838 300.526 891.911 298.531C884.368 295.469 876.439 293.651 868.521 292.681C848.975 290.289 829.002 293.187 810.054 298.961C759.857 314.263 726.722 357.776 681.232 383.362C626.58 414.102 558.622 398.343 502.899 378.9C453.894 361.801 413.395 331.574 373.305 294.799C337.778 262.215 300.253 230.313 255.939 217.383C205.522 202.669 148.542 208.717 99.4103 227.327C67.5722 239.382 8.10259 266.151 2.84138 311.933C2.78376 312.445 3.45797 312.561 3.5156 312.042Z" fill="#3A3A3A"/>
<path d="M3.23974 331.114C7.55013 297.695 43.0071 274.337 65.9421 260.272C89.7184 245.688 115.748 236.134 142.042 230.571C197.426 218.851 252.827 223.635 302.051 257.538C343.259 285.92 374.827 328.763 414.444 359.612C448.011 385.753 486.257 402.107 525.344 412.166C565.193 422.431 608.158 430.591 648.104 416.868C694.256 401.013 725.49 356.325 767.378 330.984C788.434 318.246 811.64 309.737 835.105 306.457C866.954 302.008 888.921 311.336 917.152 326.03C942.64 339.294 959.38 323.255 970.704 296.137C982.569 267.721 992.849 248.668 1018.47 234.166C1045.51 218.858 1075.41 222.322 1103.38 211.682C1151.42 193.401 1214.54 119.688 1266.85 157.693C1267.22 157.959 1267.64 157.33 1267.27 157.057C1236.01 134.347 1199.29 155.533 1169.79 171.935C1147.37 184.4 1126.08 201.636 1102.48 210.616C1076.24 220.593 1047.72 217.921 1022.24 231.296C1007.96 238.786 989.04 251.777 979.947 267.106C977.227 271.692 975.7 280.378 973.902 285.51C972.277 290.151 970.663 294.825 968.692 299.274C960.026 318.867 955.07 322.941 935.454 324.171C915.043 325.449 909.667 317.835 892.039 310.906C883.09 307.386 873.795 305.418 864.396 304.605C844.659 302.903 824.646 306.341 805.635 312.56C754.233 329.371 721.185 375.727 674.992 403.446C622.887 434.712 561.81 423.203 507.481 406.282C453.526 389.484 410.186 357.911 368.171 315.239C334.402 280.945 298.778 246.604 255.138 232.136C205.517 215.687 147.955 223.129 99.6703 242.558C66.9563 255.721 8.52976 284.765 2.56552 330.998C2.49637 331.51 3.17058 331.62 3.23974 331.107V331.114Z" fill="#3A3A3A"/>
<path d="M2.95541 350.187C11.5359 290.334 95.0987 256.396 137.292 245.987C195.978 231.506 253.915 237.677 304.291 278.039C342.854 308.929 371.517 353.816 410.155 384.473C442.379 410.04 479.409 425.724 517.108 435.462C558.12 446.055 601.719 453.634 642.461 437.752C683.853 421.623 712.781 382.949 748.624 355.633C792.789 321.969 857.116 301.562 906.49 330.894C933.597 346.995 954.549 356.816 972.477 320.021C977.576 309.558 979.714 297.995 983.817 287.115C990.139 270.358 1002.27 257.428 1015.29 247.641C1044.09 226.005 1075.97 233.29 1106.82 221.501C1153.06 203.835 1217.6 126.719 1268.08 164.177C1268.45 164.45 1268.87 163.814 1268.5 163.541C1236.81 140.025 1196.82 166.5 1167.95 183.77C1145 197.5 1122.54 216.97 1097.11 223.558C1071.92 230.085 1045.85 227.535 1022.31 241.866C1010.64 248.974 992.726 263.216 985.851 277.411C969.538 311.103 971.531 366.602 917.542 337.564C878.063 316.331 843.949 311.164 801.213 326.226C754.174 342.806 722.912 381.664 683.139 412.999C628.221 456.265 564.753 449.288 503.566 430.897C449.986 414.796 405.804 384.33 365.801 339.539C331.542 301.179 296.143 261.282 249.616 245.523C200.467 228.875 143.043 238.203 95.8593 259.321C63.1568 273.952 8.83898 304.337 2.28119 350.07C2.20628 350.583 2.8805 350.692 2.95541 350.18V350.187Z" fill="#3A3A3A"/>
<path d="M2.67319 369.256C14.6017 304.906 98.4987 268.644 145.648 258.161C207.134 244.493 262.392 256.883 310.993 304.687C343.96 337.115 368.791 379.896 404.444 408.682C437.654 435.498 476.263 451.121 515.408 460.477C557.175 470.462 599.916 475.731 640.473 456.848C683.64 436.749 713.231 392.464 752.307 364.533C804.164 327.465 866.52 316.955 920.268 352.417C943.727 367.896 962.951 365.805 977.311 336.903C990.669 310.011 990.675 283.119 1013.02 262.145C1042.92 234.085 1076.44 243.741 1110.18 231.344C1154.71 214.976 1220.58 133.753 1269.32 170.664C1269.69 170.944 1270.11 170.309 1269.74 170.029C1237.65 145.727 1194.35 177.82 1166.21 195.759C1141.29 211.648 1119.69 229.793 1091.04 234.884C1068.87 238.821 1046.58 237.064 1026.33 250.37C1012.98 259.138 997.688 274.221 991.072 290.623C987.165 300.314 986.053 312.02 982.515 322.053C979.922 329.393 977.179 336.698 973.162 343.177C960.139 364.171 934.161 360.515 917.387 349.307C882.091 325.736 843.879 324.534 805.028 337.095C752.768 353.988 719.506 397.057 676.443 432.615C624.343 475.635 566.165 473.229 506.562 457.429C451.207 442.749 403.724 414.053 363.985 365.866C331.617 326.618 300.522 284.5 256.277 263.936C208.529 241.746 150.84 250.616 103.645 270.784C67.0467 286.413 11.1614 319.722 2.00473 369.146C1.91253 369.652 2.58675 369.761 2.67895 369.256H2.67319Z" fill="#3A3A3A"/>
<path d="M2.39681 388.33C15.4202 322.511 95.9 283.748 145.072 272.068C208.218 257.074 263.925 273.599 310.555 326.796C342.122 362.804 365.403 407.294 402.514 436.291C437.977 463.997 479.473 478.635 521.027 486.939C562.431 495.215 603.293 495.782 641.787 473.366C686.481 447.342 717.098 397.61 761.216 370.295C810.71 339.657 871.275 329.338 920.706 364.397C944.73 381.434 966.017 386.006 981.38 353.312C991.764 331.224 992.6 304.195 1005.73 283.755C1032.36 242.279 1071.86 252.728 1108.91 242.402C1130.6 236.353 1149.55 218.845 1168.69 206.099C1195.44 188.283 1240.28 153.784 1270.55 177.15C1270.91 177.43 1271.34 176.801 1270.97 176.514C1238.62 151.543 1192.11 189.355 1164.67 207.896C1140.15 224.469 1118.95 241.773 1089.79 244.691C1065.97 247.076 1043.17 247.151 1022.77 263.833C980.573 298.339 992.242 412.789 917.923 361.294C883.503 337.443 843.908 337.183 805.997 348.945C756.416 364.328 722.261 401.54 683.623 439.148C631.898 489.495 576.307 498.645 511.766 484.15C453.34 471.029 400.52 443.693 359.963 391.063C329.508 351.549 303.179 308.59 261.954 283.529C213.543 254.095 152.575 263.15 103.334 285.313C65.71 302.254 11.6688 337.956 1.72259 388.22C1.62462 388.726 2.29884 388.835 2.39681 388.33Z" fill="#3A3A3A"/>
<path d="M2.11472 407.402C16.2676 340.236 93.3533 298.535 144.479 285.878C211.324 269.333 267.423 292.637 311.979 353.283C340.717 392.394 362.551 435.859 400.411 464.09C437.032 491.392 480.159 505.026 522.618 512.223C564.517 519.323 605.472 514.58 642.634 488.953C687.98 457.68 719.449 405.194 767.607 378.473C791.06 365.461 816.652 356.918 842.52 354.779C878.513 351.8 901.367 364.771 931.626 384.76C956.751 401.353 977.007 394.383 989.419 363.301C998.973 339.382 999.544 311.376 1013.35 289.835C1040.99 246.671 1080.01 263.865 1117.05 250.99C1135.42 244.607 1151.73 229.217 1167.99 217.756C1193.4 199.857 1241.79 160.056 1271.78 183.647C1272.15 183.934 1272.57 183.298 1272.21 183.011C1242.76 159.858 1199.62 194.957 1174.66 212.166C1149.91 229.217 1127.49 250.129 1098.15 253.696C1072.76 256.785 1048.8 253.765 1027.12 272.593C990.042 304.781 998.478 423.079 932.289 383.735C913.924 372.814 899.592 360.048 878.588 355.838C855.786 351.273 832.182 353.645 809.8 360.062C758.854 374.66 722.826 410.655 684.257 450.695C633.316 503.578 580.18 522.857 513 509.639C453.236 497.885 396.014 472.093 355.486 416.771C324.847 374.94 301.416 327.887 259.655 299.587C212.114 267.378 151.958 276.59 102.942 299.717C64.2063 317.998 12.2511 356.002 1.4405 407.292C1.33677 407.798 2.01099 407.9 2.11472 407.402Z" fill="#3A3A3A"/>
<path d="M1.83278 426.477C17.1785 357.924 90.3687 313.099 143.788 299.452C214.926 281.273 270.016 313.113 312.146 380.941C337.692 422.069 358.218 462.827 396.038 489.781C434.215 516.987 480.263 530.696 524.133 537.216C563.716 543.1 602.193 533.82 636.273 509.032C683.497 474.684 715.842 418.788 766.95 390.652C790.571 377.647 816.341 369.234 842.348 367.15C879.366 364.184 904.9 377.155 935.655 399.701C962.128 419.11 983.478 409.139 995.937 376.711C1004.8 353.653 1005.23 326.925 1015.79 304.885C1039.1 256.253 1078.01 271.22 1115.84 261.885C1134.91 257.176 1150.71 241.95 1166.91 229.901C1191.59 211.545 1243.06 166.16 1273.02 190.141C1273.38 190.428 1273.8 189.799 1273.44 189.505C1242.84 165.005 1195 208.237 1169.85 226.764C1144.25 245.613 1123.6 262.247 1092.23 263.368C1068.42 264.215 1046.46 264.789 1028.01 284.868C1018.01 295.754 1012.11 308.821 1008.29 324.013C1004.82 337.825 1002.9 352.074 998.824 365.708C997.412 370.444 995.914 375.324 994.035 379.855C984.596 402.598 965.586 411.298 944.057 404.587C932.088 400.856 920.655 384.912 908.611 378.488C899.074 373.403 888.932 370.014 878.629 367.997C854.368 363.255 829.122 366.303 805.45 373.519C756.122 388.561 720.222 423.401 683.324 463.326C634.452 516.201 582.79 547.365 515.104 534.817C457.207 524.088 395.732 502.622 355.216 449.337C321.343 404.785 301.376 349.17 257.31 315.84C210.852 280.713 151.1 289.857 102.366 313.906C62.4721 333.608 12.8738 374.032 1.16432 426.367C1.05483 426.866 1.72905 426.976 1.83854 426.477H1.83278Z" fill="#3A3A3A"/>
<path d="M1.53301 445.654C16.0892 384.291 73.3921 338.428 121.74 319.784C155.583 306.731 195.829 299.931 229.667 316.62C260.18 331.669 283.806 361.404 302.044 393.264C326.973 436.804 345.586 481.479 384.028 510.681C421.577 539.199 467.505 553.291 511.352 559.934C553.378 566.296 594.091 556.12 629.859 528.955C677.815 492.536 710.437 434.481 762.709 404.848C816.883 374.143 880.634 366.687 931.961 407.787C956.342 427.312 980.591 436.504 998.057 401.212C1008.06 381.004 1010.41 357.044 1015.09 334.73C1020.06 311.071 1031.54 289.639 1051.11 279.429C1068.79 270.203 1086.92 274.775 1105.38 273.306C1129.05 271.42 1143.57 259.72 1162.84 244.616C1186.59 226 1243.98 171.956 1274.27 196.627C1274.63 196.921 1275.05 196.286 1274.69 195.992C1243.47 170.555 1190.45 222.098 1165.55 241.527C1156.31 248.737 1147.34 256.781 1137.49 262.788C1120.43 273.196 1104.77 271.898 1086.4 272.267C1065.78 272.677 1047.6 275.828 1032.49 293.815C997.187 335.831 1014.66 471.638 932.382 407.158C894.522 377.491 853.325 372.332 809.207 384.606C757.113 399.101 718.908 434.877 680.69 477.569C633.495 530.288 583.326 568.258 515.766 559.818C458.573 552.669 395.335 530.868 354.167 480.829C317.321 436.039 301.192 373.309 257.702 335.011C178.904 265.617 27.4991 333.241 0.910652 445.34C0.795401 445.832 1.41776 446.16 1.53301 445.661V445.654Z" fill="#3A3A3A"/>
<path d="M1.25116 464.728C17.5131 399.9 72.8394 351.249 125.094 331.662C159.525 318.753 198.434 314.495 231.604 334.3C261.102 351.912 282.17 384.729 298.466 417.737C319.713 460.778 336.949 503.485 372.826 532.311C410.398 562.504 458.181 577.457 502.853 583.348C545.72 588.993 587.441 577.231 623.365 548.822C669.719 512.164 701.644 455.038 751.334 423.423C803.82 390.025 877.24 373.849 929.397 416.541C955.017 437.515 982.436 458.209 1003.31 417.881C1013.62 397.966 1016.4 373.856 1020.28 351.426C1023.8 331.081 1028.73 311.303 1042.69 297.232C1062.56 277.222 1085.45 283.66 1108.9 282.723C1131.01 281.835 1144.66 271.372 1162.24 256.966C1185.82 237.653 1245.22 178.053 1275.5 203.134C1275.86 203.428 1276.28 202.799 1275.92 202.498C1245.62 177.403 1191.17 232.377 1167.92 251.328C1157.57 259.761 1146.62 270.818 1134.95 276.62C1117.23 285.416 1098.97 280.051 1080.69 280.96C1061.02 281.944 1044.29 289.947 1032.52 309.322C1022.28 326.188 1020.75 345.904 1017.33 365.648C1014.69 380.95 1011.65 396.825 1005.72 410.876C1002.6 418.27 997.211 428.569 991.074 433.709C967.488 453.459 949.549 433.1 932.976 418.776C895.847 386.683 848.07 385.18 804.793 398.083C750.631 414.231 711.895 452.837 672.56 497.881C625.855 551.35 574.942 590.489 507.169 583.026C450.615 576.801 387.705 555.369 347.206 505.685C310.994 461.264 298.299 397.679 258.682 356.005C178.329 271.481 29.3551 349.868 0.628807 464.407C0.507794 464.899 1.13015 465.221 1.25116 464.728Z" fill="#3A3A3A"/>
<path d="M0.966789 483.801C18.5944 417.223 69.3856 365.797 124.291 344.946C163.246 330.15 204.806 328.175 239.248 358.047C265.261 380.6 281.857 413.13 295.883 446.74C315.303 493.266 334.025 534.776 372.502 562.755C411.393 591.041 461.424 605.659 506.712 607.375C549.187 608.981 589.387 592.866 623.415 563.015C671.359 520.944 704.995 460.709 760.253 429.867C814.933 399.346 885.266 388.821 936.425 433.892C962.685 457.025 990.207 471.472 1010.13 431.213C1020.52 410.239 1023.24 385.069 1026.66 361.546C1029.92 339.069 1034.22 313.134 1052.69 300.443C1071.86 287.273 1091.81 292.358 1112.51 292.133C1136.21 291.873 1150.38 279.107 1168.8 263.388C1190.66 244.718 1248.46 185.828 1276.74 209.625C1277.1 209.925 1277.52 209.29 1277.17 208.989C1247.29 183.847 1190.55 243.822 1168.39 262.746C1158.89 270.858 1149.13 281.123 1138.33 286.522C1120.79 295.29 1102.53 288.852 1084.44 289.556C1064.55 290.328 1048.48 298.071 1037.34 318.416C1027.78 335.871 1027.05 355.71 1024.07 375.556C1021.77 390.837 1019.07 406.453 1013.76 420.743C1010.07 430.687 1004.75 444.102 996.356 449.672C984.86 450.922 973.363 452.173 961.867 453.424C953.863 448.797 946.539 443.022 939.883 436.106C901.291 402.202 855.848 396.585 809.494 408.988C759.434 422.383 719.909 454.182 683.449 496C634.093 552.607 587.808 605.598 514.831 606.493C456.704 607.204 388.395 585.574 345.326 537.257C305.645 492.74 296.275 424.488 258.864 377.77C177.843 276.558 31.226 366.822 0.344433 483.48C0.211894 483.972 0.840013 484.293 0.966789 483.801Z" fill="#3A3A3A"/>
<path d="M0.691005 502.876C21.6379 427.79 75.2008 369.53 140.502 352.301C220.953 331.074 263.769 398.663 292.253 476.702C309.184 523.078 328.828 562.039 366.429 588.446C406.772 616.78 459.31 631.541 505.986 630.318C552.669 629.095 594.609 606.282 629.547 570.301C674.864 523.631 710.067 466.833 766.921 438.226C824.391 409.311 891.824 404.042 943.209 451.19C972.851 478.39 1002.45 482.989 1019.78 437.932C1028.55 415.12 1030.81 389.84 1033.62 365.306C1036.04 344.23 1041.3 321.985 1056.79 308.877C1076.72 292.024 1098.96 302.043 1120.65 301.544C1143.18 301.032 1156.9 285.894 1174.05 270.668C1195.44 251.683 1251.16 193.21 1277.97 216.118C1278.32 216.419 1278.75 215.79 1278.39 215.483C1249.6 190.887 1191.45 254.136 1170.79 272.568C1161.81 280.577 1152.15 291.17 1141.69 296.425C1124.08 305.276 1106.18 297.833 1088.17 298.148C1068.21 298.489 1052.43 306.547 1042.1 327.575C1032.37 347.387 1032.97 370.917 1029.73 392.875C1027.5 407.992 1024.6 423.614 1019.15 437.611C1015.78 446.249 1011.86 454.6 1005.73 460.908C983.039 484.24 961.776 466.997 943.618 450.554C904.156 414.819 857.087 408.552 809.172 421.209C758.559 434.576 717.835 466.56 681.174 509.061C635.096 562.476 592.949 617.579 525.429 627.878C465.533 637.015 390.297 615.283 343.811 568.511C299.382 523.816 293.371 452.447 258.179 400.242C177.815 281.001 33.0593 384.264 0.0628864 502.555C-0.0754149 503.047 0.546941 503.368 0.685242 502.876H0.691005Z" fill="#3A3A3A"/>
<path d="M0.409303 521.943C20.3305 453.384 59.4294 397.29 118.3 372.598C162.285 354.146 206.086 357.809 239.469 399.531C263.153 429.13 274.154 465.822 286.255 503.095C302.05 551.767 323.787 590.687 363.237 616.151C406.767 644.246 463.252 658.618 512.551 651.873C561.129 645.23 601.524 614.832 635.938 575.078C687.623 515.383 731.96 456.015 804.983 435.362C836.003 426.587 868.965 424.735 899.789 435.417C916.125 441.076 930.601 449.974 943.936 462.637C953.426 471.651 962.572 482.319 974.391 487.021C1010.5 501.38 1027.72 455.55 1034.23 421.694C1040.67 388.282 1034.72 340.198 1060.92 317.276C1088.36 293.261 1123.9 322.682 1152.78 302.153C1170.05 289.879 1185.19 271.796 1201.46 257.745C1217.62 243.796 1257.61 203.844 1279.21 222.577C1279.56 222.884 1279.98 222.248 1279.63 221.941C1256.17 201.589 1212.89 246.612 1195.84 261.661C1180.72 275.001 1166.46 292.311 1149.87 302.911C1123.17 319.962 1093.1 296.063 1066.64 312.041C1048.36 323.085 1041.89 347.107 1039.47 369.557C1036.1 400.748 1035.17 432.492 1021.6 460.607C994.709 516.367 958.682 469.581 928.382 448.655C905.707 432.991 879.228 426.963 853.216 427.237C798.857 427.811 745.145 453.787 703.718 494.86C648.587 549.526 608.791 624.83 534.886 646.303C474.437 663.867 396.671 645.326 345.898 602.428C295.521 559.872 290.421 491.012 261.032 431.891C227.016 363.461 170.854 346.075 109.834 375.523C54.8943 402.074 18.7573 456.336 -0.213053 521.629C-0.357117 522.114 0.271001 522.442 0.409303 521.95V521.943Z" fill="#3A3A3A"/>
</g>
<g opacity="0.1">
<path d="M6.03873 140.273C5.6584 128.19 19.9726 111.474 27.3775 105.72C32.339 101.866 37.4619 99.3643 42.873 96.7469C53.1476 91.7717 64.0561 88.0744 74.8321 85.0743C93.6814 79.8189 112.992 77.0101 132.308 75.7389C175.734 72.8823 219.063 78.3222 261.775 87.3705C347.585 105.549 430.601 137.799 515.132 162.402C598.694 186.724 683.174 201.274 769.289 193.019C852.057 185.084 936.472 166.475 1015.56 136.227C1057.8 120.072 1097.34 95.7218 1139.43 79.5113C1163.57 70.2102 1193.77 61.5514 1218.68 71.5291C1231.2 76.5385 1242.6 86.2361 1254.56 92.8309C1254.96 93.0496 1255.23 92.3116 1254.83 92.0929C1230.7 78.7869 1214.41 65.3716 1186.81 67.0323C1147.83 69.3764 1112.29 91.4095 1076.93 108.761C984.734 154.003 884.073 178.715 784.986 190.545C682.54 202.778 583.775 183.082 484.884 152.465C391.813 123.646 298.967 87.2817 202.703 76.764C157.502 71.8298 110.502 72.6362 66.4534 86.7555C44.5499 93.7741 4.29844 106.253 5.36451 140.382C5.3818 140.902 6.05602 140.793 6.03873 140.28V140.273Z" fill="#3A3A3A"/>
<path d="M5.76229 159.346C5.34738 137.675 27.8386 122.9 41.882 115.683C49.7133 111.658 57.9307 108.446 66.1193 105.616C88.04 98.0442 110.831 94.1009 133.57 92.2899C177.728 88.7635 222.014 93.8275 265.492 102.972C353.7 121.526 437.084 161.239 523.562 187.741C604.63 212.59 690.527 228.999 773.554 209.529C792.991 204.97 812.37 200.152 831.963 196.592C852.305 192.894 873.609 193.626 893.685 188.76C930.566 179.821 968.46 162.783 1004.69 150.038C1047.42 135.003 1087.24 114.159 1128.68 95.1739C1153.96 83.5969 1183.13 72.6966 1210.61 76.8859C1226.72 79.3461 1241.29 91.0529 1255.8 99.3153C1256.2 99.5408 1256.46 98.7959 1256.07 98.5772C1227.98 82.5787 1209.82 71.9653 1177.74 77.6786C1137.29 84.8749 1101.13 109.806 1063.26 126.549C1018.49 146.347 971.826 157.849 926.405 174.989C881.296 192.013 834.464 194.275 787.925 205.257C583.873 253.437 404.923 113.182 206.207 92.6453C162.406 88.1143 117.141 89.2419 74.3482 102.151C51.0156 109.191 4.37927 122.62 5.08807 159.455C5.09959 159.975 5.77381 159.865 5.76229 159.353V159.346Z" fill="#3A3A3A"/>
<path d="M5.47985 178.422C5.34154 157.203 26.7149 142.359 40.5219 134.787C48.117 130.625 56.0866 127.228 64.0504 124.208C86.8068 115.576 110.635 110.895 134.411 108.626C177.999 104.457 222.014 108.715 265.014 117.606C355.561 136.318 438.674 184.306 527.02 212.34C602.371 236.245 686.141 254.431 762.61 228.865C785.505 221.21 808.238 213.18 831.796 208.841C853.964 204.754 877.521 210.255 899.131 204.529C911.307 201.303 921.328 191.762 932.611 185.967C950.942 176.557 971.03 171.158 990.185 164.679C1037.34 148.721 1081.43 129.005 1126.75 107.225C1152.23 94.9782 1179.68 84.0368 1207.51 85.144C1225.72 85.8684 1240.9 96.3313 1257.03 105.817C1257.42 106.049 1257.68 105.304 1257.3 105.079C1227.59 87.5906 1208.63 80.0047 1175.05 88.1373C1134.76 97.9032 1099.02 123.162 1060.39 138.812C1016.65 156.533 967.896 164.679 926.198 188.626C914.217 195.508 907.262 200.824 893.109 202.765C882.057 204.282 871.938 203.934 860.966 204.447C838.18 205.513 815.522 210.836 793.492 217.588C770.465 224.648 748.002 234.387 724.347 238.241C695.891 242.875 666.508 239.991 638.07 236.375C585.613 229.705 533.958 215.654 483.812 196.328C391.709 160.825 303.715 116.649 206.011 107.949C161.386 103.979 115.349 106.015 72.0892 120.517C48.9583 128.274 4.56936 142.53 4.80563 178.525C4.80563 179.044 5.48561 178.935 5.47985 178.422Z" fill="#3A3A3A"/>
<path d="M5.19766 197.603C5.33596 176.164 25.7296 161.56 39.531 153.673C48.6358 148.473 58.1613 144.133 67.7963 140.525C91.5323 131.634 116.052 126.563 140.842 124.219C186.966 119.865 234.011 124.362 279.288 135.454C367.887 157.166 447.48 211.736 534.719 238.929C578.082 252.446 622.725 260.934 667.523 263.586C705.25 265.821 736.529 255.378 771.658 240.302C794.247 230.605 817.418 222.78 841.356 219.609C861.219 216.978 881.654 224.235 900.975 220.832C910.95 219.076 917.716 212.802 925.881 206.474C944.569 191.992 963.799 183.648 985.132 176.117C1033.12 159.182 1078.93 142.541 1125.04 119.319C1148.67 107.414 1174.01 95.9255 1199.85 93.7522C1221.8 91.907 1239.25 100.757 1258.25 112.3C1258.65 112.539 1258.91 111.794 1258.52 111.562C1227.46 92.6998 1207.38 88.4695 1172.47 98.7069C1131.18 110.817 1094.41 137.572 1053.77 152.061C1014.98 165.893 967.936 173.075 933.188 199.045C921.663 207.656 914.857 215.672 900.745 218.454C888.603 220.846 877.504 217.565 865.351 217.251C842.756 216.663 819.954 221.802 798.281 229.026C780.175 235.06 763.06 244.157 745.214 251.039C715.824 262.376 687.628 264.563 656.885 261.987C604.117 257.572 551.885 245.728 501.486 226.648C410.207 192.095 326.662 138.099 230.024 125.551C180.46 119.12 128.925 119.79 80.5143 135.215C55.9024 143.074 4.77123 158.956 4.52344 197.494C4.52344 198.006 5.19189 198.122 5.19766 197.603Z" fill="#3A3A3A"/>
<path d="M4.92046 216.679C5.36994 193.771 27.6307 178.914 41.9391 170.603C49.6091 166.148 57.5211 162.334 65.5714 158.958C88.5351 149.322 112.559 143.663 136.745 140.629C185.265 134.54 236.028 137.991 283.569 151.365C370.376 175.784 446.286 235.349 532.361 262.727C576.543 276.778 623.64 286.639 669.493 287.049C709.024 287.398 739.946 269.117 775.76 252.038C796.569 242.115 818.403 234.844 840.745 231.994C862.101 229.274 881.641 238.138 902.185 237.119C913.324 236.566 921.092 230.525 929.436 222.125C946.539 204.91 963.343 194.488 984.826 186.192C1032.02 167.965 1077.99 155.281 1123.52 131.424C1168.93 107.62 1213.28 89.8724 1259.52 118.801C1259.9 119.04 1260.17 118.302 1259.79 118.063C1229.48 99.1052 1208.08 97.219 1174.48 108.099C1128.86 122.867 1088.17 151.721 1042.24 166.12C1005.98 177.492 963.297 185.789 934.242 215.572C910.46 239.949 890.239 230.791 862.636 229.923C844.871 229.37 826.989 232.739 809.8 237.858C757.585 253.405 716.337 288.553 660.273 285.867C605.995 283.27 551.044 270.586 499.578 250.241C408.109 214.082 327.497 151.981 229.62 140.158C182.038 134.41 132.849 135.955 86.426 150.498C60.5349 158.603 5.04147 176.071 4.24624 216.563C4.23471 217.075 4.90893 217.191 4.92046 216.672V216.679Z" fill="#3A3A3A"/>
<path d="M4.63801 235.752C5.43901 222.856 21.5972 203.646 29.8434 196.586C35.168 192.028 41.9275 188.624 47.8514 185.242C56.7718 180.143 66.0668 175.852 75.4713 172.175C98.5043 163.174 122.546 157.816 146.662 155.096C197.436 149.363 250.711 153.723 299.577 171.662C381.371 201.691 451.559 262.692 534.972 288.388C575.552 300.888 619.059 310.073 661.097 309.834C701.723 309.601 732.679 288.812 768.516 268.945C789.924 257.081 812.612 248.477 836.111 244.93C848.973 242.99 862.169 242.238 875.031 244.561C885.617 246.468 896.151 252.988 906.968 252.851C916.516 252.735 923.685 248.573 931.044 241.712C946.113 227.661 954.664 214.006 973.283 204.138C1019.1 179.85 1069.02 173.022 1114.51 147.791C1161.03 121.992 1211.71 93.7333 1260.75 125.286C1261.13 125.532 1261.4 124.794 1261.02 124.548C1230.25 104.75 1205.05 106.752 1172.02 119.06C1150.77 126.974 1130.61 138.066 1110.45 149.165C1083.05 164.254 1054.69 171.628 1025.64 180.806C993.083 191.098 961.164 203.933 938.01 232.677C915.969 260.047 885.151 242.559 858.107 242.368C838.802 242.224 819.504 246.509 801.081 253.111C754.001 269.984 716.515 307.209 665.476 309.014C610.501 310.961 551.222 295.776 499.457 275C412.108 239.942 337.16 171.177 243.888 156.586C193.754 148.741 141.251 150.272 92.1885 165.498C63.8367 174.28 6.60305 193.114 3.9638 235.636C3.93498 236.149 4.60344 236.265 4.63801 235.745V235.752Z" fill="#3A3A3A"/>
<path d="M4.3576 254.819C5.31418 242.026 20.6138 223.143 28.7159 215.824C33.8561 211.184 40.3736 207.596 46.1073 204.056C54.7339 198.732 63.7234 194.215 72.8513 190.251C96.6622 179.911 121.747 173.733 146.917 170.473C198.527 163.789 252.816 167.726 301.976 188.474C382.076 222.282 448.397 286.83 531.689 312.465C572.753 325.101 618.479 335.858 661.081 332.256C703.834 328.641 734.975 300.389 772.552 279.402C793.753 267.565 816.93 259.111 840.337 256.637C853.142 255.284 866.332 255.052 879.01 258.004C889.786 260.519 900.602 268.228 911.787 268.583C938.814 269.444 949.924 231.754 970.623 217.895C1016.6 187.128 1070.11 184.586 1117.41 157.741C1161.99 132.442 1214.42 100.356 1261.97 131.772C1262.35 132.025 1262.61 131.28 1262.24 131.034C1230.73 110.217 1202.62 116.368 1169.7 130.132C1150.39 138.203 1131.93 148.707 1113.46 159.101C1086.34 174.369 1058.2 180.43 1029.4 189.226C1008.6 195.568 989.386 205.443 970.363 217.15C955.029 226.588 953.214 233.846 941.977 249.017C921.399 276.805 884.847 255.339 857.948 254.874C838.614 254.539 819.206 258.667 800.772 265.46C753.282 282.962 716.096 325.163 665.202 330.972C611.771 337.074 551.04 320.796 500.669 300.772C411.499 265.33 338.643 186.116 243.342 170.952C195.121 163.277 144.584 165.621 97.4517 180.301C67.9359 189.492 6.99109 210.459 3.68338 254.71C3.64304 255.223 4.31726 255.339 4.3576 254.819Z" fill="#3A3A3A"/>
<path d="M4.08077 273.893C5.99394 252.093 26.3415 235.322 41.0188 225.262C50.4521 218.797 60.1447 213.138 70.2407 208.286C93.3139 197.195 117.788 190.224 142.428 186.24C193.41 178.004 247.716 180.54 296.225 202.149C339.496 221.428 377.229 253.029 416.593 281.042C451.595 305.952 488.746 324.65 528.306 336.699C568.759 349.014 614.341 360.003 656.252 354.399C695.017 349.212 723.91 324.035 756.832 301.797C778.712 287.015 801.889 276.197 826.812 271.105C856.518 265.03 879.073 273.196 907.091 281.841C942.058 292.632 946.985 253.207 969.032 232.26C1011.09 192.295 1069.72 196.846 1116.76 169.79C1160.5 144.62 1215.8 106.13 1263.21 138.264C1263.59 138.524 1263.86 137.779 1263.48 137.526C1232.83 116.751 1203.25 125.512 1171.79 139.515C1150.4 149.035 1130.31 161.637 1109.64 173.05C1082 188.324 1052.09 190.415 1023.27 200.735C1006.34 206.796 990.63 216.111 975.446 226.725C969.96 230.559 964.722 233.935 960.538 239.32C952.649 249.475 949.699 267.64 938.71 274.679C923.687 284.309 898.781 275.335 883.078 270.757C874.826 268.351 866.24 267.353 857.757 267.182C836.92 266.759 816.036 271.618 796.317 279.402C749.56 297.854 713.768 342.104 664.314 352.26C611.218 363.16 547.617 344.968 497.309 325.04C407.661 289.523 338.643 201.322 242.789 185.187C195.156 177.171 144.618 180.697 98.3101 196.169C68.1028 206.263 7.33086 229.076 3.40656 273.784C3.36046 274.297 4.03467 274.413 4.08077 273.893Z" fill="#3A3A3A"/>
<path d="M3.79816 292.967C9.77969 233.839 103.986 208.068 142.416 201.193C195.968 191.625 252.009 194.912 301.826 221.613C346.584 245.6 383.631 283.53 425.427 313.299C458.631 336.952 495.206 353.012 532.858 363.406C572.943 374.471 618.069 384.797 659.041 374.594C701.367 364.056 731.263 328.751 768.8 306.096C789.557 293.569 812.377 285.156 835.496 281.842C865.438 277.55 885.043 287.186 912.605 297.43C937.73 306.772 950.056 285.047 961.857 262.481C994.036 200.94 1059.65 212.325 1109.03 185.973C1154.61 161.637 1214.44 110.033 1264.44 144.757C1264.82 145.016 1265.08 144.272 1264.71 144.019C1232.06 121.343 1197.73 136.761 1165.49 152.999C1143.45 164.097 1122.76 179.317 1100.42 189.404C1073.96 201.35 1044.88 200.899 1018.33 212.489C1002.89 219.235 979.036 231.789 968.052 246.612C948.339 273.217 951.877 311.857 905.753 293.295C868.55 278.322 836.597 276.128 798.264 290.835C750.447 309.185 715.214 356.196 666.624 371.388C613.528 387.988 549.725 370.753 498.508 351.351C407.719 316.955 342.354 220.116 247.047 200.407C198.584 190.388 145.937 195.069 98.9322 211.813C67.872 222.877 7.68212 247.774 3.12394 292.851C3.07207 293.364 3.74629 293.48 3.79816 292.961V292.967Z" fill="#3A3A3A"/>
<path d="M3.5156 312.042C10.3615 252.435 102.142 223.862 142.307 216.016C195.535 205.622 250.631 208.779 299.509 237.619C344.382 264.101 379.597 306.417 421.808 337.567C454.672 361.821 491.414 377.649 529.061 387.736C570.263 398.78 616.052 408.334 657.612 394.618C701.102 380.26 731.874 339.734 771.566 316.518C792.599 304.217 816.134 295.968 839.495 293.604C869.818 290.535 889.462 301.476 916.921 312.705C942.357 323.106 957.42 300.813 967.551 275.835C994.341 209.784 1059.5 222.017 1108.23 198.159C1154.01 175.743 1215.09 115.296 1265.6 151.188C1265.97 151.455 1266.4 150.819 1266.02 150.553C1236.67 129.695 1205 143.643 1175.95 158.152C1155.46 168.39 1136.26 181.484 1116.22 192.801C1088.9 208.239 1059.35 207.091 1030.96 217.376C1013.18 223.814 993.073 235.726 979.692 251.362C966.802 266.418 964.986 296.016 948.448 306.971C938.554 313.525 915.82 310.238 906.053 305.864C901.218 303.697 896.838 300.526 891.911 298.531C884.368 295.469 876.439 293.651 868.521 292.681C848.975 290.289 829.002 293.187 810.054 298.961C759.857 314.263 726.722 357.776 681.232 383.362C626.58 414.102 558.622 398.343 502.899 378.9C453.894 361.801 413.395 331.574 373.305 294.799C337.778 262.215 300.253 230.313 255.939 217.383C205.522 202.669 148.542 208.717 99.4103 227.327C67.5722 239.382 8.10259 266.151 2.84138 311.933C2.78376 312.445 3.45797 312.561 3.5156 312.042Z" fill="#3A3A3A"/>
<path d="M3.23974 331.114C7.55013 297.695 43.0071 274.337 65.9421 260.272C89.7184 245.688 115.748 236.134 142.042 230.571C197.426 218.851 252.827 223.635 302.051 257.538C343.259 285.92 374.827 328.763 414.444 359.612C448.011 385.753 486.257 402.107 525.344 412.166C565.193 422.431 608.158 430.591 648.104 416.868C694.256 401.013 725.49 356.325 767.378 330.984C788.434 318.246 811.64 309.737 835.105 306.457C866.954 302.008 888.921 311.336 917.152 326.03C942.64 339.294 959.38 323.255 970.704 296.137C982.569 267.721 992.849 248.668 1018.47 234.166C1045.51 218.858 1075.41 222.322 1103.38 211.682C1151.42 193.401 1214.54 119.688 1266.85 157.693C1267.22 157.959 1267.64 157.33 1267.27 157.057C1236.01 134.347 1199.29 155.533 1169.79 171.935C1147.37 184.4 1126.08 201.636 1102.48 210.616C1076.24 220.593 1047.72 217.921 1022.24 231.296C1007.96 238.786 989.04 251.777 979.947 267.106C977.227 271.692 975.7 280.378 973.902 285.51C972.277 290.151 970.663 294.825 968.692 299.274C960.026 318.867 955.07 322.941 935.454 324.171C915.043 325.449 909.667 317.835 892.039 310.906C883.09 307.386 873.795 305.418 864.396 304.605C844.659 302.903 824.646 306.341 805.635 312.56C754.233 329.371 721.185 375.727 674.992 403.446C622.887 434.712 561.81 423.203 507.481 406.282C453.526 389.484 410.186 357.911 368.171 315.239C334.402 280.945 298.778 246.604 255.138 232.136C205.517 215.687 147.955 223.129 99.6703 242.558C66.9563 255.721 8.52976 284.765 2.56552 330.998C2.49637 331.51 3.17058 331.62 3.23974 331.107V331.114Z" fill="#3A3A3A"/>
<path d="M2.95541 350.187C11.5359 290.334 95.0987 256.396 137.292 245.987C195.978 231.506 253.915 237.677 304.291 278.039C342.854 308.929 371.517 353.816 410.155 384.473C442.379 410.04 479.409 425.724 517.108 435.462C558.12 446.055 601.719 453.634 642.461 437.752C683.853 421.623 712.781 382.949 748.624 355.633C792.789 321.969 857.116 301.562 906.49 330.894C933.597 346.995 954.549 356.816 972.477 320.021C977.576 309.558 979.714 297.995 983.817 287.115C990.139 270.358 1002.27 257.428 1015.29 247.641C1044.09 226.005 1075.97 233.29 1106.82 221.501C1153.06 203.835 1217.6 126.719 1268.08 164.177C1268.45 164.45 1268.87 163.814 1268.5 163.541C1236.81 140.025 1196.82 166.5 1167.95 183.77C1145 197.5 1122.54 216.97 1097.11 223.558C1071.92 230.085 1045.85 227.535 1022.31 241.866C1010.64 248.974 992.726 263.216 985.851 277.411C969.538 311.103 971.531 366.602 917.542 337.564C878.063 316.331 843.949 311.164 801.213 326.226C754.174 342.806 722.912 381.664 683.139 412.999C628.221 456.265 564.753 449.288 503.566 430.897C449.986 414.796 405.804 384.33 365.801 339.539C331.542 301.179 296.143 261.282 249.616 245.523C200.467 228.875 143.043 238.203 95.8593 259.321C63.1568 273.952 8.83898 304.337 2.28119 350.07C2.20628 350.583 2.8805 350.692 2.95541 350.18V350.187Z" fill="#3A3A3A"/>
<path d="M2.67319 369.256C14.6017 304.906 98.4987 268.644 145.648 258.161C207.134 244.493 262.392 256.883 310.993 304.687C343.96 337.115 368.791 379.896 404.444 408.682C437.654 435.498 476.263 451.121 515.408 460.477C557.175 470.462 599.916 475.731 640.473 456.848C683.64 436.749 713.231 392.464 752.307 364.533C804.164 327.465 866.52 316.955 920.268 352.417C943.727 367.896 962.951 365.805 977.311 336.903C990.669 310.011 990.675 283.119 1013.02 262.145C1042.92 234.085 1076.44 243.741 1110.18 231.344C1154.71 214.976 1220.58 133.753 1269.32 170.664C1269.69 170.944 1270.11 170.309 1269.74 170.029C1237.65 145.727 1194.35 177.82 1166.21 195.759C1141.29 211.648 1119.69 229.793 1091.04 234.884C1068.87 238.821 1046.58 237.064 1026.33 250.37C1012.98 259.138 997.688 274.221 991.072 290.623C987.165 300.314 986.053 312.02 982.515 322.053C979.922 329.393 977.179 336.698 973.162 343.177C960.139 364.171 934.161 360.515 917.387 349.307C882.091 325.736 843.879 324.534 805.028 337.095C752.768 353.988 719.506 397.057 676.443 432.615C624.343 475.635 566.165 473.229 506.562 457.429C451.207 442.749 403.724 414.053 363.985 365.866C331.617 326.618 300.522 284.5 256.277 263.936C208.529 241.746 150.84 250.616 103.645 270.784C67.0467 286.413 11.1614 319.722 2.00473 369.146C1.91253 369.652 2.58675 369.761 2.67895 369.256H2.67319Z" fill="#3A3A3A"/>
<path d="M2.39681 388.33C15.4202 322.511 95.9 283.748 145.072 272.068C208.218 257.074 263.925 273.599 310.555 326.796C342.122 362.804 365.403 407.294 402.514 436.291C437.977 463.997 479.473 478.635 521.027 486.939C562.431 495.215 603.293 495.782 641.787 473.366C686.481 447.342 717.098 397.61 761.216 370.295C810.71 339.657 871.275 329.338 920.706 364.397C944.73 381.434 966.017 386.006 981.38 353.312C991.764 331.224 992.6 304.195 1005.73 283.755C1032.36 242.279 1071.86 252.728 1108.91 242.402C1130.6 236.353 1149.55 218.845 1168.69 206.099C1195.44 188.283 1240.28 153.784 1270.55 177.15C1270.91 177.43 1271.34 176.801 1270.97 176.514C1238.62 151.543 1192.11 189.355 1164.67 207.896C1140.15 224.469 1118.95 241.773 1089.79 244.691C1065.97 247.076 1043.17 247.151 1022.77 263.833C980.573 298.339 992.242 412.789 917.923 361.294C883.503 337.443 843.908 337.183 805.997 348.945C756.416 364.328 722.261 401.54 683.623 439.148C631.898 489.495 576.307 498.645 511.766 484.15C453.34 471.029 400.52 443.693 359.963 391.063C329.508 351.549 303.179 308.59 261.954 283.529C213.543 254.095 152.575 263.15 103.334 285.313C65.71 302.254 11.6688 337.956 1.72259 388.22C1.62462 388.726 2.29884 388.835 2.39681 388.33Z" fill="#3A3A3A"/>
<path d="M2.11472 407.402C16.2676 340.236 93.3533 298.535 144.479 285.878C211.324 269.333 267.423 292.637 311.979 353.283C340.717 392.394 362.551 435.859 400.411 464.09C437.032 491.392 480.159 505.026 522.618 512.223C564.517 519.323 605.472 514.58 642.634 488.953C687.98 457.68 719.449 405.194 767.607 378.473C791.06 365.461 816.652 356.918 842.52 354.779C878.513 351.8 901.367 364.771 931.626 384.76C956.751 401.353 977.007 394.383 989.419 363.301C998.973 339.382 999.544 311.376 1013.35 289.835C1040.99 246.671 1080.01 263.865 1117.05 250.99C1135.42 244.607 1151.73 229.217 1167.99 217.756C1193.4 199.857 1241.79 160.056 1271.78 183.647C1272.15 183.934 1272.57 183.298 1272.21 183.011C1242.76 159.858 1199.62 194.957 1174.66 212.166C1149.91 229.217 1127.49 250.129 1098.15 253.696C1072.76 256.785 1048.8 253.765 1027.12 272.593C990.042 304.781 998.478 423.079 932.289 383.735C913.924 372.814 899.592 360.048 878.588 355.838C855.786 351.273 832.182 353.645 809.8 360.062C758.854 374.66 722.826 410.655 684.257 450.695C633.316 503.578 580.18 522.857 513 509.639C453.236 497.885 396.014 472.093 355.486 416.771C324.847 374.94 301.416 327.887 259.655 299.587C212.114 267.378 151.958 276.59 102.942 299.717C64.2063 317.998 12.2511 356.002 1.4405 407.292C1.33677 407.798 2.01099 407.9 2.11472 407.402Z" fill="#3A3A3A"/>
<path d="M1.83278 426.477C17.1785 357.924 90.3687 313.099 143.788 299.452C214.926 281.273 270.016 313.113 312.146 380.941C337.692 422.069 358.218 462.827 396.038 489.781C434.215 516.987 480.263 530.696 524.133 537.216C563.716 543.1 602.193 533.82 636.273 509.032C683.497 474.684 715.842 418.788 766.95 390.652C790.571 377.647 816.341 369.234 842.348 367.15C879.366 364.184 904.9 377.155 935.655 399.701C962.128 419.11 983.478 409.139 995.937 376.711C1004.8 353.653 1005.23 326.925 1015.79 304.885C1039.1 256.253 1078.01 271.22 1115.84 261.885C1134.91 257.176 1150.71 241.95 1166.91 229.901C1191.59 211.545 1243.06 166.16 1273.02 190.141C1273.38 190.428 1273.8 189.799 1273.44 189.505C1242.84 165.005 1195 208.237 1169.85 226.764C1144.25 245.613 1123.6 262.247 1092.23 263.368C1068.42 264.215 1046.46 264.789 1028.01 284.868C1018.01 295.754 1012.11 308.821 1008.29 324.013C1004.82 337.825 1002.9 352.074 998.824 365.708C997.412 370.444 995.914 375.324 994.035 379.855C984.596 402.598 965.586 411.298 944.057 404.587C932.088 400.856 920.655 384.912 908.611 378.488C899.074 373.403 888.932 370.014 878.629 367.997C854.368 363.255 829.122 366.303 805.45 373.519C756.122 388.561 720.222 423.401 683.324 463.326C634.452 516.201 582.79 547.365 515.104 534.817C457.207 524.088 395.732 502.622 355.216 449.337C321.343 404.785 301.376 349.17 257.31 315.84C210.852 280.713 151.1 289.857 102.366 313.906C62.4721 333.608 12.8738 374.032 1.16432 426.367C1.05483 426.866 1.72905 426.976 1.83854 426.477H1.83278Z" fill="#3A3A3A"/>
<path d="M1.53301 445.654C16.0892 384.291 73.3921 338.428 121.74 319.784C155.583 306.731 195.829 299.931 229.667 316.62C260.18 331.669 283.806 361.404 302.044 393.264C326.973 436.804 345.586 481.479 384.028 510.681C421.577 539.199 467.505 553.291 511.352 559.934C553.378 566.296 594.091 556.12 629.859 528.955C677.815 492.536 710.437 434.481 762.709 404.848C816.883 374.143 880.634 366.687 931.961 407.787C956.342 427.312 980.591 436.504 998.057 401.212C1008.06 381.004 1010.41 357.044 1015.09 334.73C1020.06 311.071 1031.54 289.639 1051.11 279.429C1068.79 270.203 1086.92 274.775 1105.38 273.306C1129.05 271.42 1143.57 259.72 1162.84 244.616C1186.59 226 1243.98 171.956 1274.27 196.627C1274.63 196.921 1275.05 196.286 1274.69 195.992C1243.47 170.555 1190.45 222.098 1165.55 241.527C1156.31 248.737 1147.34 256.781 1137.49 262.788C1120.43 273.196 1104.77 271.898 1086.4 272.267C1065.78 272.677 1047.6 275.828 1032.49 293.815C997.187 335.831 1014.66 471.638 932.382 407.158C894.522 377.491 853.325 372.332 809.207 384.606C757.113 399.101 718.908 434.877 680.69 477.569C633.495 530.288 583.326 568.258 515.766 559.818C458.573 552.669 395.335 530.868 354.167 480.829C317.321 436.039 301.192 373.309 257.702 335.011C178.904 265.617 27.4991 333.241 0.910652 445.34C0.795401 445.832 1.41776 446.16 1.53301 445.661V445.654Z" fill="#3A3A3A"/>
<path d="M1.25116 464.728C17.5131 399.9 72.8394 351.249 125.094 331.662C159.525 318.753 198.434 314.495 231.604 334.3C261.102 351.912 282.17 384.729 298.466 417.737C319.713 460.778 336.949 503.485 372.826 532.311C410.398 562.504 458.181 577.457 502.853 583.348C545.72 588.993 587.441 577.231 623.365 548.822C669.719 512.164 701.644 455.038 751.334 423.423C803.82 390.025 877.24 373.849 929.397 416.541C955.017 437.515 982.436 458.209 1003.31 417.881C1013.62 397.966 1016.4 373.856 1020.28 351.426C1023.8 331.081 1028.73 311.303 1042.69 297.232C1062.56 277.222 1085.45 283.66 1108.9 282.723C1131.01 281.835 1144.66 271.372 1162.24 256.966C1185.82 237.653 1245.22 178.053 1275.5 203.134C1275.86 203.428 1276.28 202.799 1275.92 202.498C1245.62 177.403 1191.17 232.377 1167.92 251.328C1157.57 259.761 1146.62 270.818 1134.95 276.62C1117.23 285.416 1098.97 280.051 1080.69 280.96C1061.02 281.944 1044.29 289.947 1032.52 309.322C1022.28 326.188 1020.75 345.904 1017.33 365.648C1014.69 380.95 1011.65 396.825 1005.72 410.876C1002.6 418.27 997.211 428.569 991.074 433.709C967.488 453.459 949.549 433.1 932.976 418.776C895.847 386.683 848.07 385.18 804.793 398.083C750.631 414.231 711.895 452.837 672.56 497.881C625.855 551.35 574.942 590.489 507.169 583.026C450.615 576.801 387.705 555.369 347.206 505.685C310.994 461.264 298.299 397.679 258.682 356.005C178.329 271.481 29.3551 349.868 0.628807 464.407C0.507794 464.899 1.13015 465.221 1.25116 464.728Z" fill="#3A3A3A"/>
<path d="M0.966789 483.801C18.5944 417.223 69.3856 365.797 124.291 344.946C163.246 330.15 204.806 328.175 239.248 358.047C265.261 380.6 281.857 413.13 295.883 446.74C315.303 493.266 334.025 534.776 372.502 562.755C411.393 591.041 461.424 605.659 506.712 607.375C549.187 608.981 589.387 592.866 623.415 563.015C671.359 520.944 704.995 460.709 760.253 429.867C814.933 399.346 885.266 388.821 936.425 433.892C962.685 457.025 990.207 471.472 1010.13 431.213C1020.52 410.239 1023.24 385.069 1026.66 361.546C1029.92 339.069 1034.22 313.134 1052.69 300.443C1071.86 287.273 1091.81 292.358 1112.51 292.133C1136.21 291.873 1150.38 279.107 1168.8 263.388C1190.66 244.718 1248.46 185.828 1276.74 209.625C1277.1 209.925 1277.52 209.29 1277.17 208.989C1247.29 183.847 1190.55 243.822 1168.39 262.746C1158.89 270.858 1149.13 281.123 1138.33 286.522C1120.79 295.29 1102.53 288.852 1084.44 289.556C1064.55 290.328 1048.48 298.071 1037.34 318.416C1027.78 335.871 1027.05 355.71 1024.07 375.556C1021.77 390.837 1019.07 406.453 1013.76 420.743C1010.07 430.687 1004.75 444.102 996.356 449.672C984.86 450.922 973.363 452.173 961.867 453.424C953.863 448.797 946.539 443.022 939.883 436.106C901.291 402.202 855.848 396.585 809.494 408.988C759.434 422.383 719.909 454.182 683.449 496C634.093 552.607 587.808 605.598 514.831 606.493C456.704 607.204 388.395 585.574 345.326 537.257C305.645 492.74 296.275 424.488 258.864 377.77C177.843 276.558 31.226 366.822 0.344433 483.48C0.211894 483.972 0.840013 484.293 0.966789 483.801Z" fill="#3A3A3A"/>
<path d="M0.691005 502.876C21.6379 427.79 75.2008 369.53 140.502 352.301C220.953 331.074 263.769 398.663 292.253 476.702C309.184 523.078 328.828 562.039 366.429 588.446C406.772 616.78 459.31 631.541 505.986 630.318C552.669 629.095 594.609 606.282 629.547 570.301C674.864 523.631 710.067 466.833 766.921 438.226C824.391 409.311 891.824 404.042 943.209 451.19C972.851 478.39 1002.45 482.989 1019.78 437.932C1028.55 415.12 1030.81 389.84 1033.62 365.306C1036.04 344.23 1041.3 321.985 1056.79 308.877C1076.72 292.024 1098.96 302.043 1120.65 301.544C1143.18 301.032 1156.9 285.894 1174.05 270.668C1195.44 251.683 1251.16 193.21 1277.97 216.118C1278.32 216.419 1278.75 215.79 1278.39 215.483C1249.6 190.887 1191.45 254.136 1170.79 272.568C1161.81 280.577 1152.15 291.17 1141.69 296.425C1124.08 305.276 1106.18 297.833 1088.17 298.148C1068.21 298.489 1052.43 306.547 1042.1 327.575C1032.37 347.387 1032.97 370.917 1029.73 392.875C1027.5 407.992 1024.6 423.614 1019.15 437.611C1015.78 446.249 1011.86 454.6 1005.73 460.908C983.039 484.24 961.776 466.997 943.618 450.554C904.156 414.819 857.087 408.552 809.172 421.209C758.559 434.576 717.835 466.56 681.174 509.061C635.096 562.476 592.949 617.579 525.429 627.878C465.533 637.015 390.297 615.283 343.811 568.511C299.382 523.816 293.371 452.447 258.179 400.242C177.815 281.001 33.0593 384.264 0.0628864 502.555C-0.0754149 503.047 0.546941 503.368 0.685242 502.876H0.691005Z" fill="#3A3A3A"/>
<path d="M0.409303 521.943C20.3305 453.384 59.4294 397.29 118.3 372.598C162.285 354.146 206.086 357.809 239.469 399.531C263.153 429.13 274.154 465.822 286.255 503.095C302.05 551.767 323.787 590.687 363.237 616.151C406.767 644.246 463.252 658.618 512.551 651.873C561.129 645.23 601.524 614.832 635.938 575.078C687.623 515.383 731.96 456.015 804.983 435.362C836.003 426.587 868.965 424.735 899.789 435.417C916.125 441.076 930.601 449.974 943.936 462.637C953.426 471.651 962.572 482.319 974.391 487.021C1010.5 501.38 1027.72 455.55 1034.23 421.694C1040.67 388.282 1034.72 340.198 1060.92 317.276C1088.36 293.261 1123.9 322.682 1152.78 302.153C1170.05 289.879 1185.19 271.796 1201.46 257.745C1217.62 243.796 1257.61 203.844 1279.21 222.577C1279.56 222.884 1279.98 222.248 1279.63 221.941C1256.17 201.589 1212.89 246.612 1195.84 261.661C1180.72 275.001 1166.46 292.311 1149.87 302.911C1123.17 319.962 1093.1 296.063 1066.64 312.041C1048.36 323.085 1041.89 347.107 1039.47 369.557C1036.1 400.748 1035.17 432.492 1021.6 460.607C994.709 516.367 958.682 469.581 928.382 448.655C905.707 432.991 879.228 426.963 853.216 427.237C798.857 427.811 745.145 453.787 703.718 494.86C648.587 549.526 608.791 624.83 534.886 646.303C474.437 663.867 396.671 645.326 345.898 602.428C295.521 559.872 290.421 491.012 261.032 431.891C227.016 363.461 170.854 346.075 109.834 375.523C54.8943 402.074 18.7573 456.336 -0.213053 521.629C-0.357117 522.114 0.271001 522.442 0.409303 521.95V521.943Z" fill="#3A3A3A"/>
</g>
<rect x="-1" y="-1" width="1282" height="723" fill="#171717" fill-opacity="0.1"/>
</g>
<defs>
<clipPath id="clip0_828_2776">
<rect width="1280" height="720" fill="white"/>
</clipPath>
</defs>
</svg>
