<svg width="58" height="58" viewBox="0 0 58 58" fill="none" xmlns="http://www.w3.org/2000/svg">
<mask id="mask0_4515_2918" style="mask-type:luminance" maskUnits="userSpaceOnUse" x="0" y="0" width="58" height="58">
<path d="M58 29C58 12.9837 45.0163 0 29 0C12.9837 0 0 12.9837 0 29C0 45.0163 12.9837 58 29 58C45.0163 58 58 45.0163 58 29Z" fill="white"/>
</mask>
<g mask="url(#mask0_4515_2918)">
<path d="M58 0H0V58H58V0Z" fill="#6A6A6A"/>
<path d="M65.7173 61.4804C73.2269 43.7888 64.9728 23.3591 47.2811 15.8494C29.5895 8.33974 9.15978 16.5939 1.65011 34.2855C-5.85955 51.9772 2.39459 72.4069 20.0862 79.9165C37.7779 87.4262 58.2076 79.1721 65.7173 61.4804Z" fill="#CCF900"/>
<path d="M9.4248 39.0439C9.34094 40.6441 10.1081 42.2231 11.5574 43.4337C13.0067 44.6442 15.0196 45.3871 17.1531 45.4989C19.2867 45.6107 21.3661 45.0823 22.9341 44.0299C24.502 42.9775 25.43 41.4873 25.5138 39.8871" fill="black"/>
<path d="M9.12615 29.3487C9.17272 28.4601 8.67023 27.7114 8.0038 27.6765C7.33737 27.6416 6.75937 28.3336 6.7128 29.2222C6.66623 30.1108 7.16873 30.8594 7.83516 30.8943C8.50159 30.9293 9.07959 30.2372 9.12615 29.3487Z" fill="black"/>
<path d="M28.433 30.3604C28.4796 29.4718 27.9771 28.7232 27.3107 28.6882C26.6443 28.6533 26.0663 29.3453 26.0197 30.2339C25.9731 31.1225 26.4756 31.8711 27.142 31.906C27.8085 31.941 28.3865 31.249 28.433 30.3604Z" fill="black"/>
</g>
</svg>
