<svg width="20" height="20" viewBox="0 0 20 20" fill="none" xmlns="http://www.w3.org/2000/svg">
<mask id="mask0_4515_3103" style="mask-type:alpha" maskUnits="userSpaceOnUse" x="0" y="0" width="20" height="20">
<rect width="20" height="20" fill="#D9D9D9"/>
</mask>
<g mask="url(#mask0_4515_3103)">
<path d="M14.5 17C13.8056 17 13.2153 16.7667 12.7292 16.3C12.2431 15.8333 12 15.2667 12 14.6C12 14.5067 12.0069 14.41 12.0208 14.31C12.0347 14.21 12.0556 14.12 12.0833 14.04L6.20833 10.76C5.97222 10.96 5.70833 11.1167 5.41667 11.23C5.125 11.3433 4.81944 11.4 4.5 11.4C3.80556 11.4 3.21528 11.1667 2.72917 10.7C2.24306 10.2333 2 9.66667 2 9C2 8.33333 2.24306 7.76667 2.72917 7.3C3.21528 6.83333 3.80556 6.6 4.5 6.6C4.81944 6.6 5.125 6.65667 5.41667 6.77C5.70833 6.88333 5.97222 7.04 6.20833 7.24L12.0833 3.96C12.0556 3.88 12.0347 3.79 12.0208 3.69C12.0069 3.59 12 3.49333 12 3.4C12 2.73333 12.2431 2.16667 12.7292 1.7C13.2153 1.23333 13.8056 1 14.5 1C15.1944 1 15.7847 1.23333 16.2708 1.7C16.7569 2.16667 17 2.73333 17 3.4C17 4.06667 16.7569 4.63333 16.2708 5.1C15.7847 5.56667 15.1944 5.8 14.5 5.8C14.1806 5.8 13.875 5.74333 13.5833 5.63C13.2917 5.51667 13.0278 5.36 12.7917 5.16L6.91667 8.44C6.94444 8.52 6.96528 8.61 6.97917 8.71C6.99306 8.81 7 8.90667 7 9C7 9.09333 6.99306 9.19 6.97917 9.29C6.96528 9.39 6.94444 9.48 6.91667 9.56L12.7917 12.84C13.0278 12.64 13.2917 12.4833 13.5833 12.37C13.875 12.2567 14.1806 12.2 14.5 12.2C15.1944 12.2 15.7847 12.4333 16.2708 12.9C16.7569 13.3667 17 13.9333 17 14.6C17 15.2667 16.7569 15.8333 16.2708 16.3C15.7847 16.7667 15.1944 17 14.5 17ZM14.5 4.2C14.7361 4.2 14.934 4.12333 15.0938 3.97C15.2535 3.81667 15.3333 3.62667 15.3333 3.4C15.3333 3.17333 15.2535 2.98333 15.0938 2.83C14.934 2.67667 14.7361 2.6 14.5 2.6C14.2639 2.6 14.066 2.67667 13.9062 2.83C13.7465 2.98333 13.6667 3.17333 13.6667 3.4C13.6667 3.62667 13.7465 3.81667 13.9062 3.97C14.066 4.12333 14.2639 4.2 14.5 4.2ZM4.5 9.8C4.73611 9.8 4.93403 9.72333 5.09375 9.57C5.25347 9.41667 5.33333 9.22667 5.33333 9C5.33333 8.77333 5.25347 8.58333 5.09375 8.43C4.93403 8.27667 4.73611 8.2 4.5 8.2C4.26389 8.2 4.06597 8.27667 3.90625 8.43C3.74653 8.58333 3.66667 8.77333 3.66667 9C3.66667 9.22667 3.74653 9.41667 3.90625 9.57C4.06597 9.72333 4.26389 9.8 4.5 9.8ZM14.5 15.4C14.7361 15.4 14.934 15.3233 15.0938 15.17C15.2535 15.0167 15.3333 14.8267 15.3333 14.6C15.3333 14.3733 15.2535 14.1833 15.0938 14.03C14.934 13.8767 14.7361 13.8 14.5 13.8C14.2639 13.8 14.066 13.8767 13.9062 14.03C13.7465 14.1833 13.6667 14.3733 13.6667 14.6C13.6667 14.8267 13.7465 15.0167 13.9062 15.17C14.066 15.3233 14.2639 15.4 14.5 15.4Z" fill="#CCF900"/>
</g>
</svg>
