<svg width="390" height="465" viewBox="0 0 390 465" fill="none" xmlns="http://www.w3.org/2000/svg">
<g opacity="0.1">
<path d="M-253.727 58.0634C-254.047 48.5028 -242.017 35.276 -235.794 30.7228C-231.624 27.673 -227.319 25.6938 -222.771 23.6227C-214.137 19.686 -204.969 16.7605 -195.913 14.3866C-180.071 10.2282 -163.843 8.00568 -147.609 6.99988C-111.113 4.73952 -74.6991 9.04393 -38.8033 16.2035C33.3127 30.5876 103.08 56.1059 174.121 75.5731C244.348 94.8186 315.345 106.331 387.718 99.7989C457.277 93.5207 528.221 78.796 594.685 54.8621C630.184 42.0787 663.416 22.8116 698.789 9.98485C719.08 2.62517 744.457 -4.2262 765.393 3.66883C775.912 7.63256 785.491 15.3059 795.545 20.5242C795.879 20.6972 796.107 20.1132 795.773 19.9402C775.491 9.41165 761.8 -1.20338 738.607 0.110656C705.849 1.96545 675.978 19.3994 646.267 33.1292C568.78 68.9272 484.184 88.4809 400.91 97.8414C314.812 107.521 231.81 91.9363 148.7 67.7105C70.4821 44.9068 -7.54707 16.1332 -88.4481 7.81101C-126.436 3.90676 -165.935 4.54485 -202.954 15.7169C-221.362 21.2704 -255.19 31.1446 -254.294 58.1499C-254.28 58.5609 -253.713 58.4744 -253.727 58.0688V58.0634Z" fill="#CAF600"/>
<path d="M-253.96 73.1554C-254.309 56.008 -235.407 44.3169 -223.605 38.6065C-217.023 35.4215 -210.117 32.8799 -203.236 30.6412C-184.813 24.6496 -165.659 21.5295 -146.549 20.0964C-109.438 17.3062 -72.2199 21.3131 -35.6801 28.5485C38.4506 43.23 108.528 74.6533 181.205 95.6237C249.336 115.286 321.524 128.269 391.301 112.863C407.636 109.256 423.923 105.444 440.389 102.627C457.485 99.701 475.389 100.28 492.262 96.4295C523.256 89.3564 555.103 75.8754 585.551 65.7903C621.461 53.8937 654.931 37.4006 689.756 22.3784C711.002 13.218 735.512 4.59299 758.608 7.90782C772.149 9.85454 784.392 19.1177 796.586 25.6554C796.92 25.8339 797.143 25.2444 796.814 25.0714C773.205 12.4123 757.944 4.01439 730.984 8.5351C696.987 14.2293 666.597 33.956 634.774 47.2045C597.145 62.8702 557.932 71.9711 519.76 85.5333C481.849 99.0035 442.491 100.793 403.379 109.483C231.891 147.607 81.4993 36.6273 -85.5041 20.3776C-122.315 16.7924 -160.356 17.6847 -196.32 27.8995C-215.929 33.4693 -255.123 44.0952 -254.527 73.2419C-254.517 73.6529 -253.951 73.5663 -253.96 73.1608V73.1554Z" fill="#CAF600"/>
<path d="M-254.197 88.2488C-254.313 71.4584 -236.351 59.7132 -224.747 53.7216C-218.364 50.4284 -211.667 47.7408 -204.974 45.3507C-185.849 38.521 -165.824 34.8168 -145.842 33.0215C-109.21 29.7229 -72.2195 33.0918 -36.0816 40.127C40.0152 54.9329 109.865 92.9047 184.112 115.087C247.438 134.002 317.839 148.392 382.105 128.162C401.346 122.105 420.451 115.752 440.249 112.318C458.88 109.084 478.678 113.437 496.839 108.906C507.072 106.353 515.494 98.8044 524.976 94.2188C540.381 86.7726 557.264 82.5006 573.362 77.3742C612.991 64.7476 650.044 49.1468 688.134 31.9129C709.549 22.2226 732.616 13.5651 756.003 14.4411C771.311 15.0143 784.068 23.2933 797.618 30.799C797.947 30.9828 798.17 30.3934 797.846 30.215C772.88 16.377 756.947 10.3746 728.727 16.8096C694.861 24.537 664.825 44.5233 632.363 56.9066C595.6 70.9284 554.629 77.3742 519.586 96.3223C509.517 101.768 503.672 105.975 491.778 107.511C482.489 108.711 473.985 108.435 464.764 108.841C445.615 109.684 426.573 113.897 408.058 119.239C388.706 124.826 369.828 132.531 349.948 135.581C326.033 139.247 301.339 136.965 277.44 134.105C233.354 128.827 189.942 117.709 147.799 102.417C70.3949 74.3244 -3.55656 39.3699 -85.6683 32.4861C-123.172 29.3443 -161.862 30.9558 -198.218 42.4306C-217.657 48.5682 -254.962 59.8483 -254.764 88.3299C-254.764 88.7409 -254.192 88.6544 -254.197 88.2488Z" fill="#CAF600"/>
<path d="M-254.435 103.427C-254.319 86.4633 -237.18 74.9074 -225.581 68.667C-217.929 64.5519 -209.924 61.1181 -201.826 58.2629C-181.878 51.2277 -161.272 47.2153 -140.437 45.3605C-101.674 41.9159 -62.1369 45.4741 -24.086 54.2505C50.3739 71.4303 117.264 114.61 190.581 136.126C227.024 146.822 264.543 153.539 302.191 155.637C333.898 157.405 360.185 149.142 389.708 137.213C408.692 129.54 428.166 123.348 448.283 120.839C464.977 118.757 482.15 124.5 498.388 121.807C506.771 120.417 512.457 115.453 519.319 110.446C535.025 98.9872 551.185 92.3846 569.114 86.4255C609.441 73.0255 647.947 59.8581 686.695 41.4833C706.556 32.0633 727.851 22.9732 749.566 21.2536C768.013 19.7936 782.677 26.7964 798.649 35.9297C798.979 36.119 799.201 35.5296 798.877 35.3457C772.773 20.4209 755.891 17.0736 726.557 25.1741C691.858 34.7563 660.95 55.9269 626.798 67.3909C594.2 78.3358 554.663 84.0191 525.46 104.568C515.774 111.381 510.055 117.724 498.194 119.925C487.99 121.818 478.663 119.222 468.449 118.974C449.46 118.508 430.296 122.575 412.082 128.291C396.866 133.066 382.482 140.263 367.484 145.708C342.785 154.68 319.088 156.41 293.251 154.371C248.905 150.878 205.008 141.507 162.652 126.409C85.9404 99.0683 15.7277 56.3432 -65.4882 46.415C-107.142 41.3265 -150.452 41.8564 -191.138 54.0613C-211.822 60.2799 -254.793 72.8471 -255.001 103.34C-255.001 103.746 -254.44 103.838 -254.435 103.427Z" fill="#CAF600"/>
<path d="M-254.667 118.521C-254.289 100.395 -235.581 88.6388 -223.556 82.0632C-217.11 78.5375 -210.461 75.5201 -203.695 72.8488C-184.396 65.2241 -164.206 60.7467 -143.88 58.3457C-103.103 53.5276 -60.4417 56.2584 -20.4875 66.841C52.4663 86.1622 116.262 133.294 188.601 154.957C225.732 166.075 265.313 173.878 303.848 174.203C337.07 174.478 363.058 160.013 393.156 146.5C410.644 138.648 428.994 132.894 447.77 130.639C465.718 128.487 482.14 135.501 499.405 134.695C508.767 134.257 515.295 129.477 522.307 122.831C536.681 109.209 550.803 100.963 568.858 94.3979C608.516 79.9759 647.158 69.9395 685.417 51.0617C723.579 32.2272 760.851 18.1838 799.71 41.074C800.035 41.2632 800.257 40.6792 799.938 40.49C774.469 25.4894 756.487 23.9969 728.248 32.6057C689.902 44.2915 655.711 67.1222 617.113 78.5159C586.636 87.514 550.764 94.0788 526.346 117.645C506.36 136.934 489.366 129.688 466.168 129.001C451.237 128.563 436.21 131.229 421.763 135.279C377.882 147.581 343.216 175.392 296.099 173.267C250.484 171.212 204.302 161.176 161.049 145.077C84.1778 116.466 16.4301 67.3276 -65.827 57.9726C-105.815 53.4248 -147.154 54.6469 -186.169 66.1542C-207.928 72.5676 -254.565 86.3893 -255.234 118.429C-255.243 118.835 -254.677 118.927 -254.667 118.516V118.521Z" fill="#CAF600"/>
<path d="M-254.904 133.612C-254.231 123.408 -240.652 108.208 -233.721 102.622C-229.246 99.0149 -223.566 96.3219 -218.587 93.6452C-211.09 89.6111 -203.279 86.2152 -195.375 83.3059C-176.018 76.1842 -155.813 71.9446 -135.546 69.7924C-92.8746 65.2555 -48.1017 68.7055 -7.03375 82.9003C61.7067 106.661 120.694 154.929 190.795 175.261C224.899 185.152 261.463 192.42 296.792 192.23C330.935 192.046 356.951 175.597 387.069 159.877C405.06 150.489 424.127 143.681 443.876 140.875C454.686 139.339 465.776 138.744 476.586 140.583C485.482 142.091 494.335 147.25 503.425 147.142C511.45 147.05 517.474 143.757 523.659 138.328C536.323 127.21 543.51 116.406 559.157 108.597C597.663 89.3786 639.613 83.9764 677.848 64.0118C716.945 43.5982 759.533 21.238 800.747 46.2047C801.071 46.3994 801.294 45.8153 800.974 45.6207C775.118 29.955 753.94 31.5394 726.175 41.2784C708.319 47.5404 691.374 56.3168 674.433 65.0987C651.405 77.0386 627.573 82.8733 603.16 90.1356C575.798 98.2794 548.973 108.435 529.514 131.179C510.99 152.836 485.09 138.998 462.362 138.847C446.138 138.733 429.919 142.124 414.436 147.348C374.87 160.699 343.366 190.154 300.473 191.581C254.271 193.122 204.452 181.107 160.948 164.668C87.5389 136.927 24.5518 82.5164 -53.8358 70.9713C-95.9692 64.7634 -140.093 65.9747 -181.326 78.0227C-205.153 84.9714 -253.253 99.8746 -255.471 133.52C-255.495 133.926 -254.933 134.018 -254.904 133.607V133.612Z" fill="#CAF600"/>
<path d="M-255.142 148.699C-254.338 138.576 -241.48 123.635 -234.671 117.844C-230.351 114.172 -224.874 111.333 -220.055 108.532C-212.805 104.319 -205.25 100.745 -197.579 97.6086C-177.568 89.427 -156.487 84.5386 -135.333 81.9592C-91.9595 76.6706 -46.3344 79.7853 -5.01938 96.2027C62.2973 122.954 118.034 174.028 188.034 194.312C222.545 204.31 260.973 212.822 296.777 209.972C332.707 207.112 358.878 184.757 390.459 168.15C408.276 158.784 427.754 152.095 447.426 150.138C458.187 149.067 469.272 148.883 479.927 151.219C488.983 153.209 498.073 159.309 507.473 159.59C530.187 160.271 539.524 130.449 556.92 119.482C595.557 95.1374 640.533 93.1258 680.283 71.8849C717.748 51.8661 761.809 26.4777 801.768 51.3362C802.088 51.5363 802.311 50.9469 801.996 50.7522C775.52 34.2808 751.896 39.1476 724.228 50.0384C708 56.4247 692.488 64.7361 676.961 72.961C654.17 85.0415 630.518 89.838 606.313 96.7975C588.839 101.816 572.688 109.63 556.702 118.893C543.815 126.361 542.289 132.103 532.846 144.108C515.551 166.095 484.833 149.11 462.226 148.742C445.978 148.477 429.667 151.744 414.174 157.119C374.264 170.968 343.013 204.359 300.24 208.956C255.336 213.785 204.297 200.904 161.965 185.06C87.0252 157.016 25.7962 94.3371 -54.2961 82.3377C-94.8217 76.265 -137.294 78.1198 -176.904 89.7352C-201.71 97.0084 -252.929 113.599 -255.708 148.613C-255.742 149.018 -255.176 149.11 -255.142 148.699Z" fill="#CAF600"/>
<path d="M-255.374 163.793C-253.766 146.542 -236.666 133.272 -224.331 125.312C-216.403 120.197 -208.258 115.719 -199.773 111.88C-180.382 103.104 -159.814 97.5879 -139.105 94.4353C-96.2601 87.9192 -50.6204 89.9254 -9.85263 107.024C26.5129 122.279 58.2243 147.283 91.3064 169.449C120.722 189.159 151.945 203.954 185.191 213.488C219.189 223.232 257.496 231.928 292.719 227.494C325.297 223.389 349.58 203.468 377.247 185.872C395.636 174.175 415.114 165.615 436.06 161.586C461.025 156.779 479.98 163.241 503.526 170.082C532.913 178.62 537.054 147.424 555.583 130.85C590.927 99.2264 640.203 102.828 679.731 81.4193C716.499 61.5033 762.967 31.0479 802.814 56.4743C803.134 56.6798 803.357 56.0903 803.042 55.8902C777.282 39.4513 752.424 46.3838 725.986 57.4638C708.009 64.9966 691.122 74.9681 673.755 83.9987C650.519 96.0846 625.384 97.7393 601.165 105.905C586.941 110.701 573.734 118.072 560.973 126.47C556.363 129.503 551.96 132.175 548.445 136.436C541.815 144.471 539.335 158.845 530.099 164.414C517.474 172.034 496.543 164.934 483.346 161.311C476.411 159.407 469.195 158.618 462.066 158.482C444.554 158.147 427.003 161.992 410.431 168.151C371.135 182.751 341.056 217.765 299.494 225.801C254.871 234.426 201.42 220.031 159.141 204.263C83.7998 176.16 25.7961 106.37 -54.7611 93.6025C-94.7927 87.2595 -137.265 90.0498 -176.183 102.292C-201.569 110.279 -252.643 128.33 -255.941 163.706C-255.98 164.112 -255.413 164.204 -255.374 163.793Z" fill="#CAF600"/>
<path d="M-255.612 178.885C-250.585 132.098 -171.413 111.706 -139.115 106.266C-94.1098 98.6959 -47.0124 101.297 -5.14532 122.424C32.4697 141.405 63.6048 171.417 98.7306 194.972C126.635 213.688 157.374 226.395 189.017 234.62C222.705 243.375 260.629 251.546 295.063 243.472C330.634 235.134 355.759 207.198 387.306 189.272C404.75 179.36 423.928 172.704 443.358 170.081C468.522 166.685 484.997 174.31 508.161 182.416C529.276 189.808 539.635 172.617 549.554 154.761C576.596 106.066 631.743 115.075 673.237 94.2239C711.549 74.9676 761.824 34.1351 803.851 61.6109C804.165 61.8164 804.388 61.227 804.078 61.0269C776.633 43.0846 747.784 55.2841 720.688 68.1324C702.169 76.9143 684.778 88.9569 666.002 96.9385C643.768 106.391 619.326 106.034 597.014 115.205C584.04 120.542 563.99 130.476 554.76 142.205C538.192 163.257 541.166 193.831 502.403 179.144C471.137 167.296 444.283 165.56 412.068 177.197C371.881 191.717 342.271 228.915 301.436 240.936C256.813 254.071 203.192 240.433 160.148 225.081C83.8482 197.865 28.9149 121.24 -51.1822 105.645C-91.9111 97.7172 -136.156 101.421 -175.66 114.67C-201.763 123.425 -252.348 143.124 -256.178 178.793C-256.222 179.198 -255.655 179.29 -255.612 178.879V178.885Z" fill="#CAF600"/>
<path d="M-255.849 193.977C-250.096 146.812 -172.962 124.203 -139.207 117.995C-94.473 109.771 -48.1698 112.269 -7.09212 135.089C30.6197 156.043 60.2148 189.527 95.6893 214.174C123.308 233.366 154.187 245.89 185.826 253.871C220.453 262.61 258.935 270.169 293.862 259.316C330.411 247.955 356.272 215.888 389.63 197.519C407.307 187.785 427.086 181.258 446.719 179.387C472.202 176.959 488.712 185.617 511.788 194.502C533.165 202.732 545.824 185.092 554.338 165.328C576.853 113.064 631.612 122.743 672.564 103.866C711.041 86.1288 762.371 38.2989 804.824 66.6994C805.134 66.9103 805.492 66.4074 805.177 66.1965C780.513 49.6927 753.891 60.7295 729.483 72.2097C712.261 80.3102 696.12 90.6711 679.286 99.626C656.321 111.842 631.491 110.933 607.625 119.072C592.689 124.165 575.788 133.591 564.542 145.963C553.709 157.876 552.183 181.296 538.284 189.965C529.969 195.15 510.863 192.549 502.655 189.089C498.591 187.374 494.911 184.865 490.77 183.286C484.431 180.864 477.767 179.425 471.113 178.657C454.685 176.765 437.9 179.058 421.976 183.627C379.79 195.734 351.943 230.164 313.713 250.41C267.783 274.733 210.67 262.264 163.839 246.879C122.655 233.349 88.6186 209.432 54.9264 180.334C25.0697 154.551 -6.46739 129.308 -43.7095 119.077C-86.0802 107.435 -133.967 112.22 -175.258 126.945C-202.015 136.484 -251.994 157.665 -256.416 193.89C-256.464 194.296 -255.897 194.388 -255.849 193.977Z" fill="#CAF600"/>
<path d="M-256.082 209.069C-252.459 182.626 -222.661 164.143 -203.386 153.014C-183.404 141.474 -161.528 133.915 -139.43 129.513C-92.8847 120.239 -46.3248 124.024 -4.95657 150.851C29.6752 173.309 56.2047 207.209 89.4998 231.618C117.71 252.302 149.852 265.242 182.702 273.202C216.191 281.325 252.3 287.781 285.871 276.923C324.658 264.377 350.906 229.017 386.11 208.966C403.806 198.886 423.308 192.154 443.028 189.558C469.795 186.038 488.257 193.419 511.982 205.046C533.402 215.542 547.471 202.85 556.987 181.393C566.959 158.908 575.599 143.832 597.13 132.357C619.853 120.244 644.988 122.986 668.491 114.566C708.861 100.101 761.911 41.7753 805.87 71.8467C806.18 72.0576 806.538 71.5601 806.224 71.3438C779.956 53.3745 749.092 70.138 724.301 83.1161C705.457 92.9795 687.567 106.617 667.73 113.723C645.681 121.618 621.713 119.504 600.298 130.086C588.302 136.013 572.397 146.293 564.755 158.422C562.469 162.05 561.186 168.923 559.675 172.984C558.309 176.656 556.953 180.355 555.297 183.875C548.013 199.378 543.848 202.601 527.363 203.575C510.209 204.586 505.691 198.562 490.877 193.079C483.355 190.294 475.544 188.736 467.645 188.093C451.058 186.746 434.239 189.466 418.262 194.387C375.063 207.69 347.289 244.369 308.468 266.302C264.678 291.042 213.348 281.936 167.689 268.546C122.345 255.255 85.9209 230.272 50.6111 196.507C22.2316 169.372 -7.70735 142.199 -44.3828 130.751C-86.0852 117.735 -134.461 123.624 -175.04 138.998C-202.533 149.413 -251.636 172.395 -256.648 208.977C-256.706 209.382 -256.14 209.469 -256.082 209.063V209.069Z" fill="#CAF600"/>
<path d="M-256.319 224.16C-249.108 176.801 -178.88 149.947 -143.42 141.712C-94.1001 130.253 -45.4093 135.136 -3.07243 167.073C29.3364 191.515 53.4251 227.032 85.8969 251.29C112.979 271.52 144.099 283.93 175.782 291.636C210.249 300.018 246.89 306.015 281.13 293.447C315.916 280.686 340.228 250.084 370.351 228.47C407.467 201.833 461.529 185.686 503.023 208.895C525.804 221.635 543.413 229.406 558.479 200.292C562.765 192.013 564.562 182.863 568.01 174.254C573.323 160.995 583.517 150.764 594.462 143.02C618.667 125.9 645.453 131.664 671.382 122.336C710.242 108.358 764.483 47.3389 806.911 76.9777C807.221 77.194 807.575 76.6911 807.265 76.4748C780.629 57.8674 747.024 78.8163 722.761 92.4812C703.467 103.345 684.594 118.751 663.222 123.964C642.049 129.128 620.139 127.111 600.356 138.451C590.549 144.075 575.497 155.344 569.72 166.575C556.009 193.235 557.685 237.149 512.312 214.173C479.133 197.371 450.463 193.283 414.547 205.202C375.015 218.32 348.742 249.068 315.316 273.861C269.163 308.097 215.823 302.575 164.401 288.024C119.371 275.283 82.2405 251.177 48.6209 215.736C19.8297 185.383 -9.92035 153.814 -49.0221 141.344C-90.3274 128.171 -138.587 135.552 -178.241 152.262C-205.725 163.839 -251.374 187.881 -256.885 224.069C-256.948 224.474 -256.382 224.561 -256.319 224.155V224.16Z" fill="#CAF600"/>
<path d="M-256.556 239.249C-246.531 188.331 -176.023 159.639 -136.398 151.344C-84.7242 140.529 -38.2854 150.332 2.55984 188.158C30.2662 213.817 51.1344 247.668 81.0975 270.445C109.007 291.664 141.455 304.026 174.353 311.429C209.454 319.329 245.374 323.499 279.459 308.557C315.737 292.654 340.606 257.613 373.445 235.512C417.027 206.182 469.432 197.865 514.602 225.925C534.318 238.173 550.474 236.518 562.542 213.649C573.768 192.371 573.773 171.092 592.554 154.496C617.684 132.293 645.855 139.934 674.206 130.124C711.632 117.173 766.986 52.9046 807.953 82.1108C808.263 82.3325 808.616 81.8296 808.306 81.6079C781.331 62.3786 744.941 87.7725 721.293 101.967C700.352 114.54 682.201 128.897 658.117 132.926C639.487 136.04 620.759 134.651 603.741 145.179C592.52 152.117 579.667 164.051 574.107 177.03C570.824 184.697 569.889 193.961 566.915 201.899C564.736 207.707 562.431 213.487 559.055 218.614C548.11 235.226 526.278 232.333 512.181 223.464C482.518 204.814 450.404 203.862 417.753 213.801C373.833 227.168 345.88 261.247 309.688 289.382C265.904 323.423 217.009 321.519 166.919 309.017C120.398 297.402 80.4922 274.695 47.0953 236.567C19.8926 205.511 -6.23976 172.184 -43.4237 155.913C-83.5522 138.355 -132.035 145.374 -171.698 161.331C-202.456 173.698 -249.422 200.055 -257.118 239.162C-257.195 239.562 -256.629 239.649 -256.551 239.249H-256.556Z" fill="#CAF600"/>
<path d="M-256.788 254.341C-245.843 202.261 -178.207 171.589 -136.882 162.348C-83.8133 150.484 -36.9967 163.559 2.1922 205.652C28.7217 234.144 48.2871 269.347 79.4756 292.291C109.279 314.214 144.153 325.797 179.075 332.367C213.872 338.915 248.213 339.364 280.563 321.627C318.125 301.035 343.856 261.685 380.933 240.071C422.529 215.829 473.428 207.663 514.971 235.404C535.161 248.885 553.051 252.503 565.962 226.633C574.689 209.156 575.391 187.769 586.423 171.595C608.807 138.776 642.005 147.045 673.136 138.874C691.365 134.088 707.298 120.234 723.381 110.149C745.857 96.0513 783.545 68.754 808.985 87.2424C809.29 87.4642 809.648 86.9667 809.338 86.7395C782.15 66.9803 743.063 96.9003 720.001 111.571C699.394 124.684 681.577 138.376 657.072 140.685C637.056 142.573 617.888 142.632 600.744 155.832C565.284 183.135 575.091 273.695 512.632 232.949C483.705 214.077 450.429 213.871 418.567 223.178C376.899 235.35 348.195 264.794 315.723 294.552C272.253 334.389 225.533 341.63 171.293 330.161C122.19 319.778 77.7999 298.148 43.7154 256.504C18.1206 225.238 -4.00676 191.246 -38.653 171.416C-79.3384 148.126 -130.577 155.291 -171.959 172.828C-203.579 186.233 -248.996 214.482 -257.355 254.255C-257.437 254.655 -256.87 254.741 -256.788 254.341Z" fill="#CAF600"/>
<path d="M-257.026 269.433C-245.132 216.288 -180.348 183.291 -137.381 173.276C-81.2035 160.185 -34.0576 178.624 3.38785 226.611C27.5395 257.558 45.8894 291.95 77.7074 314.289C108.484 335.892 144.729 346.68 180.411 352.374C215.624 357.993 250.043 354.24 281.275 333.962C319.384 309.217 345.831 267.687 386.303 246.543C406.014 236.247 427.521 229.488 449.261 227.795C479.51 225.438 498.717 235.701 524.147 251.518C545.263 264.648 562.286 259.132 572.717 234.538C580.747 215.612 581.226 193.452 592.825 176.407C616.061 142.253 648.853 155.859 679.978 145.671C695.418 140.62 709.123 128.442 722.795 119.374C744.142 105.211 784.813 73.7178 810.02 92.3847C810.325 92.6118 810.679 92.1089 810.374 91.8818C785.627 73.561 749.372 101.334 728.393 114.95C707.597 128.442 688.754 144.989 664.098 147.812C642.76 150.256 622.624 147.866 604.4 162.764C573.24 188.234 580.33 281.838 524.704 250.707C509.27 242.066 497.226 231.964 479.573 228.633C460.41 225.021 440.573 226.898 421.763 231.975C378.947 243.526 348.669 272.007 316.255 303.69C273.444 345.534 228.787 360.789 172.328 350.33C122.102 341.029 74.0122 320.621 39.9519 276.847C14.2021 243.748 -5.48921 206.517 -40.5859 184.124C-80.54 158.638 -131.095 165.927 -172.289 184.227C-204.843 198.692 -248.507 228.763 -257.592 269.347C-257.68 269.747 -257.113 269.828 -257.026 269.433Z" fill="#CAF600"/>
<path d="M-257.263 284.526C-244.366 230.283 -182.856 194.815 -137.962 184.016C-78.1761 169.632 -31.8778 194.825 3.52884 248.495C24.9975 281.038 42.248 313.289 74.0321 334.616C106.116 356.144 144.816 366.991 181.685 372.15C214.952 376.806 247.288 369.462 275.929 349.849C315.617 322.671 342.8 278.442 385.752 256.18C405.603 245.889 427.26 239.232 449.117 237.583C480.228 235.236 501.687 245.5 527.533 263.339C549.782 278.697 567.725 270.807 578.195 245.148C585.643 226.903 586.007 205.754 594.884 188.315C614.473 149.835 647.173 161.677 678.967 154.29C694.992 150.565 708.271 138.517 721.885 128.983C742.627 114.458 785.879 78.5468 811.057 97.5219C811.362 97.7491 811.716 97.2516 811.411 97.019C785.695 77.633 745.494 111.841 724.35 126.501C702.837 141.415 685.485 154.577 659.12 155.464C639.109 156.134 620.658 156.589 605.151 172.476C596.743 181.09 591.784 191.429 588.578 203.45C585.663 214.379 584.045 225.654 580.621 236.442C579.435 240.189 578.176 244.05 576.597 247.636C568.664 265.632 552.687 272.516 534.594 267.206C524.535 264.253 514.927 251.637 504.805 246.554C496.79 242.531 488.267 239.849 479.608 238.254C459.219 234.501 438.002 236.912 418.107 242.623C376.652 254.525 346.48 282.093 315.471 313.683C274.398 355.522 230.982 380.18 174.097 370.252C125.44 361.762 73.7754 344.777 39.7248 302.614C11.2581 267.362 -5.5226 223.356 -42.5564 196.983C-81.6001 169.188 -131.816 176.424 -172.773 195.453C-206.301 211.043 -247.984 243.028 -257.824 284.439C-257.916 284.834 -257.35 284.921 -257.258 284.526H-257.263Z" fill="#CAF600"/>
<path d="M-257.515 299.7C-245.282 251.146 -197.124 214.856 -156.491 200.104C-128.049 189.776 -94.226 184.395 -65.7883 197.6C-40.1451 209.508 -20.2891 233.036 -4.9612 258.246C15.9893 292.697 31.632 328.047 63.9391 351.153C95.4956 373.719 134.094 384.869 170.944 390.125C206.263 395.16 240.478 387.108 270.538 365.613C310.841 336.796 338.257 290.859 382.187 267.412C427.715 243.116 481.293 237.216 524.429 269.737C544.919 285.186 565.298 292.46 579.977 264.535C588.384 248.545 590.36 229.586 594.292 211.93C598.467 193.209 608.119 176.251 624.561 168.172C639.419 160.872 654.66 164.49 670.171 163.327C690.061 161.835 702.266 152.577 718.465 140.626C738.423 125.896 786.654 83.1332 812.108 102.654C812.408 102.887 812.767 102.384 812.461 102.152C786.223 82.0246 741.663 122.808 720.736 138.182C712.973 143.887 705.433 150.252 697.156 155.005C682.821 163.241 669.658 162.213 654.224 162.505C636.891 162.83 621.611 165.323 608.913 179.555C579.246 212.801 593.929 320.26 524.782 269.24C492.964 245.765 458.342 241.683 421.265 251.395C377.484 262.864 345.376 291.173 313.258 324.954C273.594 366.667 231.432 396.712 174.653 390.033C126.587 384.377 73.4409 367.127 38.843 327.533C7.87741 292.092 -5.67798 242.456 -42.2275 212.152C-108.45 157.244 -235.693 210.751 -258.038 299.452C-258.135 299.841 -257.612 300.1 -257.515 299.706V299.7Z" fill="#CAF600"/>
<path d="M-257.752 314.793C-244.086 263.497 -197.589 225 -153.673 209.502C-124.737 199.287 -92.0373 195.918 -64.1614 211.589C-39.3705 225.525 -21.6648 251.492 -7.96901 277.61C9.88684 311.667 24.372 345.459 54.5241 368.268C86.1 392.158 126.258 403.99 163.8 408.652C199.826 413.118 234.889 403.812 265.08 381.333C304.036 352.326 330.866 307.125 372.627 282.109C416.736 255.683 478.44 242.883 522.273 276.664C543.805 293.26 566.847 309.634 584.393 277.724C593.057 261.966 595.392 242.888 598.656 225.141C601.615 209.043 605.751 193.393 617.49 182.259C634.183 166.426 653.424 171.519 673.13 170.779C691.712 170.076 703.181 161.797 717.961 150.398C737.774 135.116 787.694 87.9566 813.144 107.802C813.444 108.035 813.798 107.537 813.497 107.299C788.033 87.4428 742.268 130.941 722.727 145.936C714.034 152.609 704.832 161.359 695.02 165.95C680.133 172.909 664.786 168.664 649.419 169.383C632.89 170.162 618.826 176.494 608.942 191.825C600.336 205.171 599.043 220.771 596.176 236.394C593.958 248.501 591.401 261.063 586.418 272.181C583.793 278.032 579.265 286.181 574.107 290.248C554.285 305.876 539.209 289.766 525.281 278.432C494.078 253.038 453.925 251.849 417.555 262.058C372.036 274.836 339.482 305.383 306.424 341.025C267.172 383.333 224.385 414.302 167.427 408.397C119.899 403.471 67.0285 386.513 32.9924 347.2C2.55951 312.051 -8.10944 261.739 -41.4045 228.764C-108.934 161.883 -234.134 223.908 -258.276 314.538C-258.377 314.928 -257.854 315.182 -257.752 314.793Z" fill="#CAF600"/>
<path d="M-257.989 329.885C-243.175 277.204 -200.489 236.512 -154.346 220.014C-121.608 208.307 -86.6807 206.744 -57.7345 230.38C-35.8736 248.225 -21.926 273.965 -10.1383 300.56C6.18234 337.374 21.917 370.22 54.2532 392.358C86.9381 414.74 128.984 426.307 167.045 427.664C202.742 428.935 236.526 416.184 265.124 392.564C305.417 359.275 333.685 311.613 380.124 287.208C426.078 263.058 485.186 254.731 528.182 290.393C550.251 308.698 573.381 320.129 590.128 288.274C598.855 271.678 601.145 251.762 604.012 233.149C606.753 215.364 610.371 194.842 625.893 184.8C642 174.38 658.766 178.403 676.167 178.224C696.081 178.019 707.995 167.918 723.473 155.48C741.847 140.707 790.421 94.11 814.19 112.939C814.491 113.177 814.844 112.674 814.544 112.436C789.433 92.5418 741.755 139.998 723.129 154.972C715.148 161.391 706.944 169.513 697.863 173.785C683.126 180.723 667.774 175.629 652.572 176.186C635.859 176.797 622.357 182.924 612.991 199.022C604.957 212.833 604.346 228.531 601.838 244.234C599.905 256.326 597.634 268.682 593.174 279.989C590.07 287.857 585.604 298.472 578.548 302.879C568.887 303.869 559.225 304.859 549.563 305.848C542.836 302.187 536.681 297.618 531.088 292.145C498.654 265.318 460.463 260.873 421.507 270.688C379.436 281.287 346.219 306.448 315.577 339.537C274.098 384.328 235.199 426.258 173.869 426.966C125.018 427.529 67.61 410.414 31.414 372.183C-1.93439 336.958 -9.80896 282.953 -41.2492 245.986C-109.341 165.901 -232.559 237.324 -258.512 329.631C-258.624 330.02 -258.096 330.274 -257.989 329.885Z" fill="#CAF600"/>
<path d="M-258.222 344.978C-240.618 285.565 -195.603 239.466 -140.723 225.833C-73.1109 209.037 -37.128 262.518 -13.1894 324.267C1.03912 360.963 17.5486 391.791 49.1487 412.686C83.054 435.106 127.207 446.786 166.435 445.818C205.667 444.85 240.914 426.8 270.277 398.329C308.361 361.401 337.947 316.458 385.727 293.822C434.026 270.943 490.697 266.774 533.882 304.081C558.794 325.603 583.672 329.242 598.235 293.59C605.606 275.54 607.504 255.537 609.867 236.124C611.901 219.447 616.318 201.845 629.341 191.474C646.088 178.139 664.776 186.066 683.005 185.671C701.941 185.266 713.472 173.288 727.885 161.24C745.862 146.218 792.688 99.9509 815.217 118.077C815.517 118.315 815.871 117.817 815.571 117.574C791.38 98.1123 742.51 148.159 725.143 162.743C717.598 169.081 709.481 177.463 700.692 181.621C685.892 188.624 670.845 182.735 655.706 182.984C638.935 183.254 625.67 189.63 616.991 206.269C608.816 221.945 609.315 240.563 606.594 257.938C604.719 269.899 602.283 282.261 597.702 293.336C594.874 300.171 591.576 306.779 586.423 311.77C567.356 330.232 549.486 316.588 534.226 303.578C501.061 275.302 461.504 270.343 421.235 280.358C378.7 290.935 344.475 316.242 313.664 349.872C274.94 392.137 239.519 435.738 182.775 443.887C132.437 451.117 69.2081 433.921 30.1403 396.912C-7.1987 361.547 -12.2499 305.076 -41.8256 263.767C-109.365 169.416 -231.019 251.124 -258.75 344.724C-258.866 345.113 -258.343 345.367 -258.227 344.978H-258.222Z" fill="#CAF600"/>
<path d="M-258.459 360.065C-241.717 305.816 -208.858 261.431 -159.383 241.894C-122.416 227.293 -85.6054 230.192 -57.5503 263.205C-37.6459 286.625 -28.4008 315.658 -18.2306 345.151C-4.95618 383.664 13.3113 414.46 46.466 434.608C83.0494 456.839 130.52 468.211 171.951 462.873C212.777 457.617 246.726 433.565 275.648 402.109C319.084 354.874 356.345 307.898 417.715 291.557C443.784 284.613 471.486 283.148 497.391 291.6C511.12 296.077 523.286 303.118 534.492 313.138C542.469 320.271 550.154 328.712 560.087 332.432C590.433 343.794 604.908 307.531 610.381 280.742C615.786 254.304 610.793 216.257 632.804 198.12C655.866 179.117 685.737 202.397 710.01 186.153C724.519 176.441 737.241 162.132 750.923 151.014C764.502 139.978 798.112 108.365 816.263 123.187C816.559 123.43 816.912 122.928 816.617 122.684C796.901 106.581 760.526 142.206 746.196 154.113C733.493 164.668 721.507 178.366 707.559 186.753C685.127 200.245 659.851 181.335 637.617 193.977C622.251 202.716 616.812 221.724 614.778 239.487C611.95 264.167 611.165 289.286 599.765 311.532C577.163 355.652 546.885 318.632 521.421 302.074C502.364 289.68 480.111 284.911 458.25 285.127C412.567 285.581 367.426 306.136 332.61 338.635C286.278 381.89 252.833 441.476 190.722 458.466C139.92 472.364 74.5646 457.693 31.8936 423.75C-10.4432 390.077 -14.7292 335.59 -39.4281 288.81C-68.0159 234.664 -115.215 220.907 -166.497 244.208C-212.669 265.217 -243.039 308.153 -258.982 359.816C-259.103 360.2 -258.575 360.46 -258.459 360.07V360.065Z" fill="#CAF600"/>
</g>
</svg>
