<svg width="512" height="512" viewBox="0 0 512 512" fill="none" xmlns="http://www.w3.org/2000/svg">
<path d="M467.51 248.83C449.11 165.65 421.82 112.59 378.08 99.6604C369.609 97.1891 360.824 95.9564 352 96.0004C325.11 96.0004 303.89 112 256 112C208.11 112 186.85 96.0004 160 96.0004C150.807 95.9528 141.653 97.1846 132.8 99.6604C89 112.59 61.94 165.7 43.33 248.83C24.33 333.74 27.77 400.83 64.91 413.71C90.91 422.71 114.16 404.1 136.18 376.71C161.18 345.51 191.97 335.91 256 335.91C320.03 335.91 349.62 345.51 374.66 376.71C396.66 404.12 420.77 422.5 446.08 413.87C487.1 399.86 486.52 334.74 467.51 248.83Z" stroke="#CCF900" stroke-width="32" stroke-miterlimit="10"/>
<path d="M292 244C303.046 244 312 235.046 312 224C312 212.954 303.046 204 292 204C280.954 204 272 212.954 272 224C272 235.046 280.954 244 292 244Z" fill="#CCF900"/>
<path d="M336 288C332.042 288 328.173 286.826 324.883 284.626C321.593 282.426 319.03 279.3 317.518 275.642C316.005 271.985 315.612 267.961 316.388 264.08C317.164 260.199 319.074 256.635 321.876 253.84C324.678 251.045 328.246 249.144 332.129 248.378C336.012 247.612 340.035 248.015 343.688 249.537C347.342 251.058 350.462 253.629 352.654 256.925C354.845 260.221 356.01 264.092 356 268.05C355.987 273.346 353.874 278.42 350.124 282.16C346.375 285.9 341.296 288 336 288Z" fill="#CCF900"/>
<path d="M336 200C347.046 200 356 191.046 356 180C356 168.954 347.046 160 336 160C324.954 160 316 168.954 316 180C316 191.046 324.954 200 336 200Z" fill="#CCF900"/>
<path d="M380 244C391.046 244 400 235.046 400 224C400 212.954 391.046 204 380 204C368.954 204 360 212.954 360 224C360 235.046 368.954 244 380 244Z" fill="#CCF900"/>
<path d="M160 176V272" stroke="#CCF900" stroke-width="32" stroke-linecap="round" stroke-linejoin="round"/>
<path d="M208 224H112" stroke="#CCF900" stroke-width="32" stroke-linecap="round" stroke-linejoin="round"/>
</svg>
