
<svg width="66" height="66" viewBox="0 0 66 66" fill="none" xmlns="http://www.w3.org/2000/svg">
<path d="M37.4729 7.5625H29.0097C28.021 7.5625 27.2195 8.36402 27.2195 9.35275V56.2856C27.2195 57.2744 28.021 58.0759 29.0097 58.0759H37.4729C38.4616 58.0759 39.2631 57.2744 39.2631 56.2856V9.35275C39.2631 8.36402 38.4616 7.5625 37.4729 7.5625Z" stroke="white" stroke-linecap="round" stroke-linejoin="round"/>
<path d="M48.0752 20.0064L41.8233 21.1088C41.0934 21.2375 40.606 21.9335 40.7347 22.6634L46.8474 57.33C46.9761 58.0599 47.6721 58.5473 48.402 58.4186L54.654 57.3162C55.3839 57.1875 55.8713 56.4914 55.7426 55.7615L49.6299 21.095C49.5012 20.365 48.8052 19.8777 48.0752 20.0064Z" stroke="white" stroke-linecap="round" stroke-linejoin="round"/>
<path d="M41.6956 26.926L44.6422 26.4062" stroke="white" stroke-linecap="round" stroke-linejoin="round"/>
<path d="M27.2197 52.2869H39.2634M27.2197 48.7999H39.2634M27.2211 45.625H39.2634" stroke="white" stroke-linecap="round" stroke-linejoin="round"/>
<path d="M17.228 16.1661L10.2642 55.1225C10.0903 56.0958 10.7382 57.0258 11.7115 57.1998L17.7375 58.277C18.7108 58.451 19.6409 57.803 19.8149 56.8297L26.7786 17.8733C26.9526 16.9 26.3046 15.97 25.3313 15.796L19.3053 14.7188C18.332 14.5448 17.402 15.1928 17.228 16.1661Z" stroke="white" stroke-linecap="round" stroke-linejoin="round"/>
<path d="M15.9995 23.4492L24.8916 25.036" stroke="white" stroke-linecap="round" stroke-linejoin="round"/>
</svg>
