<svg width="20" height="21" viewBox="0 0 20 21" fill="none" xmlns="http://www.w3.org/2000/svg">
<path d="M15.8333 16.625H4.16667V7H15.8333M13.3333 0.875V2.625H6.66667V0.875H5V2.625H4.16667C3.24167 2.625 2.5 3.40375 2.5 4.375V16.625C2.5 17.0891 2.67559 17.5342 2.98816 17.8624C3.30072 18.1906 3.72464 18.375 4.16667 18.375H15.8333C16.2754 18.375 16.6993 18.1906 17.0118 17.8624C17.3244 17.5342 17.5 17.0891 17.5 16.625V4.375C17.5 3.91087 17.3244 3.46575 17.0118 3.13756C16.6993 2.80937 16.2754 2.625 15.8333 2.625H15V0.875M14.1667 10.5H10V14.875H14.1667V10.5Z" fill="white"/>
</svg>
