<svg width="57" height="65" viewBox="0 0 57 65" fill="none" xmlns="http://www.w3.org/2000/svg">
<path d="M5.92868 64.2289C4.34981 64.2289 3.04421 63.7209 2.01188 62.7049C0.979546 61.6889 0.463379 60.404 0.463379 58.8502V14.3859C0.463379 12.832 0.979546 11.5471 2.01188 10.5311C3.04421 9.51516 4.34981 9.00717 5.92868 9.00717H13.2157V0.759766H16.1306V9.00717H41.2709V0.759766H43.8214V9.00717H51.1085C52.6873 9.00717 53.9929 9.51516 55.0253 10.5311C56.0576 11.5471 56.5738 12.832 56.5738 14.3859V58.8502C56.5738 60.404 56.0576 61.6889 55.0253 62.7049C53.9929 63.7209 52.6873 64.2289 51.1085 64.2289H5.92868ZM5.92868 61.7188H51.1085C51.8372 61.7188 52.5051 61.42 53.1124 60.8224C53.7197 60.2247 54.0233 59.5673 54.0233 58.8502V23.2651H3.01385V58.8502C3.01385 59.5673 3.31748 60.2247 3.92473 60.8224C4.53199 61.42 5.19997 61.7188 5.92868 61.7188ZM3.01385 20.755H54.0233V14.3859C54.0233 13.6687 53.7197 13.0113 53.1124 12.4137C52.5051 11.8161 51.8372 11.5172 51.1085 11.5172H5.92868C5.19997 11.5172 4.53199 11.8161 3.92473 12.4137C3.31748 13.0113 3.01385 13.6687 3.01385 14.3859V20.755Z" fill="white"/>
</svg>
