<svg width="15" height="17" viewBox="0 0 15 17" fill="none" xmlns="http://www.w3.org/2000/svg">
<path d="M9.67522 14.0701C9.15556 14.0701 8.71225 13.889 8.34529 13.5267C7.97834 13.1644 7.79487 12.7267 7.79487 12.2136C7.79487 11.7005 7.97834 11.2629 8.34529 10.9005C8.71225 10.5382 9.15556 10.3571 9.67522 10.3571C10.1949 10.3571 10.6382 10.5382 11.0051 10.9005C11.3721 11.2629 11.5556 11.7005 11.5556 12.2136C11.5556 12.7267 11.3721 13.1644 11.0051 13.5267C10.6382 13.889 10.1949 14.0701 9.67522 14.0701ZM1.43589 16.703C1.02678 16.703 0.685185 16.5677 0.411111 16.2971C0.137037 16.0265 0 15.6893 0 15.2853V4.07863C0 3.6747 0.137037 3.33743 0.411111 3.06683C0.685185 2.79623 1.02678 2.66093 1.43589 2.66093H3.00853V0.703125H3.9658V2.66093H10.3248V0.703125H11.2137V2.66093H12.7863C13.1954 2.66093 13.537 2.79623 13.8111 3.06683C14.0852 3.33743 14.2222 3.6747 14.2222 4.07863V15.2853C14.2222 15.6893 14.0852 16.0265 13.8111 16.2971C13.537 16.5677 13.1954 16.703 12.7863 16.703H1.43589ZM1.43589 15.8254H12.7863C12.9231 15.8254 13.0484 15.7692 13.1624 15.6566C13.2764 15.5441 13.3333 15.4203 13.3333 15.2853V7.58916H0.888889V15.2853C0.888889 15.4203 0.945867 15.5441 1.05982 15.6566C1.17379 15.7692 1.29915 15.8254 1.43589 15.8254ZM0.888889 6.71153H13.3333V4.07863C13.3333 3.94362 13.2764 3.81985 13.1624 3.70733C13.0484 3.59481 12.9231 3.53856 12.7863 3.53856H1.43589C1.29915 3.53856 1.17379 3.59481 1.05982 3.70733C0.945867 3.81985 0.888889 3.94362 0.888889 4.07863V6.71153Z" fill="white"/>
</svg>
