<svg width="20" height="20" viewBox="0 0 20 20" fill="none" xmlns="http://www.w3.org/2000/svg">
<mask id="mask0_5729_3439" style="mask-type:alpha" maskUnits="userSpaceOnUse" x="0" y="0" width="20" height="20">
<rect width="20" height="20" fill="#D9D9D9"/>
</mask>
<g mask="url(#mask0_5729_3439)">
<path d="M4.84526 18.166V11.7035L2.29169 7.55887L5.92562 1.66602H13.1935L16.8274 7.55887L14.2738 11.7035V18.166L9.55954 16.5946L4.84526 18.166ZM6.41669 15.9857L9.55954 14.9446L12.7024 15.9857V13.4517H6.41669V15.9857ZM6.80954 3.23744L4.13812 7.55887L6.80954 11.8803H12.3095L14.981 7.55887L12.3095 3.23744H6.80954ZM8.73454 10.7607L5.94526 7.99102L7.0649 6.87137L8.73454 8.54102L12.0542 5.20173L13.1738 6.30173L8.73454 10.7607Z" fill="white"/>
</g>
</svg>
