<svg width="36" height="26" viewBox="0 0 36 26" fill="none" xmlns="http://www.w3.org/2000/svg">
<path d="M17.5223 9.31152C19.4875 9.31152 21.0954 10.9912 21.0954 12.9886C21.0954 14.986 19.4875 16.6657 17.5223 16.6657C15.5571 16.6657 13.9045 15.0314 13.9045 12.9886C13.9045 10.9458 15.5124 9.31152 17.5223 9.31152ZM17.5223 10.4918C16.1377 10.4918 15.0211 11.6267 15.0211 12.9886C15.0211 14.3505 16.1377 15.4854 17.5223 15.4854C18.9069 15.4854 19.9788 14.3959 19.9788 12.9886C19.9788 11.5813 18.8622 10.4918 17.5223 10.4918Z" fill="#CCF900"/>
<path d="M12.2521 21.5685C12.1628 21.8862 11.8501 22.0678 11.5375 21.977C11.2695 21.9316 11.0908 21.6139 11.1355 21.2961L11.3588 20.479C11.8501 18.4815 13.5473 17.165 15.5572 17.165H19.4429C21.4528 17.165 23.15 18.4815 23.6413 20.479L23.8646 21.2961C23.9539 21.6139 23.7306 21.9316 23.4626 21.977C23.15 22.0678 22.8373 21.8862 22.748 21.5685L22.5694 20.7513C22.1674 19.2987 20.9168 18.2999 19.4429 18.2999H15.5572C14.0833 18.2999 12.8327 19.2987 12.4307 20.7513L12.2521 21.5685Z" fill="#CCF900"/>
<path d="M25.6064 4C27.6163 4 29.2241 5.63426 29.2241 7.67708C29.2241 9.71991 27.6163 11.3088 25.6064 11.3088C23.5965 11.3088 22.0333 9.67451 22.0333 7.67708C22.0333 5.67965 23.6412 4 25.6064 4ZM25.6064 5.1349C24.2665 5.1349 23.1499 6.2698 23.1499 7.67708C23.1499 9.08436 24.2665 10.1739 25.6064 10.1739C26.9463 10.1739 28.1076 9.03896 28.1076 7.67708C28.1076 6.3152 26.991 5.1349 25.6064 5.1349Z" fill="#CCF900"/>
<path d="M22.5246 13.17C22.2566 13.2608 21.944 13.1246 21.81 12.8068C21.7207 12.5344 21.8547 12.1713 22.1673 12.0805C22.6586 11.8989 23.1499 11.8081 23.6859 11.8081H27.5716C29.5815 11.8081 31.2787 13.17 31.77 15.122L31.9933 15.9845C32.0379 16.2569 31.8593 16.5747 31.5466 16.6655C31.2787 16.7563 30.966 16.5293 30.8767 16.2569L30.698 15.4398C30.2961 13.9417 29.0455 12.943 27.5716 12.943H23.6859C23.2839 12.943 22.9266 13.0338 22.5246 13.17Z" fill="#CCF900"/>
<path d="M9.39362 4C11.3588 4 12.9667 5.63426 12.9667 7.67708C12.9667 9.71991 11.3588 11.3088 9.39362 11.3088C7.42843 11.3088 5.77588 9.67451 5.77588 7.67708C5.77588 5.67965 7.38376 4 9.39362 4ZM9.39362 5.1349C8.00905 5.1349 6.89247 6.2698 6.89247 7.67708C6.89247 9.08436 8.00905 10.1739 9.39362 10.1739C10.7782 10.1739 11.8501 9.03896 11.8501 7.67708C11.8501 6.3152 10.7335 5.1349 9.39362 5.1349Z" fill="#CCF900"/>
<path d="M4.12326 16.2569C4.03393 16.5293 3.72129 16.7563 3.4533 16.6655C3.14066 16.5747 2.96201 16.2569 3.00667 15.9845L3.22999 15.122C3.72129 13.17 5.4185 11.8081 7.42835 11.8081H11.3141C11.85 11.8081 12.3413 11.8989 12.8326 12.0805C13.1453 12.1713 13.2793 12.5344 13.1899 12.8068C13.056 13.1246 12.7433 13.2608 12.4753 13.17C12.0734 13.0338 11.716 12.943 11.3141 12.943H7.42835C5.95446 12.943 4.70388 13.9417 4.34657 15.4398L4.12326 16.2569Z" fill="#CCF900"/>
</svg>
