<svg width="37" height="26" viewBox="0 0 37 26" fill="none" xmlns="http://www.w3.org/2000/svg">
<path d="M17.8558 9.31152C19.821 9.31152 21.4289 10.9912 21.4289 12.9886C21.4289 14.986 19.821 16.6657 17.8558 16.6657C15.8906 16.6657 14.238 15.0314 14.238 12.9886C14.238 10.9458 15.8459 9.31152 17.8558 9.31152ZM17.8558 10.4918C16.4712 10.4918 15.3546 11.6267 15.3546 12.9886C15.3546 14.3505 16.4712 15.4854 17.8558 15.4854C19.2403 15.4854 20.3123 14.3959 20.3123 12.9886C20.3123 11.5813 19.1957 10.4918 17.8558 10.4918Z" fill="#CCF900"/>
<path d="M12.5853 21.5685C12.496 21.8862 12.1834 22.0678 11.8707 21.977C11.6027 21.9316 11.4241 21.6139 11.4688 21.2961L11.6921 20.479C12.1834 18.4815 13.8806 17.165 15.8904 17.165H19.7762C21.786 17.165 23.4832 18.4815 23.9745 20.479L24.1978 21.2961C24.2872 21.6139 24.0639 21.9316 23.7959 21.977C23.4832 22.0678 23.1706 21.8862 23.0813 21.5685L22.9026 20.7513C22.5006 19.2987 21.2501 18.2999 19.7762 18.2999H15.8904C14.4165 18.2999 13.166 19.2987 12.764 20.7513L12.5853 21.5685Z" fill="#CCF900"/>
<path d="M25.9398 4C27.9496 4 29.5575 5.63426 29.5575 7.67708C29.5575 9.71991 27.9496 11.3088 25.9398 11.3088C23.9299 11.3088 22.3667 9.67451 22.3667 7.67708C22.3667 5.67965 23.9746 4 25.9398 4ZM25.9398 5.1349C24.5999 5.1349 23.4833 6.2698 23.4833 7.67708C23.4833 9.08436 24.5999 10.1739 25.9398 10.1739C27.2797 10.1739 28.4409 9.03896 28.4409 7.67708C28.4409 6.3152 27.3243 5.1349 25.9398 5.1349Z" fill="#CCF900"/>
<path d="M22.858 13.1705C22.59 13.2613 22.2774 13.1251 22.1434 12.8073C22.0541 12.5349 22.188 12.1718 22.5007 12.081C22.992 11.8994 23.4833 11.8086 24.0192 11.8086H27.905C29.9148 11.8086 31.612 13.1705 32.1033 15.1225L32.3267 15.985C32.3713 16.2574 32.1927 16.5752 31.88 16.666C31.612 16.7568 31.2994 16.5298 31.2101 16.2574L31.0314 15.4403C30.6294 13.9422 29.3789 12.9435 27.905 12.9435H24.0192C23.6173 12.9435 23.26 13.0343 22.858 13.1705Z" fill="#CCF900"/>
<path d="M9.72687 4C11.6921 4 13.3 5.63426 13.3 7.67708C13.3 9.71991 11.6921 11.3088 9.72687 11.3088C7.76168 11.3088 6.10913 9.67451 6.10913 7.67708C6.10913 5.67965 7.71702 4 9.72687 4ZM9.72687 5.1349C8.3423 5.1349 7.22572 6.2698 7.22572 7.67708C7.22572 9.08436 8.3423 10.1739 9.72687 10.1739C11.1114 10.1739 12.1834 9.03896 12.1834 7.67708C12.1834 6.3152 11.0668 5.1349 9.72687 5.1349Z" fill="#CCF900"/>
<path d="M4.45663 16.2574C4.3673 16.5298 4.05466 16.7568 3.78668 16.666C3.47403 16.5752 3.29538 16.2574 3.34004 15.985L3.56336 15.1225C4.05466 13.1705 5.75187 11.8086 7.76173 11.8086H11.6475C12.1834 11.8086 12.6747 11.8994 13.166 12.081C13.4787 12.1718 13.6126 12.5349 13.5233 12.8073C13.3893 13.1251 13.0767 13.2613 12.8087 13.1705C12.4067 13.0343 12.0494 12.9435 11.6475 12.9435H7.76173C6.28783 12.9435 5.03726 13.9422 4.67995 15.4403L4.45663 16.2574Z" fill="#CCF900"/>
</svg>
