<svg width="20" height="20" viewBox="0 0 20 20" fill="none" xmlns="http://www.w3.org/2000/svg">
<mask id="mask0_5729_3444" style="mask-type:alpha" maskUnits="userSpaceOnUse" x="0" y="0" width="20" height="20">
<rect width="20" height="20" fill="#D9D9D9"/>
</mask>
<g mask="url(#mask0_5729_3444)">
<path d="M12.1386 19.1875L5.99223 12.7943V10.9963H9.22407C10.0702 10.9963 10.8028 10.7416 11.4217 10.2324C12.0407 9.72311 12.4128 9.04932 12.5382 8.211H5.05206V6.44818H12.3384C12.1033 5.86058 11.7018 5.3807 11.1338 5.00855C10.5658 4.6364 9.9292 4.45032 9.22407 4.45032H5.05206V2.6875H16.2166V4.45032H13.1728C13.4157 4.74021 13.6272 5.0536 13.8074 5.39049C13.9876 5.72739 14.1247 6.07995 14.2187 6.44818H16.2166V8.211H14.3127C14.1874 9.54291 13.6448 10.6339 12.6851 11.484C11.7253 12.334 10.5716 12.7591 9.22407 12.7591H8.40142L14.583 19.1875H12.1386Z" fill="white"/>
</g>
</svg>
