<svg width="24" height="23" viewBox="0 0 24 23" fill="none" xmlns="http://www.w3.org/2000/svg">
<path fill-rule="evenodd" clip-rule="evenodd" d="M21.1118 11.4993C21.1118 16.6745 16.9167 20.8696 11.7415 20.8696C6.56621 20.8696 2.37109 16.6745 2.37109 11.4993C2.37109 6.32402 6.56621 2.12891 11.7415 2.12891C16.9167 2.12891 21.1118 6.32402 21.1118 11.4993ZM19.695 8.68817C20.0136 9.59111 20.1759 10.5418 20.1748 11.4993H16.2702C15.9789 11.499 15.696 11.5972 15.4676 11.778C15.2392 11.9588 15.0772 12.2103 15.007 12.493V12.4944L14.5905 14.1876C14.5435 14.3805 14.5402 14.5815 14.581 14.7759C14.6218 14.9702 14.7055 15.153 14.8262 15.3107C14.9475 15.4681 15.1026 15.596 15.2807 15.6841C15.4587 15.7726 15.655 15.8185 15.8537 15.8185H16.0589L16.5227 18.4474C15.1635 19.3844 13.5162 19.9326 11.7415 19.9326C10.0531 19.9353 8.40315 19.4288 7.00708 18.4793L7.72392 14.457H8.19618C8.45052 14.4572 8.70152 14.3992 8.92991 14.2872C9.1583 14.1753 9.35799 14.0125 9.51366 13.8114C9.66986 13.6106 9.77842 13.3769 9.83118 13.128C9.88393 12.8791 9.87949 12.6214 9.8182 12.3745L9.21709 9.95551L9.21662 9.9541C9.1257 9.59235 8.91683 9.27121 8.623 9.04143C8.3294 8.81191 7.96728 8.68752 7.59461 8.68817H3.78789C4.9456 5.41275 8.06968 3.06594 11.7415 3.06594C12.3712 3.06594 12.9849 3.13482 13.5757 3.266L13.3728 3.92989H13.2838C13.1208 3.93002 12.96 3.96723 12.8136 4.0387C12.6671 4.11017 12.5388 4.21403 12.4384 4.34242C12.338 4.4708 12.2681 4.62035 12.2341 4.77973C12.2 4.93911 12.2027 5.10415 12.2418 5.26236C12.2493 5.29256 12.2598 5.32192 12.2732 5.34997L13.4961 7.92916C13.5634 8.14917 13.6996 8.34171 13.8847 8.47838C14.0698 8.61504 14.2939 8.68859 14.524 8.68817H19.695ZM19.2982 7.75113C18.309 5.76266 16.5776 4.24291 14.4776 3.51994L14.1675 4.53522C14.1382 4.63118 14.0788 4.7152 13.9982 4.77492C13.9176 4.83463 13.8199 4.86689 13.7195 4.86693H13.2838C13.2526 4.86703 13.2223 4.87775 13.1979 4.89733C13.1736 4.91691 13.1566 4.94419 13.1498 4.97469C13.1477 4.98501 13.1467 4.99554 13.147 5.00608L14.3595 7.56278C14.3722 7.59043 14.383 7.61901 14.3905 7.64852C14.3979 7.67791 14.4149 7.70398 14.4389 7.72257C14.4628 7.74116 14.4923 7.75121 14.5226 7.75113H19.2982ZM16.2688 12.4363H20.1233C19.894 14.5011 18.9091 16.408 17.3581 17.7901L16.9134 15.269C16.8944 15.1605 16.8377 15.0622 16.7534 14.9914C16.6691 14.9205 16.5625 14.8816 16.4524 14.8815H15.8537C15.7994 14.8815 15.7458 14.869 15.6972 14.845C15.647 14.82 15.6033 14.784 15.5693 14.7396C15.5337 14.6934 15.509 14.6398 15.4971 14.5827C15.4853 14.5257 15.4866 14.4667 15.5009 14.4102L15.9164 12.7193C15.9365 12.6379 15.9829 12.5654 16.0486 12.5132C16.1112 12.4634 16.1888 12.4363 16.2688 12.4363ZM3.51709 9.6252C3.37783 10.2402 3.30774 10.8688 3.30813 11.4993C3.30677 12.6977 3.56146 13.8826 4.05515 14.9747C4.54885 16.0667 5.27016 17.0406 6.17078 17.8313L6.87028 13.9065C6.88954 13.7981 6.94635 13.7 7.03073 13.6293C7.11512 13.5587 7.22169 13.5199 7.33177 13.52H8.19618C8.30775 13.5201 8.41786 13.4946 8.51802 13.4455C8.61817 13.3964 8.70571 13.3249 8.77387 13.2365C8.84309 13.1475 8.89117 13.0438 8.91447 12.9334C8.93776 12.823 8.93566 12.7088 8.90833 12.5994L8.30769 10.1832V10.1823C8.2675 10.0228 8.17536 9.88116 8.04579 9.77981C7.9174 9.67938 7.75902 9.62494 7.59601 9.6252H3.51709Z" fill="#CCF900"/>
</svg>
