<svg width="14" height="15" viewBox="0 0 14 15" fill="none" xmlns="http://www.w3.org/2000/svg">
<path d="M7.02178 11.5063C7.19373 11.5063 7.33879 11.4468 7.45694 11.3279C7.5751 11.2089 7.63418 11.0633 7.63418 10.891C7.63418 10.7187 7.57482 10.5734 7.45611 10.455C7.33738 10.3366 7.19205 10.2774 7.02011 10.2774C6.84815 10.2774 6.7031 10.3369 6.58494 10.4558C6.46677 10.5748 6.40768 10.7204 6.40768 10.8927C6.40768 11.065 6.46705 11.2103 6.58578 11.3287C6.7045 11.4471 6.84984 11.5063 7.02178 11.5063ZM6.62008 8.92556H7.37094C7.39088 8.58686 7.45445 8.3116 7.56165 8.0998C7.66884 7.88798 7.88946 7.61771 8.2235 7.289C8.57051 6.9413 8.82877 6.62983 8.99829 6.35457C9.1678 6.07931 9.25256 5.7607 9.25256 5.39876C9.25256 4.78455 9.03719 4.29511 8.60644 3.93043C8.17568 3.56575 7.66613 3.3834 7.07778 3.3834C6.51837 3.3834 6.04348 3.53577 5.6531 3.84051C5.26271 4.14525 4.97677 4.49545 4.79529 4.89109L5.51026 5.18784C5.6349 4.90409 5.81314 4.65331 6.04499 4.4355C6.27682 4.21768 6.61111 4.10877 7.04787 4.10877C7.55243 4.10877 7.92088 4.24741 8.15321 4.52468C8.38555 4.80193 8.50171 5.10691 8.50171 5.43962C8.50171 5.70938 8.42892 5.95041 8.28333 6.16273C8.13775 6.37505 7.94829 6.58862 7.71495 6.80342C7.26424 7.22006 6.96909 7.57325 6.82949 7.863C6.68988 8.15274 6.62008 8.50693 6.62008 8.92556ZM7.00261 14.4437C6.03462 14.4437 5.12456 14.2597 4.27241 13.8916C3.42026 13.5235 2.67901 13.024 2.04865 12.3929C1.4183 11.7619 0.919269 11.0199 0.551561 10.1669C0.183854 9.31384 0 8.40237 0 7.43249C0 6.46259 0.183679 5.55072 0.551036 4.69689C0.918407 3.84305 1.41698 3.10033 2.04674 2.46872C2.67651 1.83712 3.41706 1.3371 4.26841 0.968669C5.11976 0.600233 6.02942 0.416016 6.99739 0.416016C7.96538 0.416016 8.87544 0.600058 9.72759 0.968143C10.5797 1.33624 11.321 1.8358 11.9514 2.46681C12.5817 3.09782 13.0807 3.83985 13.4484 4.69287C13.8161 5.54592 14 6.45738 14 7.42727C14 8.39717 13.8163 9.30903 13.449 10.1629C13.0816 11.0167 12.583 11.7594 11.9533 12.391C11.3235 13.0226 10.5829 13.5226 9.73159 13.8911C8.88024 14.2595 7.97058 14.4437 7.00261 14.4437ZM7 13.6644C8.73704 13.6644 10.2083 13.0604 11.4139 11.8525C12.6194 10.6446 13.2222 9.17035 13.2222 7.42988C13.2222 5.6894 12.6194 4.21519 11.4139 3.00725C10.2083 1.7993 8.73704 1.19533 7 1.19533C5.26296 1.19533 3.79167 1.7993 2.58611 3.00725C1.38056 4.21519 0.777778 5.6894 0.777778 7.42988C0.777778 9.17035 1.38056 10.6446 2.58611 11.8525C3.79167 13.0604 5.26296 13.6644 7 13.6644Z" fill="white"/>
</svg>
