<svg width="15" height="15" viewBox="0 0 15 15" fill="none" xmlns="http://www.w3.org/2000/svg">
<path d="M7.8225 1.40625L7.67578 1.53797L4.49719 4.6875H2.34375V12.1875H10.2394C10.9003 12.1875 11.4769 11.7206 11.6161 11.0742L12.6272 6.38672C12.8114 5.52047 12.1345 4.6875 11.25 4.6875H8.55469L8.64281 4.33594C8.73797 4.26281 8.79844 4.23141 8.93578 4.04297C9.15516 3.74297 9.375 3.2775 9.375 2.65125C9.375 1.98281 8.77031 1.40625 8.01281 1.40625H7.8225ZM8.15906 2.38781C8.35687 2.42625 8.4375 2.50688 8.4375 2.65125C8.4375 3.07453 8.30953 3.33609 8.18859 3.50109C8.06766 3.66562 7.98328 3.70594 7.98328 3.70594L7.8225 3.79406L7.76391 3.98438L7.48547 5.03906L7.33875 5.625H11.25C11.5594 5.625 11.768 5.89406 11.7042 6.19641L10.7081 10.8839C10.6838 10.9894 10.6239 11.0833 10.5386 11.15C10.4533 11.2166 10.3476 11.2519 10.2394 11.25H5.15625V5.34656L8.15906 2.38781ZM3.28125 5.625H4.21875V11.25H3.28125V5.625Z" fill="#3A3A3A"/>
</svg>
