<svg width="30" height="20" viewBox="0 0 30 20" fill="none" xmlns="http://www.w3.org/2000/svg">
<path d="M25.1073 15.8208C24.8408 16.6299 24.6104 17.3603 24.3367 18.1694C24.1927 18.599 24.0343 19.0143 23.8902 19.4439C23.739 19.8807 23.4294 20.0955 22.9829 19.9594C22.0251 19.6587 21.0673 19.3222 20.1239 18.9785C19.7495 18.8424 19.6126 18.5775 19.7351 18.2123C19.9439 17.5751 20.1167 17.0381 20.3544 16.408C20.412 16.2647 20.484 16.007 20.5344 15.8566C20.8441 14.9258 21.1537 13.9949 21.4778 13.0713C21.9747 11.6464 22.4788 10.2215 22.9685 8.79659C23.4222 7.4791 23.8686 6.16162 24.3223 4.84413C24.7616 3.5696 25.1937 2.29507 25.633 1.02771C25.6978 0.83438 25.7914 0.648213 25.8706 0.454886C26.0219 0.0825523 26.3459 -0.0821338 26.742 0.0395907C27.2893 0.218597 27.8366 0.419085 28.3839 0.605251C28.7008 0.712655 29.0248 0.820059 29.3417 0.920303C29.9178 1.09931 30.1194 1.46448 29.9322 2.03014C29.4281 3.498 28.9168 4.96585 28.4055 6.43371C27.8222 8.12353 27.2461 9.81335 26.6556 11.496C26.1803 12.8636 25.6906 14.2312 25.2081 15.5988L25.1073 15.8208Z" fill="#CCF900"/>
<path d="M6.93098 19.974C6.4845 19.974 6.24685 19.8093 6.13163 19.4728C5.65634 18.0765 5.18105 16.6802 4.71296 15.2768C4.56173 14.8329 4.44651 14.3746 4.28808 13.9307C3.97122 13.0572 3.62555 12.1979 3.32309 11.3244C2.97022 10.3148 2.66056 9.29086 2.3149 8.28126C2.15647 7.81584 1.96203 7.35758 1.7964 6.89217C1.40752 5.77517 1.04025 4.64385 0.65138 3.52684C0.485748 3.05427 0.305714 2.57453 0.111276 2.11627C-0.126369 1.56493 0.00325567 1.18544 0.629776 0.949149C1.44353 0.641258 2.27169 0.383489 3.09985 0.111399C3.75517 -0.103409 4.06483 0.0541164 4.28808 0.720021C4.77777 2.16639 5.26746 3.61993 5.76436 5.0663C6.29726 6.61292 6.83736 8.15953 7.37027 9.70615C7.90317 11.2528 8.42887 12.7994 8.96897 14.3388C9.40826 15.5919 9.85474 16.8378 10.3012 18.0837C10.4597 18.5204 10.2796 18.8713 9.74672 19.0646C8.91136 19.3653 8.0616 19.6446 7.21904 19.9238C7.09661 19.9597 6.96699 19.9668 6.93098 19.974Z" fill="#CCF900"/>
<path d="M15.0041 16.2219C12.6133 16.2577 10.6473 14.26 10.6329 11.8971C10.6185 9.4411 12.6277 7.51499 14.9825 7.50783C17.5462 7.50067 19.3754 9.57715 19.433 11.8111C19.4834 14.081 17.4382 16.3293 15.0041 16.2219Z" fill="#CCF900"/>
</svg>
