<svg width="8" height="17" viewBox="0 0 8 17" fill="none" xmlns="http://www.w3.org/2000/svg">
<path d="M0 0.378906H8V6.76372C8 7.08625 7.91667 7.38566 7.75001 7.66196C7.58335 7.93826 7.3589 8.16484 7.07667 8.34171L4.16666 10.1659L4.80667 12.3092H7.30001L5.24668 13.8075L6.05333 16.4363L4 14.8028L1.94667 16.4363L2.75332 13.8075L0.699986 12.3092H3.19333L3.83334 10.1659L0.889982 8.37638C0.607765 8.21107 0.388881 7.98448 0.233328 7.69663C0.0777759 7.40879 0 7.09782 0 6.76372V0.378906ZM0.866669 1.28062V6.76372C0.866669 6.93712 0.908333 7.09607 0.991663 7.24057C1.07499 7.38508 1.18888 7.50358 1.33333 7.59607L3.56667 8.95555V1.28062H0.866669ZM7.13333 1.28062H4.43333V8.95555L6.66668 7.59607C6.81112 7.50358 6.92501 7.38508 7.00834 7.24057C7.09167 7.09607 7.13333 6.93712 7.13333 6.76372V1.28062Z" fill="white"/>
</svg>
