<svg width="30" height="28" viewBox="0 0 30 28" fill="none" xmlns="http://www.w3.org/2000/svg">
<path d="M24.0275 13.0376V2.56673C24.0275 2.2459 23.7665 1.9834 23.4475 1.9834H2.56755C2.24855 1.9834 1.98755 2.2459 1.98755 2.56673V22.4584C1.98755 22.7792 2.24855 23.0417 2.56755 23.0417H13.9935C15.2115 25.4917 17.7345 27.1834 20.6346 27.1834C24.7525 27.1834 28.0875 23.8292 28.0875 19.7167C28.0875 16.8001 26.4345 14.2917 24.0275 13.0376ZM3.14755 3.15007H22.8675V6.85423H3.14755V3.15007ZM3.14755 21.8751V8.0209H22.8675V12.5417C22.1715 12.3084 21.4175 12.1917 20.6635 12.1917C16.5745 12.1917 13.2395 15.5459 13.2395 19.6584C13.2395 20.4167 13.3555 21.1459 13.5585 21.8167H3.14755V21.8751ZM20.6635 26.0167C17.2125 26.0167 14.3995 23.1876 14.3995 19.7167C14.3995 16.2459 17.2125 13.4167 20.6635 13.4167C24.1145 13.4167 26.9275 16.2167 26.9275 19.7167C26.9275 23.2167 24.1145 26.0167 20.6635 26.0167Z" fill="white"/>
<path d="M24.3757 19.1336H21.2437V15.9544C21.2437 15.6336 20.9827 15.3711 20.6637 15.3711C20.3447 15.3711 20.0837 15.6336 20.0837 15.9544V19.6878C20.0837 20.0086 20.3447 20.2711 20.6637 20.2711H24.3757C24.6947 20.2711 24.9557 20.0086 24.9557 19.6878C24.9557 19.3669 24.6947 19.1336 24.3757 19.1336Z" fill="white"/>
</svg>
