<svg width="40" height="40" viewBox="0 0 40 40" fill="none" xmlns="http://www.w3.org/2000/svg">
<g clip-path="url(#clip0_4085_2846)">
<mask id="mask0_4085_2846" style="mask-type:luminance" maskUnits="userSpaceOnUse" x="0" y="0" width="40" height="40">
<path d="M40 20C40 8.9543 31.0457 0 20 0C8.9543 0 0 8.9543 0 20C0 31.0457 8.9543 40 20 40C31.0457 40 40 31.0457 40 20Z" fill="white"/>
</mask>
<g mask="url(#mask0_4085_2846)">
<path d="M40 0H0V40H40V0Z" fill="#979797"/>
<path d="M-5.8571 26.5774C0.581554 36.8814 14.1542 40.0149 24.4582 33.5762C34.7622 27.1375 37.8957 13.5649 31.457 3.26091C25.0184 -7.04309 11.4457 -10.1766 1.14173 -3.73792C-9.16228 2.70074 -12.2958 16.2734 -5.8571 26.5774Z" fill="#CCF900"/>
<path d="M11.9844 18.4023C13.9651 19.5934 16.1527 19.9755 18.547 19.5487" stroke="black" stroke-width="2.22222" stroke-linecap="round"/>
<path d="M9.85378 12.6278C10.0022 12.0831 9.8041 11.5385 9.41134 11.4116C9.01859 11.2846 8.57989 11.6232 8.43148 12.168C8.28308 12.7127 8.48117 13.2573 8.87392 13.3843C9.26668 13.5113 9.70538 13.1726 9.85378 12.6278Z" fill="black"/>
<path d="M23.0579 14.4833C23.2063 13.9386 23.0082 13.394 22.6154 13.267C22.2227 13.14 21.784 13.4787 21.6356 14.0235C21.4872 14.5682 21.6853 15.1128 22.078 15.2397C22.4708 15.3667 22.9095 15.0281 23.0579 14.4833Z" fill="black"/>
</g>
</g>
<defs>
<clipPath id="clip0_4085_2846">
<rect width="40" height="40" fill="white"/>
</clipPath>
</defs>
</svg>
