<svg width="36" height="40" viewBox="0 0 36 40" fill="none" xmlns="http://www.w3.org/2000/svg">
<path d="M11.6515 33.6669C11.6515 37.173 14.4938 40.0005 17.9999 40.0005L19.7391 31.9277L11.6515 33.6669Z" fill="#E9C761" stroke="#E9C761" stroke-width="0.002"/>
<path d="M18 40.0005C21.5061 40.0005 24.3484 37.173 24.3484 33.6669L18 31.9277V40.0005Z" fill="#E9C761" stroke="#E9C761" stroke-width="0.002"/>
<path d="M0.72229 28.4481V33.6659H17.9999L19.7391 26.709L0.72229 28.4481Z" fill="#E9C761" stroke="#E9C761" stroke-width="0.002"/>
<path d="M18 0C11.7624 0 6.73727 4.66203 5.80977 10.6624C5.36578 13.5345 3.79102 22.1105 3.79102 22.1105L19.7392 23.8496L18 0Z" fill="#E9C761" stroke="#E9C761" stroke-width="0.002"/>
<path d="M32.2091 22.1106C32.2091 22.1106 30.6343 13.5345 30.1902 10.6624C29.2627 4.66203 24.2376 0 18 0V23.8498L32.2091 22.1106Z" fill="#E9C761" stroke="#E9C761" stroke-width="0.002"/>
<path d="M18 26.709V33.6659H35.2777V28.4481L18 26.709Z" fill="#E9C761" stroke="#E9C761" stroke-width="0.002"/>
<path d="M17.9999 22.1104H3.79081C1.92323 23.5889 0.72229 25.8929 0.72229 28.4483H17.9999L19.7391 25.2793L17.9999 22.1104Z" fill="#E9C761" stroke="#E9C761" stroke-width="0.002"/>
<path d="M32.2091 22.1104H18V28.4483H35.2777C35.2777 25.8929 34.0766 23.5889 32.2091 22.1104Z" fill="#E9C761" stroke="#E9C761" stroke-width="0.002"/>
</svg>
