<svg width="22" height="16" viewBox="0 0 22 16" fill="none" xmlns="http://www.w3.org/2000/svg">
<path d="M4.76289 13.115C5.78351 13.115 6.77577 13.2344 7.73969 13.4731C8.70361 13.7119 9.65808 14.1082 10.6031 14.6621V3.43137C9.77148 2.80107 8.84536 2.32835 7.82474 2.0132C6.80412 1.69805 5.78351 1.54048 4.76289 1.54048C4.08247 1.54048 3.51074 1.5739 3.04768 1.64075C2.58462 1.7076 2.04124 1.84608 1.41753 2.05617C1.19072 2.13257 1.03007 2.2424 0.935567 2.38565C0.841065 2.5289 0.793814 2.68647 0.793814 2.85837V12.8858C0.793814 13.1532 0.888316 13.349 1.07732 13.4731C1.26632 13.5973 1.47423 13.6116 1.70103 13.5161C2.04124 13.4015 2.4665 13.306 2.9768 13.2296C3.48711 13.1532 4.08247 13.115 4.76289 13.115ZM11.3969 14.6621C12.3419 14.1082 13.2964 13.7119 14.2603 13.4731C15.2242 13.2344 16.2165 13.115 17.2371 13.115C17.9175 13.115 18.5129 13.1532 19.0232 13.2296C19.5335 13.306 19.9588 13.4015 20.299 13.5161C20.5258 13.6116 20.7337 13.5973 20.9227 13.4731C21.1117 13.349 21.2062 13.1532 21.2062 12.8858V2.85837C21.2062 2.68647 21.1589 2.53367 21.0644 2.39997C20.9699 2.26627 20.8093 2.15167 20.5825 2.05617C19.9588 1.84608 19.4154 1.7076 18.9523 1.64075C18.4893 1.5739 17.9175 1.54048 17.2371 1.54048C16.2165 1.54048 15.1959 1.69805 14.1753 2.0132C13.1546 2.32835 12.2285 2.80107 11.3969 3.43137V14.6621ZM11 15.8081C10.0739 15.1969 9.08162 14.729 8.0232 14.4043C6.96478 14.0796 5.87801 13.9172 4.76289 13.9172C4.23368 13.9172 3.71392 13.9506 3.20361 14.0175C2.6933 14.0843 2.19244 14.2037 1.70103 14.3756C1.28522 14.5284 0.897766 14.4663 0.53866 14.1894C0.179553 13.9124 0 13.5352 0 13.0577V2.80107C0 2.49547 0.0803265 2.21375 0.240979 1.9559C0.401632 1.69805 0.623711 1.52138 0.907217 1.42588C1.51203 1.17758 2.14046 1.00091 2.79253 0.895856C3.44459 0.790806 4.10137 0.738281 4.76289 0.738281C5.87801 0.738281 6.96478 0.905405 8.0232 1.23965C9.08162 1.5739 10.0739 2.05617 11 2.68647C11.9261 2.05617 12.9184 1.5739 13.9768 1.23965C15.0352 0.905405 16.122 0.738281 17.2371 0.738281C17.8986 0.738281 18.5554 0.790806 19.2075 0.895856C19.8595 1.00091 20.488 1.17758 21.0928 1.42588C21.3763 1.52138 21.5984 1.69805 21.759 1.9559C21.9197 2.21375 22 2.49547 22 2.80107V13.0577C22 13.5352 21.8015 13.9029 21.4046 14.1607C21.0077 14.4186 20.5825 14.4711 20.1289 14.3183C19.6564 14.1655 19.1791 14.0605 18.6972 14.0032C18.2152 13.9459 17.7285 13.9172 17.2371 13.9172C16.122 13.9172 15.0352 14.0796 13.9768 14.4043C12.9184 14.729 11.9261 15.1969 11 15.8081Z" fill="#CCF900"/>
<path fill-rule="evenodd" clip-rule="evenodd" d="M15.6597 6.31573C14.4531 6.43592 13.3619 6.79719 12.6105 7.04674L12.3892 6.38508L12.3966 6.38262C13.1454 6.13391 14.3009 5.75016 15.59 5.62175C16.8857 5.49268 18.344 5.61838 19.6799 6.41687L19.3198 7.01495C18.1557 6.31916 16.864 6.19577 15.6597 6.31573ZM15.6597 10.3015C14.4531 10.4217 13.3619 10.783 12.6105 11.0325L12.3892 10.3709L12.3966 10.3684C13.1454 10.1197 14.3009 9.73593 15.59 9.60752C16.8857 9.47846 18.344 9.60415 19.6799 10.4026L19.3198 11.0007C18.1557 10.3049 16.864 10.1815 15.6597 10.3015Z" fill="#CCF900"/>
</svg>
