<svg width="20" height="20" viewBox="0 0 20 20" fill="none" xmlns="http://www.w3.org/2000/svg">
<path d="M17.5001 15.0008H15.8334V12.5008C15.8334 12.2798 15.7456 12.0678 15.5893 11.9116C15.4331 11.7553 15.2211 11.6675 15.0001 11.6675H10.8334V9.40915L11.7751 9.90082C11.9124 9.97266 12.067 10.0048 12.2216 9.99357C12.3762 9.98236 12.5246 9.92827 12.6501 9.83737C12.7756 9.74647 12.8733 9.62237 12.9322 9.47901C12.9911 9.33565 13.0088 9.17871 12.9834 9.02582L12.6501 7.05082L14.0834 5.64249C14.192 5.53647 14.2695 5.40283 14.3077 5.25597C14.3459 5.10912 14.3433 4.95462 14.3001 4.80915C14.2518 4.66105 14.1629 4.52945 14.0436 4.42929C13.9243 4.32912 13.7793 4.26441 13.6251 4.24249L11.6667 3.93415L10.7501 2.13415C10.6818 1.99326 10.5753 1.87444 10.4427 1.7913C10.31 1.70816 10.1566 1.66406 10.0001 1.66406C9.84353 1.66406 9.69015 1.70816 9.55751 1.7913C9.42486 1.87444 9.31832 1.99326 9.25008 2.13415L8.33341 3.93415L6.34175 4.22582C6.18752 4.24774 6.04252 4.31246 5.92321 4.41262C5.80389 4.51278 5.71505 4.64438 5.66675 4.79249C5.62357 4.93795 5.62093 5.09245 5.65911 5.23931C5.6973 5.38616 5.77485 5.51981 5.88341 5.62582L7.35008 7.05082L7.01675 9.02582C6.99134 9.17871 7.00908 9.33565 7.06796 9.47901C7.12683 9.62237 7.22453 9.74647 7.35005 9.83737C7.47558 9.92827 7.62397 9.98236 7.77854 9.99357C7.93312 10.0048 8.08775 9.97266 8.22508 9.90082L9.16675 9.40915V11.6675H5.00008C4.77907 11.6675 4.56711 11.7553 4.41083 11.9116C4.25455 12.0678 4.16675 12.2798 4.16675 12.5008V15.0008H2.50008C2.27907 15.0008 2.06711 15.0886 1.91083 15.2449C1.75455 15.4012 1.66675 15.6131 1.66675 15.8342V17.5008C1.66675 17.7218 1.75455 17.9338 1.91083 18.0901C2.06711 18.2464 2.27907 18.3342 2.50008 18.3342C2.7211 18.3342 2.93306 18.2464 3.08934 18.0901C3.24562 17.9338 3.33341 17.7218 3.33341 17.5008V16.6675H6.66675V17.5008C6.66675 17.7218 6.75455 17.9338 6.91083 18.0901C7.06711 18.2464 7.27907 18.3342 7.50008 18.3342C7.7211 18.3342 7.93306 18.2464 8.08934 18.0901C8.24562 17.9338 8.33341 17.7218 8.33341 17.5008V15.8342C8.33341 15.6131 8.24562 15.4012 8.08934 15.2449C7.93306 15.0886 7.7211 15.0008 7.50008 15.0008H5.83341V13.3342H14.1667V15.0008H12.5001C12.2791 15.0008 12.0671 15.0886 11.9108 15.2449C11.7545 15.4012 11.6667 15.6131 11.6667 15.8342V17.5008C11.6667 17.7218 11.7545 17.9338 11.9108 18.0901C12.0671 18.2464 12.2791 18.3342 12.5001 18.3342C12.7211 18.3342 12.9331 18.2464 13.0893 18.0901C13.2456 17.9338 13.3334 17.7218 13.3334 17.5008V16.6675H16.6667V17.5008C16.6667 17.7218 16.7545 17.9338 16.9108 18.0901C17.0671 18.2464 17.2791 18.3342 17.5001 18.3342C17.7211 18.3342 17.9331 18.2464 18.0893 18.0901C18.2456 17.9338 18.3334 17.7218 18.3334 17.5008V15.8342C18.3334 15.6131 18.2456 15.4012 18.0893 15.2449C17.9331 15.0886 17.7211 15.0008 17.5001 15.0008ZM10.0001 7.19249C9.8633 7.19317 9.72878 7.22751 9.60841 7.29249L8.94175 7.64249L9.06675 6.89249C9.08861 6.75982 9.07805 6.62384 9.03597 6.49614C8.99389 6.36844 8.92153 6.25283 8.82508 6.15915L8.28341 5.62582L9.03341 5.51749C9.16759 5.49956 9.29538 5.44922 9.40573 5.37081C9.51608 5.2924 9.60567 5.18829 9.66675 5.06749L10.0001 4.38415L10.3334 5.06749C10.3945 5.18829 10.4841 5.2924 10.5944 5.37081C10.7048 5.44922 10.8326 5.49956 10.9667 5.51749L11.7167 5.62582L11.1751 6.15915C11.0786 6.25283 11.0063 6.36844 10.9642 6.49614C10.9221 6.62384 10.9115 6.75982 10.9334 6.89249L11.0584 7.64249L10.3917 7.29249C10.2714 7.22751 10.1369 7.19317 10.0001 7.19249Z" fill="white"/>
</svg>
