<svg width="28" height="28" viewBox="0 0 28 28" fill="none" xmlns="http://www.w3.org/2000/svg">
<mask id="mask0_7588_3386" style="mask-type:alpha" maskUnits="userSpaceOnUse" x="0" y="0" width="28" height="28">
<rect width="28" height="28" fill="#D9D9D9"/>
</mask>
<g mask="url(#mask0_7588_3386)">
<path d="M2.33301 24.5V3.5H13.9997V8.16667H25.6663V24.5H2.33301ZM4.66634 22.1667H6.99967V19.8333H4.66634V22.1667ZM4.66634 17.5H6.99967V15.1667H4.66634V17.5ZM4.66634 12.8333H6.99967V10.5H4.66634V12.8333ZM4.66634 8.16667H6.99967V5.83333H4.66634V8.16667ZM9.33301 22.1667H11.6663V19.8333H9.33301V22.1667ZM9.33301 17.5H11.6663V15.1667H9.33301V17.5ZM9.33301 12.8333H11.6663V10.5H9.33301V12.8333ZM9.33301 8.16667H11.6663V5.83333H9.33301V8.16667ZM13.9997 22.1667H23.333V10.5H13.9997V12.8333H16.333V15.1667H13.9997V17.5H16.333V19.8333H13.9997V22.1667ZM18.6663 15.1667V12.8333H20.9997V15.1667H18.6663ZM18.6663 19.8333V17.5H20.9997V19.8333H18.6663Z" fill="white"/>
</g>
</svg>
