
<svg width="16" height="19" viewBox="0 0 16 19" fill="none" xmlns="http://www.w3.org/2000/svg">
<mask id="mask0_1941_2542" style="mask-type:alpha" maskUnits="userSpaceOnUse" x="0" y="0" width="16" height="19">
<rect x="0.5" y="0.5" width="14.7433" height="17.833" fill="#D9D9D9" stroke="white"/>
</mask>
<g mask="url(#mask0_1941_2542)">
<path d="M5.77316 2.12612V1.53906H9.92751V2.12612H7.85034H5.77316ZM7.85034 17.5154C6.96407 17.5154 6.1332 17.3476 5.35773 17.0122C4.58225 16.6767 3.9037 16.2155 3.32209 15.6284C2.74049 15.0413 2.28351 14.3564 1.95116 13.5737C1.61881 12.791 1.45264 11.9523 1.45264 11.0577C1.45264 10.1632 1.61881 9.32454 1.95116 8.5418C2.28351 7.75906 2.74049 7.07416 3.32209 6.4871C3.9037 5.90005 4.58225 5.43879 5.35773 5.10333C6.1332 4.76787 6.96407 4.60014 7.85034 4.60014C8.63966 4.60014 9.40476 4.7469 10.1456 5.04043C10.8865 5.33396 11.5616 5.74629 12.1709 6.27744L13.0017 5.43879L13.4172 5.85811L12.5863 6.69676C13.1125 7.31178 13.521 7.99318 13.8118 8.74098C14.1026 9.48877 14.248 10.261 14.248 11.0577C14.248 11.9523 14.0819 12.791 13.7495 13.5737C13.4172 14.3564 12.9602 15.0413 12.3786 15.6284C11.797 16.2155 11.1184 16.6767 10.3429 17.0122C9.56747 17.3476 8.7366 17.5154 7.85034 17.5154ZM7.85034 16.9283C9.45669 16.9283 10.8276 16.3552 11.9631 15.2091C13.0987 14.0629 13.6664 12.6791 13.6664 11.0577C13.6664 9.43636 13.0987 8.05258 11.9631 6.90643C10.8276 5.76027 9.45669 5.18719 7.85034 5.18719C6.24399 5.18719 4.87305 5.76027 3.73753 6.90643C2.60201 8.05258 2.03425 9.43636 2.03425 11.0577C2.03425 12.6791 2.60201 14.0629 3.73753 15.2091C4.87305 16.3552 6.24399 16.9283 7.85034 16.9283Z" fill="#CCF900" stroke="#CCF900" stroke-width="0.3"/>
<path fill-rule="evenodd" clip-rule="evenodd" d="M6.6416 6.9375H7.13358V11.6457H9.83946V12.1413H6.6416V6.9375Z" fill="#CCF900" stroke="#CCF900" stroke-width="0.5"/>
</g>
</svg>
