<svg width="14" height="14" viewBox="0 0 14 14" fill="none" xmlns="http://www.w3.org/2000/svg">
<path d="M13.4173 5.83398C13.4173 5.52457 13.2944 5.22782 13.0756 5.00903C12.8568 4.79023 12.5601 4.66732 12.2507 4.66732H8.56398L9.12398 2.00148C9.13565 1.94315 9.14148 1.87898 9.14148 1.81482C9.14148 1.57565 9.04232 1.35398 8.88482 1.19648L8.26648 0.583984L4.42815 4.42232C4.21232 4.63815 4.08398 4.92982 4.08398 5.25065V11.084C4.08398 11.3934 4.2069 11.6902 4.42569 11.9089C4.64449 12.1277 4.94123 12.2507 5.25065 12.2507H10.5007C10.9848 12.2507 11.399 11.959 11.574 11.539L13.3357 7.42648C13.3882 7.29232 13.4173 7.15232 13.4173 7.00065V5.83398ZM0.583984 12.2507H2.91732V5.25065H0.583984V12.2507Z" fill="#3A3A3A"/>
</svg>
