<svg width="49" height="60" viewBox="0 0 49 60" fill="none" xmlns="http://www.w3.org/2000/svg">
<path d="M16.8701 3.12745V1H32.1299V3.12745H24.5H16.8701ZM24.5 58.8971C21.2446 58.8971 18.1926 58.2893 15.3442 57.0736C12.4957 55.8579 10.0032 54.1863 7.86688 52.0589C5.73052 49.9314 4.05195 47.4494 2.83117 44.6128C1.61039 41.7762 1 38.737 1 35.4951C1 32.2533 1.61039 29.2141 2.83117 26.3775C4.05195 23.5409 5.73052 21.0588 7.86688 18.9314C10.0032 16.8039 12.4957 15.1324 15.3442 13.9167C18.1926 12.701 21.2446 12.0932 24.5 12.0932C27.3993 12.0932 30.2097 12.625 32.931 13.6887C35.6523 14.7525 38.132 16.2468 40.3701 18.1716L43.4221 15.1324L44.9481 16.652L41.8961 19.6912C43.829 21.92 45.3295 24.3893 46.3977 27.0993C47.4659 29.8093 48 32.6079 48 35.4951C48 38.737 47.3896 41.7762 46.1688 44.6128C44.948 47.4494 43.2695 49.9314 41.1331 52.0589C38.9968 54.1863 36.5043 55.8579 33.6558 57.0736C30.8074 58.2893 27.7554 58.8971 24.5 58.8971ZM24.5 56.7697C30.4004 56.7697 35.4361 54.6929 39.6071 50.5393C43.7781 46.3857 45.8636 41.371 45.8636 35.4951C45.8636 29.6193 43.7781 24.6046 39.6071 20.451C35.4361 16.2974 30.4004 14.2206 24.5 14.2206C18.5996 14.2206 13.5639 16.2974 9.39286 20.451C5.22186 24.6046 3.13636 29.6193 3.13636 35.4951C3.13636 41.371 5.22186 46.3857 9.39286 50.5393C13.5639 54.6929 18.5996 56.7697 24.5 56.7697Z" fill="white" stroke="white" stroke-width="0.3"/>
<path fill-rule="evenodd" clip-rule="evenodd" d="M20.0613 20.5684H21.8684V37.6307H31.8076V39.4268H20.0613V20.5684Z" fill="white" stroke="white" stroke-width="0.5"/>
</svg>
