<svg width="236" height="91" viewBox="0 0 236 91" fill="none" xmlns="http://www.w3.org/2000/svg">
<g clip-path="url(#clip0_4896_2937)">
<rect width="236" height="91" rx="8" fill="#0084CE"/>
<g opacity="0.2">
<path d="M-22.4287 -3.23735C-22.5265 -6.1621 -18.8464 -10.2084 -16.9426 -11.6013C-15.667 -12.5343 -14.3499 -13.1398 -12.9588 -13.7734C-10.3172 -14.9777 -7.51262 -15.8727 -4.74214 -16.5989C0.103973 -17.871 5.06861 -18.5509 10.0347 -18.8586C21.1996 -19.5501 32.3393 -18.2333 43.3204 -16.043C65.382 -11.6427 86.7251 -3.8362 108.458 2.11917C129.942 8.00671 151.661 11.5286 173.801 9.53029C195.08 7.60968 216.783 3.10511 237.116 -4.21668C247.976 -8.12737 258.142 -14.0215 268.963 -17.9455C275.171 -20.1969 282.934 -22.2929 289.339 -19.8776C292.557 -18.6651 295.487 -16.3177 298.563 -14.7213C298.665 -14.6683 298.735 -14.847 298.632 -14.8999C292.428 -18.1208 288.239 -21.3681 281.144 -20.9661C271.123 -20.3987 261.985 -15.0654 252.896 -10.8652C229.191 0.0860691 203.312 6.06791 177.837 8.93144C151.498 11.8926 126.106 7.12498 100.681 -0.28614C76.7528 -7.26219 52.8823 -16.0646 28.1332 -18.6105C16.512 -19.8049 4.42859 -19.6096 -6.8963 -16.1919C-12.5276 -14.493 -22.8762 -11.4723 -22.6021 -3.21089C-22.5976 -3.08516 -22.4243 -3.11163 -22.4287 -3.2357V-3.23735Z" fill="white"/>
<path d="M-22.5004 1.3802C-22.6071 -3.86548 -16.8246 -7.44201 -13.2141 -9.18892C-11.2007 -10.1633 -9.08802 -10.9408 -6.98275 -11.6257C-1.34698 -13.4586 4.5125 -14.4131 10.3587 -14.8515C21.7117 -15.7051 33.0973 -14.4793 44.2755 -12.2659C66.9534 -7.77452 88.3913 1.83843 110.625 8.25369C131.467 14.2686 153.551 18.2405 174.897 13.5275C179.894 12.4241 184.876 11.2578 189.914 10.396C195.144 9.50101 200.621 9.67801 205.782 8.50017C215.264 6.33639 225.007 2.2123 234.321 -0.872911C245.307 -4.5123 255.546 -9.55782 266.2 -14.1534C272.699 -16.9557 280.197 -19.5943 287.263 -18.5802C291.405 -17.9847 295.15 -15.1509 298.881 -13.1509C298.983 -13.0963 299.051 -13.2766 298.95 -13.3296C291.728 -17.2022 287.06 -19.7713 278.812 -18.3883C268.411 -16.6464 259.115 -10.6116 249.38 -6.55863C237.868 -1.76622 225.872 1.01792 214.195 5.16682C202.597 9.28761 190.557 9.83517 178.592 12.4936C126.13 24.1562 80.1228 -9.79438 29.0334 -14.7655C17.7723 -15.8622 6.13478 -15.5893 -4.86712 -12.4644C-10.8659 -10.7605 -22.856 -7.50984 -22.6737 1.40667C-22.6708 1.53239 -22.4974 1.50593 -22.5004 1.38186V1.3802Z" fill="white"/>
<path d="M-22.5725 5.99729C-22.6081 0.860785 -17.113 -2.73229 -13.5633 -4.56522C-11.6106 -5.57267 -9.56164 -6.39484 -7.51416 -7.12603C-1.66356 -9.21537 4.4626 -10.3485 10.5754 -10.8978C21.7818 -11.9069 33.0978 -10.8763 44.153 -8.72405C67.4324 -4.19466 88.8006 7.42161 111.514 14.2074C130.887 19.9941 152.424 24.3961 172.084 18.2074C177.97 16.3547 183.815 14.4109 189.871 13.3604C195.571 12.3712 201.627 13.7029 207.183 12.3166C210.313 11.5358 212.89 9.22642 215.791 7.8236C220.503 5.54567 225.668 4.2388 230.593 2.67055C242.716 -1.19216 254.051 -5.96473 265.704 -11.2369C272.255 -14.2013 279.312 -16.8498 286.466 -16.5818C291.149 -16.4065 295.051 -13.8738 299.197 -11.5777C299.298 -11.5214 299.366 -11.7017 299.266 -11.7563C291.629 -15.9896 286.755 -17.8258 278.122 -15.8573C267.762 -13.4933 258.573 -7.37913 248.642 -3.59085C237.396 0.698664 224.862 2.67055 214.142 8.46711C211.062 10.133 209.273 11.42 205.635 11.8898C202.793 12.257 200.192 12.1727 197.371 12.2967C191.513 12.5548 185.687 13.8435 180.023 15.4779C174.103 17.1868 168.328 19.5441 162.246 20.4771C154.931 21.5987 147.376 20.9006 140.065 20.0255C126.578 18.4109 113.298 15.0097 100.406 10.3315C76.7261 1.73755 54.103 -8.95565 28.9835 -11.0615C17.5105 -12.0227 5.67449 -11.5297 -5.44741 -8.01933C-11.3943 -6.14174 -22.8066 -2.69093 -22.7459 6.0221C-22.7459 6.14783 -22.571 6.12136 -22.5725 5.99729Z" fill="white"/>
<path d="M-22.645 10.64C-22.6095 5.45055 -17.3663 1.91538 -13.818 0.00635529C-11.4772 -1.25254 -9.0282 -2.303 -6.55107 -3.17646C-0.448614 -5.32866 5.85533 -6.55613 12.2289 -7.12354C24.0871 -8.17731 36.1824 -7.0888 47.8229 -4.40392C70.6015 0.851686 91.0645 14.061 113.494 20.6433C124.642 23.9155 136.12 25.9701 147.637 26.6119C157.337 27.1529 165.378 24.6252 174.41 20.9759C180.218 18.6285 186.175 16.7343 192.329 15.9667C197.436 15.3298 202.69 17.0867 207.657 16.2628C210.222 15.8377 211.961 14.3191 214.06 12.7872C218.865 9.28184 223.809 7.26197 229.294 5.43897C241.63 1.33969 253.41 -2.68845 265.264 -8.30965C271.34 -11.1914 277.854 -13.9722 284.497 -14.4983C290.14 -14.9449 294.626 -12.8026 299.513 -10.0086C299.613 -9.95069 299.681 -10.131 299.582 -10.1872C291.597 -14.753 286.432 -15.777 277.458 -13.2989C266.843 -10.3676 257.388 -3.8911 246.94 -0.384052C236.968 2.96419 224.873 4.70282 215.939 10.989C212.976 13.0734 211.226 15.0139 207.598 15.6872C204.476 16.2662 201.623 15.4721 198.498 15.396C192.689 15.2537 186.827 16.4978 181.255 18.2463C176.6 19.707 172.199 21.9089 167.611 23.5747C160.055 26.3191 152.806 26.8485 144.902 26.2248C131.336 25.1562 117.907 22.2893 104.949 17.6706C81.4819 9.30665 60.0026 -3.76372 35.1572 -6.80096C22.4145 -8.35762 9.16509 -8.19551 -3.28131 -4.46182C-9.60896 -2.55941 -22.7547 1.2851 -22.8184 10.6135C-22.8184 10.7376 -22.6465 10.7657 -22.645 10.64Z" fill="white"/>
<path d="M-22.7153 15.2576C-22.5997 9.7125 -16.8766 6.11613 -13.1979 4.10453C-11.226 3.02595 -9.19181 2.10287 -7.1221 1.28566C-1.21817 -1.04686 4.95836 -2.41659 11.1764 -3.15109C23.6509 -4.62504 36.7018 -3.78964 48.9245 -0.552233C71.2424 5.35847 90.7587 19.7771 112.888 26.4041C124.247 29.8052 136.356 32.1924 148.145 32.2916C158.308 32.376 166.258 27.9508 175.466 23.8168C180.815 21.4148 186.429 19.6547 192.173 18.9648C197.664 18.3064 202.687 20.452 207.969 20.2055C210.833 20.0715 212.83 18.6092 214.975 16.5761C219.373 12.409 223.693 9.8862 229.216 7.87792C241.348 3.46599 253.169 0.395664 264.874 -5.37939C276.548 -11.1412 287.95 -15.4373 299.838 -8.43482C299.937 -8.37692 300.005 -8.55558 299.907 -8.61348C292.116 -13.2024 286.615 -13.659 277.976 -11.0254C266.245 -7.45053 255.786 -0.466208 243.978 3.01933C234.655 5.77204 223.681 7.78032 216.211 14.9896C210.097 20.8904 204.898 18.6737 197.801 18.4636C193.234 18.3296 188.637 19.1451 184.217 20.3842C170.793 24.1476 160.188 32.6555 145.774 32.0054C131.82 31.3768 117.692 28.3065 104.46 23.3817C80.9435 14.629 60.2183 -0.403348 35.0543 -3.26523C22.8213 -4.65647 10.1749 -4.28261 -1.76041 -0.762323C-8.41697 1.19964 -22.6842 5.42795 -22.8886 15.2295C-22.8916 15.3536 -22.7183 15.3817 -22.7153 15.256V15.2576Z" fill="white"/>
<path d="M-22.7893 19.8746C-22.5834 16.753 -18.4292 12.1029 -16.3091 10.394C-14.9401 9.29063 -13.2023 8.4668 -11.6793 7.64794C-9.38584 6.41385 -6.99612 5.37497 -4.57825 4.48498C1.34346 2.30631 7.52444 1.00936 13.7247 0.35096C26.7785 -1.03697 40.4753 0.0184526 53.0388 4.36091C74.0677 11.6298 92.1129 26.3958 113.558 32.6158C123.991 35.6415 135.177 37.8648 145.985 37.8069C156.429 37.7507 164.388 32.7184 173.602 27.9094C179.106 25.0376 184.939 22.9549 190.98 22.0963C194.287 21.6265 197.68 21.4445 200.987 22.007C203.708 22.4685 206.417 24.0467 209.197 24.0136C211.652 23.9855 213.495 22.978 215.387 21.3172C219.261 17.916 221.46 14.6108 226.247 12.222C238.027 6.34272 250.86 4.69011 262.556 -1.41745C274.517 -7.66232 287.546 -14.5027 300.153 -6.86496C300.253 -6.80541 300.321 -6.98407 300.223 -7.04362C292.313 -11.836 285.834 -11.3513 277.341 -8.372C271.878 -6.45636 266.694 -3.77148 261.512 -1.08495C254.467 2.56768 247.177 4.35263 239.708 6.57432C231.337 9.06565 223.131 12.1724 217.178 19.1302C211.512 25.7556 203.588 21.5223 196.635 21.476C191.672 21.4412 186.711 22.4785 181.974 24.0765C169.87 28.1609 160.233 37.1717 147.111 37.6084C132.977 38.0799 117.736 34.4041 104.427 29.3751C81.9703 20.8887 62.7014 4.24345 38.7212 0.711589C25.8318 -1.18751 12.3335 -0.816954 -0.280308 2.86876C-7.56948 4.99449 -22.2841 9.55365 -22.9627 19.8465C-22.9701 19.9706 -22.7982 19.9987 -22.7893 19.873V19.8746Z" fill="white"/>
<path d="M-22.8614 24.4895C-22.6154 21.3927 -18.6819 16.822 -16.5989 15.0503C-15.2774 13.927 -13.6018 13.0585 -12.1276 12.2016C-9.90976 10.9129 -7.59856 9.81946 -5.2518 8.85999C0.869911 6.35708 7.31905 4.86162 13.7904 4.07254C27.0591 2.45466 41.0166 3.40752 53.6556 8.42988C74.249 16.6135 91.3 32.2381 112.714 38.4433C123.272 41.502 135.028 44.1058 145.981 43.234C156.972 42.3589 164.978 35.5202 174.64 30.4399C180.09 27.5747 186.049 25.5284 192.067 24.9296C195.359 24.602 198.75 24.5458 202.009 25.2604C204.78 25.8692 207.561 27.7352 210.436 27.8212C217.385 28.0297 220.241 18.9064 225.563 15.5515C237.383 8.10399 251.142 7.4886 263.302 0.990632C274.763 -5.13347 288.242 -12.9003 300.467 -5.29559C300.564 -5.23438 300.633 -5.4147 300.536 -5.47425C292.437 -10.5132 285.21 -9.02431 276.746 -5.69261C271.781 -3.73892 267.036 -1.19631 262.286 1.31983C255.314 5.01547 248.078 6.48281 240.673 8.61185C235.328 10.147 230.387 12.5374 225.496 15.3712C221.554 17.6557 221.087 19.4126 218.198 23.085C212.908 29.8113 203.51 24.6152 196.594 24.5028C191.624 24.4217 186.634 25.4209 181.895 27.0652C169.685 31.3018 160.125 41.5169 147.04 42.923C133.303 44.4003 117.689 40.4598 104.739 35.6128C81.8138 27.0338 63.0827 7.85916 38.581 4.18833C26.1835 2.33059 13.1904 2.89801 1.07288 6.45137C-6.51556 8.67636 -22.1843 13.7517 -23.0347 24.4631C-23.0451 24.5871 -22.8717 24.6152 -22.8614 24.4895Z" fill="white"/>
<path d="M-22.9315 29.1068C-22.4397 23.8297 -17.2084 19.7701 -13.4349 17.3351C-11.0096 15.7701 -8.51766 14.4004 -5.92201 13.2259C0.0100727 10.541 6.30217 8.85362 12.6372 7.88918C25.7444 5.89579 39.7064 6.50952 52.178 11.7403C63.3029 16.407 73.004 24.0563 83.1244 30.8372C92.1232 36.867 101.675 41.3931 111.845 44.3096C122.246 47.2905 133.965 49.9506 144.74 48.5941C154.706 47.3385 162.135 41.2442 170.599 35.8612C176.224 32.283 182.183 29.6643 188.591 28.4319C196.228 26.9612 202.027 28.9381 209.23 31.0307C218.22 33.6428 219.487 24.0994 225.155 19.029C235.967 9.35486 251.042 10.4566 263.134 3.90736C274.382 -2.18531 288.597 -11.5022 300.788 -3.72378C300.885 -3.66092 300.953 -3.84124 300.857 -3.90244C292.977 -8.93142 285.372 -6.81065 277.284 -3.42105C271.785 -1.11665 266.619 1.93382 261.306 4.69645C254.198 8.39373 246.508 8.89994 239.099 11.3979C234.748 12.8652 230.708 15.12 226.804 17.6891C225.394 18.6171 224.047 19.4343 222.971 20.7379C220.943 23.1961 220.184 27.5932 217.359 29.2971C213.497 31.6279 207.094 29.4559 203.056 28.3475C200.935 27.7652 198.727 27.5237 196.547 27.4823C191.189 27.3798 185.82 28.556 180.75 30.4402C168.729 34.9067 159.527 45.6181 146.813 48.0763C133.162 50.7149 116.81 46.3112 103.876 41.4874C80.828 32.8901 63.0836 11.5402 38.4397 7.63443C26.1933 5.69397 13.2002 6.54757 1.29456 10.2928C-6.47166 12.7362 -22.096 18.2581 -23.1049 29.0804C-23.1167 29.2044 -22.9434 29.2326 -22.9315 29.1068Z" fill="white"/>
<path d="M-23.0037 33.7239C-21.4658 19.4112 2.75436 13.173 12.6347 11.5088C26.4027 9.19279 40.8106 9.98849 53.6185 16.4517C65.1256 22.2582 74.6504 31.4394 85.396 38.6454C93.9327 44.3708 103.336 48.2583 113.016 50.7745C123.322 53.4527 134.924 55.9523 145.458 53.4825C156.339 50.9316 164.026 42.3857 173.676 36.9018C179.013 33.8695 184.88 31.8331 190.824 31.0308C198.522 29.9919 203.562 32.3244 210.648 34.8042C217.108 37.0656 220.277 31.8066 223.311 26.3442C231.584 11.4476 248.454 14.2036 261.148 7.82471C272.868 1.93386 288.248 -10.5575 301.105 -2.15218C301.201 -2.08932 301.27 -2.26964 301.175 -2.33084C292.779 -7.81971 283.953 -4.08768 275.664 -0.157135C269.999 2.5294 264.678 6.21345 258.935 8.65515C252.133 11.5468 244.655 11.4376 237.83 14.2433C233.861 15.876 227.727 18.9149 224.904 22.503C219.835 28.9431 220.745 38.2963 208.887 33.8033C199.322 30.1788 191.107 29.6478 181.252 33.2078C168.958 37.6495 159.9 49.0292 147.407 52.7067C133.756 56.7249 117.353 52.5528 104.185 47.8564C80.8433 39.5304 64.0382 16.0894 39.535 11.3185C27.0753 8.89337 13.54 10.0265 1.45505 14.0795C-6.53044 16.7578 -22.0051 22.7843 -23.177 33.6958C-23.1903 33.8199 -23.017 33.848 -23.0037 33.7223V33.7239Z" fill="white"/>
<path d="M-23.0777 38.3411C-21.3176 23.9126 2.27881 16.9961 12.6051 15.097C26.2901 12.5808 40.4551 13.3451 53.0215 20.3261C64.5582 26.7364 73.6119 36.9796 84.4642 44.5198C92.9134 50.3908 102.36 54.2221 112.039 56.6638C122.632 59.3371 134.404 61.6498 145.089 58.3296C156.27 54.854 164.181 45.0442 174.386 39.4247C179.794 36.447 185.844 34.4503 191.85 33.8779C199.646 33.1351 204.697 35.7836 211.756 38.5016C218.296 41.0194 222.169 35.6231 224.773 29.5768C231.661 13.5883 248.413 16.5494 260.941 10.7744C272.711 5.34838 288.414 -9.28362 301.401 -0.595404C301.496 -0.530888 301.606 -0.684734 301.509 -0.74925C293.964 -5.79808 285.82 -2.42172 278.353 1.0903C273.085 3.56839 268.147 6.73797 262.997 9.47744C255.971 13.2144 248.376 12.9365 241.075 15.4262C236.506 16.9845 231.335 19.8679 227.895 23.6529C224.581 27.2972 224.114 34.4619 219.862 37.1136C217.318 38.7001 211.473 37.9044 208.962 36.8457C207.719 36.3213 206.593 35.5537 205.327 35.0706C203.387 34.3295 201.349 33.8895 199.313 33.6546C194.288 33.0756 189.153 33.777 184.281 35.1748C171.376 38.8787 162.857 49.4115 151.162 55.6051C137.111 63.046 119.639 59.2312 105.312 54.5248C92.7134 50.3858 82.3011 43.069 71.9941 34.1674C62.8604 26.2798 53.2126 18.5577 41.8196 15.4278C28.8576 11.8662 14.2082 13.3302 1.57656 17.8348C-6.60894 20.7529 -21.8984 27.2327 -23.2511 38.3146C-23.2659 38.4387 -23.0925 38.4668 -23.0777 38.3411Z" fill="white"/>
<path d="M-23.1476 42.9578C-22.0395 34.8684 -12.9236 29.2141 -7.02703 25.8097C-0.914204 22.2795 5.7779 19.9668 12.5382 18.6202C26.7772 15.7831 41.0207 16.9411 53.676 25.148C64.2705 32.0181 72.3864 42.3887 82.572 49.8561C91.2019 56.1837 101.035 60.1423 111.084 62.5774C121.329 65.0621 132.375 67.0373 142.645 63.7156C154.511 59.8777 162.541 49.0604 173.31 42.9264C178.724 39.8428 184.69 37.7833 190.723 36.9892C198.911 35.9123 204.559 38.1704 211.817 41.727C218.37 44.938 222.674 41.0554 225.585 34.4913C228.635 27.6128 231.278 23.0007 237.865 19.4904C244.817 15.7848 252.506 16.6235 259.696 14.0478C272.046 9.62264 288.275 -8.22029 301.723 0.979093C301.817 1.04361 301.927 0.891416 301.831 0.825245C293.795 -4.67189 284.353 0.456344 276.769 4.42659C271.004 7.44397 265.532 11.616 259.463 13.7897C252.718 16.205 245.386 15.5582 238.834 18.7956C235.164 20.6086 230.299 23.7534 227.961 27.4639C227.262 28.5739 226.869 30.6765 226.407 31.9189C225.989 33.0421 225.574 34.1736 225.068 35.2506C222.84 39.9934 221.565 40.9793 216.522 41.2771C211.275 41.5864 209.892 39.7436 205.36 38.0661C203.06 37.2142 200.67 36.7378 198.253 36.5409C193.179 36.129 188.034 36.9611 183.146 38.4665C169.931 42.536 161.434 53.7569 149.558 60.4666C136.162 68.0349 120.459 65.2491 106.491 61.1531C92.6198 57.0869 81.4771 49.4442 70.6752 39.1149C61.9934 30.8138 52.8345 22.5011 41.6148 18.999C28.8573 15.0172 14.0582 16.8187 1.64441 21.5218C-6.76628 24.7079 -21.7876 31.7386 -23.321 42.9297C-23.3388 43.0538 -23.1654 43.0802 -23.1476 42.9562V42.9578Z" fill="white"/>
<path d="M-23.2217 47.5753C-21.0156 33.0872 0.468143 24.8721 11.316 22.3526C26.404 18.8472 41.2993 20.341 54.251 30.1111C64.1654 37.5884 71.5346 48.4537 81.4683 55.8747C89.753 62.0633 99.2734 65.8599 108.966 68.2172C119.51 70.7813 130.719 72.6159 141.194 68.7714C151.835 64.8673 159.273 55.5058 168.488 48.8937C179.842 40.7448 196.381 35.8051 209.075 42.9053C216.044 46.8027 221.431 49.1799 226.04 40.2733C227.351 37.7406 227.901 34.9416 228.955 32.308C230.581 28.2517 233.699 25.1219 237.048 22.753C244.452 17.5155 252.647 19.279 260.579 16.4254C272.467 12.1491 289.06 -6.51768 302.04 2.54937C302.135 2.61554 302.243 2.46169 302.148 2.39552C293.999 -3.29682 283.719 3.11182 276.296 7.29216C270.394 10.6156 264.62 15.3286 258.082 16.9233C251.605 18.5031 244.903 17.8861 238.851 21.3551C235.85 23.0755 231.246 26.523 229.478 29.9589C225.284 38.1145 225.797 51.5488 211.916 44.5198C201.766 39.38 192.996 38.1294 182.008 41.7754C169.915 45.7886 161.877 55.1948 151.652 62.7796C137.533 73.2528 121.215 71.5638 105.484 67.1122C91.7087 63.2147 80.3497 55.84 70.0649 44.9979C61.2571 35.7125 52.1561 26.0549 40.1941 22.2401C27.5581 18.2103 12.7945 20.4684 0.663706 25.5801C-7.74402 29.1219 -21.709 36.4768 -23.395 47.5471C-23.4143 47.6712 -23.2409 47.6977 -23.2217 47.5736V47.5753Z" fill="white"/>
<path d="M-23.2927 52.1906C-20.2259 36.614 1.34378 27.8365 13.4657 25.2988C29.2737 21.9903 43.4802 24.9895 55.9755 36.5611C64.4514 44.4106 70.8353 54.7663 80.0016 61.7341C88.5397 68.2254 98.466 72.0071 108.53 74.2718C119.268 76.6887 130.257 77.9641 140.684 73.3934C151.782 68.5282 159.39 57.8085 169.436 51.0475C182.768 42.0747 198.8 39.5305 212.618 48.1145C218.65 51.8614 223.592 51.3552 227.284 44.3593C230.718 37.8497 230.72 31.3402 236.465 26.2632C244.153 19.4708 252.771 21.8083 261.444 18.8075C272.893 14.8455 289.827 -4.8155 302.36 4.1192C302.455 4.18703 302.563 4.03318 302.468 3.96536C294.216 -1.91722 283.083 5.85122 275.849 10.1937C269.443 14.0399 263.89 18.4319 256.522 19.6644C250.823 20.6172 245.094 20.1921 239.888 23.4129C236.455 25.5354 232.523 29.1863 230.822 33.1566C229.818 35.5023 229.532 38.3361 228.622 40.7646C227.955 42.5412 227.25 44.3097 226.218 45.8779C222.869 50.9598 216.19 50.0748 211.878 47.3618C202.803 41.6562 192.979 41.3651 182.991 44.4056C169.555 48.495 161.003 58.9202 149.932 67.5273C136.537 77.9409 121.579 77.3586 106.256 73.534C92.0243 69.9806 79.8164 63.0343 69.5997 51.3701C61.2779 41.8696 53.2835 31.6744 41.9083 26.6967C29.6323 21.3252 14.8006 23.4725 2.66679 28.3542C-6.74246 32.1376 -21.1104 40.2005 -23.4646 52.1641C-23.4883 52.2865 -23.3149 52.313 -23.2912 52.1906H-23.2927Z" fill="white"/>
<path d="M-23.3652 56.808C-20.0169 40.8757 0.674253 31.4927 13.3162 28.6656C29.5509 25.0361 43.8729 29.0361 55.8615 41.9129C63.9774 50.6293 69.9628 61.3986 79.5039 68.4176C88.6213 75.124 99.2899 78.6675 109.973 80.6774C120.618 82.6807 131.124 82.818 141.02 77.392C152.511 71.0926 160.383 59.0545 171.725 52.4424C184.45 45.0263 200.021 42.5283 212.73 51.0147C218.906 55.1388 224.379 56.2455 228.329 48.3315C230.999 42.9849 231.213 36.4423 234.588 31.4944C241.436 21.4546 251.592 23.984 261.115 21.4844C266.692 20.0204 271.566 15.7821 276.486 12.6969C283.362 8.38423 294.891 0.0334833 302.674 5.68943C302.767 5.75725 302.877 5.60506 302.782 5.53558C294.465 -0.509119 282.507 8.64395 275.452 13.132C269.148 17.1436 263.698 21.3322 256.201 22.0386C250.078 22.6159 244.214 22.6341 238.969 26.6722C228.121 35.0246 231.122 62.7286 212.014 50.2637C203.165 44.4903 192.985 44.4274 183.238 47.2744C170.491 50.9982 161.71 60.0057 151.776 69.1091C138.478 81.2961 124.186 83.5112 107.592 80.0025C92.5711 76.8263 78.9913 70.2092 68.5643 57.4697C60.7343 47.9047 53.9652 37.506 43.3663 31.4398C30.9199 24.3148 15.2452 26.5067 2.58544 31.8715C-7.08752 35.9725 -20.9814 44.6144 -23.5385 56.7815C-23.5637 56.9039 -23.3904 56.9304 -23.3652 56.808Z" fill="white"/>
<path d="M-23.4372 61.4245C-19.7985 45.1663 0.0200348 35.072 13.1642 32.0083C30.3501 28.0033 44.7729 33.6443 56.2281 48.3243C63.6165 57.7917 69.2301 68.3128 78.9638 75.1466C88.379 81.7554 99.4668 85.0557 110.383 86.7976C121.155 88.5164 131.684 87.3684 141.239 81.1649C152.897 73.5949 160.988 60.8901 173.369 54.4219C179.399 51.2722 185.978 49.2044 192.629 48.6866C201.883 47.9653 207.758 51.1051 215.538 55.9439C221.997 59.9604 227.205 58.2731 230.396 50.7495C232.853 44.9595 232.999 38.1803 236.548 32.9661C243.656 22.5177 253.688 26.6799 263.209 23.5632C267.933 22.0181 272.125 18.2927 276.308 15.5185C282.838 11.186 295.28 1.55153 302.992 7.26207C303.085 7.33155 303.193 7.1777 303.1 7.10822C295.529 1.50356 284.438 9.99988 278.02 14.1653C271.659 18.2927 265.894 23.3548 258.351 24.2183C251.824 24.9661 245.664 24.2349 240.089 28.7924C230.556 36.584 232.725 65.2194 215.708 55.6957C210.987 53.0522 207.302 49.962 201.902 48.943C196.039 47.838 189.971 48.412 184.217 49.9654C171.118 53.4989 161.856 62.2119 151.94 71.9043C138.843 84.705 125.182 89.3717 107.91 86.1723C92.5451 83.327 77.8334 77.0838 67.4137 63.6925C59.5364 53.5667 53.5125 42.1771 42.7757 35.3267C30.5531 27.5302 15.0873 29.7601 2.48531 35.3582C-7.47359 39.7833 -20.8311 48.9827 -23.6105 61.398C-23.6372 61.5204 -23.4638 61.5452 -23.4372 61.4245Z" fill="white"/>
<path d="M-23.5087 66.0414C-19.5633 49.4475 -0.746304 38.5971 12.9876 35.2936C31.2771 30.8932 45.4406 38.6004 56.2722 55.0191C62.8398 64.9744 68.1171 74.8405 77.8404 81.3649C87.6556 87.9506 99.4946 91.269 110.774 92.8472C120.95 94.2715 130.842 92.025 139.604 86.025C151.745 77.7106 160.061 64.1804 173.201 57.3698C179.274 54.2217 185.899 52.1853 192.586 51.6807C202.103 50.9628 208.668 54.1026 216.575 59.56C223.381 64.2581 228.87 61.8446 232.073 53.9951C234.352 48.4136 234.463 41.9437 237.178 36.6087C243.171 24.8369 253.175 28.4598 262.901 26.2C267.803 25.0602 271.866 21.3745 276.03 18.4581C282.376 14.0147 295.607 3.0287 303.31 8.83353C303.403 8.90301 303.511 8.75082 303.418 8.67969C295.551 2.74913 283.253 13.214 276.784 17.6988C270.203 22.2612 264.895 26.2877 256.829 26.559C250.708 26.7641 245.063 26.9031 240.319 31.7633C237.747 34.3986 236.23 37.5616 235.249 41.239C234.358 44.5823 233.863 48.0314 232.815 51.3317C232.452 52.4781 232.067 53.6592 231.584 54.756C229.157 60.2614 224.27 62.3673 218.735 60.7428C215.658 59.8396 212.718 55.9802 209.622 54.4252C207.17 53.1944 204.562 52.3739 201.913 51.8859C195.676 50.7378 189.185 51.4756 183.099 53.2225C170.417 56.8636 161.187 65.297 151.701 74.9613C139.136 87.7603 125.854 95.3038 108.452 92.2665C93.5669 89.6693 77.7619 84.4733 67.3452 71.575C58.6367 60.7908 53.5032 47.3284 42.1739 39.2605C30.2297 30.7575 14.8676 32.971 2.33826 38.7923C-7.91843 43.5616 -20.67 53.3466 -23.6805 66.015C-23.7087 66.1357 -23.5353 66.1622 -23.5072 66.0414H-23.5087Z" fill="white"/>
<path d="M-23.5864 70.6836C-19.844 55.83 -5.11157 44.7282 7.31853 40.2153C16.0196 37.0557 26.3667 35.4097 35.0663 39.4494C42.911 43.0921 48.9853 50.2898 53.6744 58.002C60.0835 68.5413 64.8689 79.3553 74.7522 86.424C84.4059 93.3272 96.2138 96.7383 107.487 98.3463C118.292 99.8864 128.759 97.4232 137.955 90.8475C150.284 82.0319 158.671 67.9789 172.11 60.806C186.038 53.3734 202.428 51.5686 215.624 61.5173C221.893 66.2436 228.127 68.4686 232.618 59.9259C235.189 55.0342 235.794 49.2344 236.997 43.8332C238.274 38.1061 241.227 32.9183 246.257 30.4469C250.802 28.2136 255.464 29.3203 260.21 28.9646C266.294 28.5081 270.028 25.6759 274.984 22.02C281.089 17.5138 295.844 4.43183 303.631 10.4037C303.722 10.4749 303.832 10.321 303.739 10.2499C295.712 4.09271 282.08 16.5692 275.678 21.2723C273.304 23.0175 270.997 24.9646 268.465 26.4187C264.079 28.9382 260.053 28.6239 255.331 28.7132C250.029 28.8124 245.354 29.5751 241.47 33.9291C232.394 44.0995 236.886 76.9732 215.732 61.3651C205.999 54.184 195.407 52.935 184.065 55.906C170.671 59.4147 160.849 68.0748 151.023 78.409C138.889 91.1701 125.991 100.361 108.622 98.3182C93.9174 96.5878 77.659 91.3107 67.0749 79.1981C57.6019 68.3561 53.4551 53.1715 42.2739 43.901C22.0154 27.1036 -16.9105 43.4726 -23.7464 70.6075C-23.776 70.7266 -23.616 70.806 -23.5864 70.6853V70.6836Z" fill="white"/>
<path d="M-23.6602 75.3008C-19.4793 59.6084 -5.25507 47.8317 8.17952 43.0906C17.0317 39.9656 27.0351 38.935 35.5628 43.7291C43.1468 47.9921 48.5633 55.9359 52.7531 63.9261C58.2155 74.3446 62.6468 84.6822 71.8708 91.6599C81.5305 98.9684 93.8154 102.588 105.3 104.014C116.321 105.38 127.048 102.533 136.284 95.6566C148.201 86.7831 156.409 72.9551 169.184 65.3024C182.678 57.218 201.554 53.3023 214.964 63.6366C221.551 68.7135 228.6 73.7226 233.967 63.9608C236.618 59.1403 237.332 53.304 238.331 47.8747C239.236 42.9499 240.501 38.1625 244.092 34.7563C249.199 29.9127 255.085 31.471 261.114 31.2443C266.798 31.0293 270.307 28.4966 274.828 25.0094C280.889 20.3344 296.161 5.90756 303.946 11.9787C304.038 12.0499 304.146 11.8977 304.055 11.8249C296.265 5.75041 282.264 19.0573 276.286 23.6446C273.627 25.686 270.812 28.3626 267.81 29.7671C263.256 31.8961 258.561 30.5975 253.86 30.8175C248.804 31.0558 244.501 32.9929 241.477 37.6828C238.845 41.7655 238.449 46.5381 237.572 51.3172C236.893 55.0211 236.111 58.864 234.587 62.2652C233.784 64.0551 232.398 66.5481 230.821 67.7921C224.757 72.5729 220.145 67.6449 215.884 64.1775C206.338 56.4091 194.055 56.0451 182.928 59.1684C169.003 63.0774 159.045 72.4224 148.932 83.3257C136.924 96.2687 123.834 105.743 106.41 103.936C91.8701 102.429 75.6962 97.2414 65.2839 85.2148C55.9739 74.4621 52.7101 59.0708 42.5245 48.9831C21.866 28.5231 -16.4348 47.4975 -23.8202 75.2231C-23.8513 75.3422 -23.6913 75.4199 -23.6602 75.3008Z" fill="white"/>
<path d="M-23.7318 79.9178C-19.1998 63.8019 -6.14148 51.3535 7.97461 46.3064C17.9898 42.7249 28.6747 42.2468 37.5298 49.4776C44.2175 54.9367 48.4843 62.811 52.0904 70.9467C57.0832 82.209 61.8967 92.257 71.7889 99.0296C81.7878 105.877 94.6505 109.415 106.294 109.83C117.214 110.219 127.55 106.318 136.298 99.0924C148.624 88.9087 157.272 74.328 171.479 66.8623C185.537 59.4743 203.619 56.9268 216.772 67.8367C223.524 73.4364 230.599 76.9335 235.723 67.1882C238.392 62.1113 239.093 56.0186 239.97 50.3246C240.809 44.8837 241.915 38.6057 246.664 35.5338C251.591 32.346 256.72 33.5768 262.044 33.5222C268.136 33.4593 271.78 30.3691 276.515 26.5643C282.136 22.0449 296.996 7.79004 304.267 13.5502C304.359 13.623 304.467 13.4691 304.376 13.3964C296.694 7.3103 282.108 21.8282 276.41 26.4088C273.968 28.3724 271.459 30.8572 268.681 32.164C264.173 34.2865 259.476 32.7281 254.826 32.8985C249.713 33.0855 245.582 34.9597 242.717 39.8845C240.259 44.1095 240.072 48.9118 239.305 53.7158C238.714 57.4148 238.019 61.1948 236.654 64.6539C235.705 67.0608 234.339 70.3082 232.18 71.6564C229.225 71.9591 226.269 72.2618 223.313 72.5646C221.255 71.4446 219.372 70.0468 217.661 68.3727C207.739 60.1658 196.056 58.806 184.138 61.8085C171.268 65.0509 161.106 72.7482 151.733 82.8707C139.043 96.573 127.144 109.4 108.381 109.617C93.4371 109.789 75.875 104.553 64.802 92.8575C54.6001 82.0816 52.1911 65.5604 42.573 54.2518C21.7425 29.7521 -15.9522 51.6017 -23.8918 79.84C-23.9259 79.9592 -23.7644 80.0369 -23.7318 79.9178Z" fill="white"/>
<path d="M-23.8021 84.5345C-18.4167 66.3591 -4.64585 52.2565 12.1429 48.0861C32.8267 42.9479 43.8345 59.3086 51.1578 78.1987C55.5105 89.4246 60.5611 98.8556 70.2281 105.248C80.6004 112.106 94.1076 115.679 106.108 115.383C118.11 115.087 128.893 109.565 137.875 100.856C149.526 89.5586 158.577 75.8099 173.194 68.8852C187.969 61.886 205.306 60.6105 218.517 72.0233C226.138 78.6073 233.748 79.7206 238.203 68.814C240.458 63.2921 241.039 57.173 241.762 51.2341C242.384 46.1324 243.736 40.7477 247.719 37.5748C252.843 33.4954 258.56 35.9206 264.136 35.7998C269.929 35.6757 273.457 32.0115 277.866 28.3258C283.365 23.7303 297.69 9.57635 304.582 15.1215C304.674 15.1942 304.782 15.0421 304.69 14.9676C297.29 9.0139 282.34 24.3242 277.027 28.7857C274.719 30.7245 272.236 33.2886 269.547 34.5608C265.019 36.703 260.416 34.9015 255.785 34.9776C250.654 35.0603 246.596 37.0107 243.941 42.1009C241.441 46.8966 241.593 52.5923 240.761 57.9074C240.187 61.5667 239.442 65.3483 238.04 68.7363C237.175 70.8273 236.166 72.8488 234.59 74.3757C228.757 80.0234 223.29 75.8496 218.622 71.8695C208.476 63.2193 196.375 61.7023 184.056 64.766C171.044 68.0018 160.574 75.7438 151.148 86.0317C139.302 98.9614 128.466 112.3 111.107 114.793C95.7076 117.005 76.3647 111.744 64.4131 100.422C52.9904 89.6032 51.4452 72.3277 42.3974 59.6908C21.7359 30.8271 -15.4803 55.8231 -23.9636 84.4568C-23.9992 84.5759 -23.8392 84.6537 -23.8036 84.5345H-23.8021Z" fill="white"/>
<path d="M-23.8755 89.1502C-18.7539 72.5546 -8.70162 58.9764 6.43378 52.9995C17.7424 48.533 29.0035 49.4197 37.5861 59.519C43.6752 66.6836 46.5035 75.5654 49.6147 84.5878C53.6756 96.3695 59.2639 105.791 69.4066 111.954C80.5981 118.755 95.1201 122.234 107.795 120.601C120.284 118.993 130.67 111.635 139.517 102.012C152.805 87.5621 164.204 73.1915 182.978 68.1923C190.953 66.0682 199.428 65.6199 207.353 68.2055C211.553 69.5753 215.274 71.7291 218.703 74.7945C221.143 76.9765 223.494 79.5588 226.533 80.6969C235.816 84.1725 240.244 73.079 241.918 64.8838C243.572 56.796 242.044 45.1566 248.778 39.6082C255.833 33.7951 264.971 40.9167 272.397 35.9473C276.835 32.9762 280.727 28.599 284.913 25.1979C289.067 21.8215 299.349 12.1506 304.901 16.685C304.992 16.7594 305.1 16.6056 305.01 16.5312C298.978 11.6047 287.85 22.5031 283.467 26.1458C279.581 29.3749 275.914 33.5652 271.647 36.1309C264.784 40.2583 257.052 34.4733 250.251 38.341C245.55 41.0143 243.886 46.8291 243.264 52.2634C242.398 59.8134 242.158 67.4975 238.671 74.3032C231.756 87.8004 222.494 76.4752 214.704 71.4099C208.874 67.6183 202.066 66.1592 195.379 66.2254C181.403 66.3643 167.594 72.6522 156.943 82.5944C142.769 95.8269 132.538 114.055 113.537 119.253C97.9958 123.504 78.0024 119.016 64.9486 108.633C51.997 98.3314 50.6858 81.663 43.13 67.3519C34.3845 50.7877 19.9454 46.5793 4.2574 53.7075C-9.86759 60.1344 -19.1583 73.2693 -24.0355 89.0741C-24.0726 89.1916 -23.9111 89.271 -23.8755 89.1519V89.1502Z" fill="white"/>
</g>
</g>
<defs>
<clipPath id="clip0_4896_2937">
<rect width="236" height="91" rx="8" fill="white"/>
</clipPath>
</defs>
</svg>
