<svg width="37" height="36" viewBox="0 0 37 36" fill="none" xmlns="http://www.w3.org/2000/svg">
<g filter="url(#filter0_d_4515_2999)">
<path d="M30.805 5.9433H30.88V5.8683V5.01232V4.93732H30.805H28.6651C28.4124 4.93732 28.2038 5.12283 28.1676 5.36531H26.7333L25.3162 3.94816V1.16041C25.3162 0.882261 25.0913 0.657422 24.8132 0.657422C23.3556 0.657422 22.1702 1.84276 22.1702 3.30036V5.36531H19.0353C18.1679 5.36531 17.4624 6.07086 17.4624 6.93827C17.4624 7.35199 17.6238 7.72754 17.8854 8.00825C17.6238 8.28897 17.4624 8.66451 17.4624 9.07822C17.4624 9.61442 17.7344 10.0851 18.1441 10.3685C17.9853 10.6135 17.8904 10.9042 17.8904 11.2182C17.8904 11.7544 18.1624 12.225 18.5721 12.5084C18.4133 12.7535 18.3184 13.0441 18.3184 13.3581C18.3184 14.2255 19.0239 14.9311 19.8913 14.9311H28.1674C28.2035 15.1736 28.4122 15.3591 28.6649 15.3591H30.8048H30.8798V15.2841V14.4281V14.3531H30.8048H29.1678V5.9433H30.805ZM20.5335 12.7911H20.6085V12.7161V11.8602V11.7852H20.5335H19.4636C19.1511 11.7852 18.8966 11.5306 18.8966 11.2182C18.8966 10.9057 19.1511 10.6512 19.4636 10.6512H20.1055H20.1805V10.5762V9.7202V9.6452H20.1055H19.0356C18.7231 9.6452 18.4686 9.39066 18.4686 9.07822C18.4686 8.76578 18.7231 8.51124 19.0356 8.51124H19.6775H19.7525V8.43624V7.58026V7.50526H19.6775H19.0356C18.7231 7.50526 18.4686 7.25071 18.4686 6.93827C18.4686 6.62584 18.7231 6.37129 19.0356 6.37129H22.6735C22.9516 6.37129 23.1765 6.14645 23.1765 5.8683V3.30036C23.1765 2.57354 23.6528 1.95488 24.3104 1.74246V4.15634C24.3104 4.29011 24.3632 4.41752 24.4577 4.51202L26.1697 6.22398C26.2638 6.31807 26.3916 6.37129 26.5254 6.37129H28.1623V13.9251H19.8915C19.5791 13.9251 19.3246 13.6706 19.3246 13.3581C19.3246 13.0457 19.5791 12.7911 19.8915 12.7911H20.5335Z" fill="white" stroke="white" stroke-width="0.15"/>
<path d="M4.26978 13.6468H5.90673V22.0566H4.26978H4.19478V22.1316V22.9876V23.0626H4.26978H6.40972C6.66238 23.0626 6.87105 22.8771 6.90718 22.6346H8.34149L9.75864 24.0517V26.8395C9.75864 27.1176 9.98348 27.3425 10.2616 27.3425C11.7192 27.3425 12.9046 26.1571 12.9046 24.6995V22.6346H16.0395C16.9069 22.6346 17.6122 21.929 17.6122 21.0616C17.6122 20.6479 17.4508 20.2724 17.1892 19.9916C17.4508 19.7109 17.6122 19.3354 17.6122 18.9217C17.6122 18.3855 17.3402 17.9148 16.9301 17.6314C17.089 17.3864 17.1842 17.0958 17.1842 16.7817C17.1842 16.2455 16.9122 15.7748 16.5021 15.4915C16.661 15.2464 16.7562 14.9558 16.7562 14.6418C16.7562 13.7744 16.0507 13.0688 15.1833 13.0688H6.90718C6.87105 12.8263 6.66238 12.6408 6.40972 12.6408H4.26978H4.19478V12.7158V13.5718V13.6468H4.26978ZM8.54947 21.6286H6.91251V14.0748H15.1831C15.4955 14.0748 15.75 14.3293 15.75 14.6418C15.75 14.9542 15.4955 15.2088 15.1831 15.2088H14.5411H14.4661V15.2838V16.1397V16.2147H14.5411H15.611C15.9235 16.2147 16.178 16.4693 16.178 16.7817C16.178 17.0942 15.9235 17.3487 15.611 17.3487H14.9691H14.8941V17.4237V18.2797V18.3547H14.9691H16.039C16.3515 18.3547 16.606 18.6092 16.606 18.9217C16.606 19.2341 16.3515 19.4887 16.039 19.4887H15.3971H15.3221V19.5637V20.4196V20.4946H15.3971H16.039C16.3515 20.4946 16.606 20.7492 16.606 21.0616C16.606 21.3741 16.3517 21.6286 16.0393 21.6286H12.4014C12.1232 21.6286 11.8984 21.8534 11.8984 22.1316V24.6995C11.8984 25.4263 11.422 26.045 10.7644 26.2574V23.8435C10.7644 23.7097 10.7112 23.582 10.6171 23.4879L8.90515 21.7759L8.90508 21.7758C8.81045 21.6814 8.68328 21.6286 8.54947 21.6286Z" fill="white" stroke="white" stroke-width="0.15"/>
<path d="M17.9431 5.09613L18.0178 5.09919L18.0211 5.02449L18.0587 4.16929L18.062 4.09426L17.987 4.09106C17.8379 4.08472 17.688 4.08125 17.5371 4.08125C12.7486 4.08125 8.64595 7.49465 7.78195 12.1972L7.76839 12.271L7.84217 12.2845L8.68401 12.4391L8.75777 12.4527L8.77132 12.3789C9.54757 8.15415 13.2338 5.08721 17.5371 5.08721C17.6728 5.08721 17.8088 5.09062 17.9431 5.09613Z" fill="white" stroke="white" stroke-width="0.15"/>
<path d="M17.1308 22.904L17.0561 22.9009L17.0528 22.9756L17.0152 23.8308L17.0119 23.9058L17.0869 23.909C17.2358 23.9154 17.3859 23.9189 17.5368 23.9189C22.3249 23.9189 26.4279 20.5055 27.2919 15.8029L27.3055 15.7291L27.2317 15.7156L26.3899 15.561L26.3161 15.5475L26.3026 15.6212C25.5263 19.846 21.8399 22.9129 17.5368 22.9129C17.401 22.9129 17.2651 22.9095 17.1308 22.904Z" fill="white" stroke="white" stroke-width="0.15"/>
</g>
<defs>
<filter id="filter0_d_4515_2999" x="-2.46265" y="0" width="43" height="36" filterUnits="userSpaceOnUse" color-interpolation-filters="sRGB">
<feFlood flood-opacity="0" result="BackgroundImageFix"/>
<feColorMatrix in="SourceAlpha" type="matrix" values="0 0 0 0 0 0 0 0 0 0 0 0 0 0 0 0 0 0 127 0" result="hardAlpha"/>
<feOffset dy="4"/>
<feGaussianBlur stdDeviation="2"/>
<feComposite in2="hardAlpha" operator="out"/>
<feColorMatrix type="matrix" values="0 0 0 0 0 0 0 0 0 0 0 0 0 0 0 0 0 0 0.25 0"/>
<feBlend mode="normal" in2="BackgroundImageFix" result="effect1_dropShadow_4515_2999"/>
<feBlend mode="normal" in="SourceGraphic" in2="effect1_dropShadow_4515_2999" result="shape"/>
</filter>
</defs>
</svg>
